/* XPM */
static char * smtp_away_xpm[] = {
"12 13 24 1",
" 	c None",
".	c #73A0C6",
"+	c #A4C5E2",
"@	c #A9C9E4",
"#	c #A6C7E2",
"$	c #A8C8E3",
"%	c #ACCBE5",
"&	c #9DC0DE",
"*	c #9FC2E0",
"=	c #A2C4E0",
"-	c #AACAE4",
";	c #AECCE6",
">	c #9BBFDD",
",	c #9EC1DF",
"'	c #99BEDD",
")	c #A5C6E2",
"!	c #97BCDB",
"~	c #96BBDB",
"{	c #94BADA",
"]	c #92B8D8",
"^	c #A1C3E0",
"/	c #8FB6D7",
"(	c #99BDDC",
"_	c #93B9D9",
"     ..     ",
"   .+@@+.   ",
" ..+#$@%%.. ",
".&*=+#@-%;+.",
".>,*=+#@-%@.",
".'>,*=)$@-$.",
".!'&,*=)$@#.",
".~!'&,*=)$+.",
".{~!'&**+)=.",
".]{~!'&*^+,.",
" ./{~!>&,(. ",
"  .._~!~..  ",
"    ....    "};
