/* XPM */
static char * dead_xpm[] = {
"23 23 249 2",
"  	c None",
". 	c #CB962A",
"+ 	c #D7971A",
"@ 	c #D69A25",
"# 	c #D7971D",
"$ 	c #D59925",
"% 	c #D29219",
"& 	c #C79432",
"* 	c #D08F12",
"= 	c #E59906",
"- 	c #F5A304",
"; 	c #FCAB06",
"> 	c #FEAF08",
", 	c #FFAF08",
"' 	c #FDAE07",
") 	c #F9A805",
"! 	c #EF9F01",
"~ 	c #DA9205",
"{ 	c #C28C20",
"] 	c #C48E23",
"^ 	c #E09505",
"/ 	c #F8A605",
"( 	c #FFB407",
"_ 	c #FFBD08",
": 	c #FFC208",
"< 	c #FFC508",
"[ 	c #FFBE08",
"} 	c #FFB508",
"| 	c #FCAC06",
"1 	c #EC9D01",
"2 	c #D08C03",
"3 	c #AE7D18",
"4 	c #C28914",
"5 	c #E29803",
"6 	c #FFBA08",
"7 	c #FFC408",
"8 	c #FFCC08",
"9 	c #FFD208",
"0 	c #FFD008",
"a 	c #FFC608",
"b 	c #FFBC08",
"c 	c #FEAF07",
"d 	c #EE9F02",
"e 	c #CE8A01",
"f 	c #AA770C",
"g 	c #E19402",
"h 	c #FCAC07",
"i 	c #FFBB08",
"j 	c #FFC808",
"k 	c #FFD108",
"l 	c #FFD708",
"m 	c #FFDA08",
"n 	c #FFDD08",
"o 	c #FFDB08",
"p 	c #FFD908",
"q 	c #FFD508",
"r 	c #FFCF08",
"s 	c #FFC708",
"t 	c #ED9C01",
"u 	c #C68301",
"v 	c #A77821",
"w 	c #D28C05",
"x 	c #000000",
"y 	c #FFDE08",
"z 	c #FFE208",
"A 	c #FFE308",
"B 	c #FFDF08",
"C 	c #FFDC08",
"D 	c #FFD608",
"E 	c #FFB908",
"F 	c #FBA906",
"G 	c #E09400",
"H 	c #BC7C01",
"I 	c #BC8517",
"J 	c #E89A01",
"K 	c #FFB107",
"L 	c #FFE708",
"M 	c #FFE408",
"N 	c #FFE608",
"O 	c #FFE008",
"P 	c #FFD308",
"Q 	c #F2A001",
"R 	c #D48A00",
"S 	c #AB7611",
"T 	c #CC8A06",
"U 	c #F7A604",
"V 	c #FDAB06",
"W 	c #FFE808",
"X 	c #FFEB08",
"Y 	c #FFEB0B",
"Z 	c #FFE909",
"` 	c #93301F",
" .	c #DB4430",
"..	c #FCAA05",
"+.	c #E59600",
"@.	c #BE7F00",
"#.	c #DB9100",
"$.	c #FFED0C",
"%.	c #FFF91E",
"&.	c #FFFD32",
"*.	c #FFFA23",
"=.	c #FFEA0C",
"-.	c #FFD808",
";.	c #FFAE08",
">.	c #EF9E01",
",.	c #CC8700",
"'.	c #A47621",
").	c #B87A06",
"!.	c #E29500",
"~.	c #FDAE06",
"{.	c #FFF71A",
"].	c #FFFF67",
"^.	c #E58032",
"/.	c #FFFF77",
"(.	c #FFF723",
"_.	c #FFE009",
":.	c #FFB208",
"<.	c #F5A201",
"[.	c #D58D00",
"}.	c #A77819",
"|.	c #B98212",
"1.	c #E69500",
"2.	c #FFAE06",
"3.	c #FFD408",
"4.	c #FFFA22",
"5.	c #FFF92F",
"6.	c #FFDE0A",
"7.	c #FFB308",
"8.	c #F8A401",
"9.	c #DA8F00",
"0.	c #A8771C",
"a.	c #B17F1C",
"b.	c #E49500",
"c.	c #FFF115",
"d.	c #FFFE49",
"e.	c #FFFF55",
"f.	c #FFF11B",
"g.	c #A57315",
"h.	c #B17A12",
"i.	c #DB9000",
"j.	c #FAA704",
"k.	c #FFCB08",
"l.	c #FFEB13",
"m.	c #FFF220",
"n.	c #FFEA14",
"o.	c #FFDB0A",
"p.	c #FFCE08",
"q.	c #FFB008",
"r.	c #F4A201",
"s.	c #D68D00",
"t.	c #A4751D",
"u.	c #A5700A",
"v.	c #CD8700",
"w.	c #FFB708",
"x.	c #FEAB07",
"y.	c #EE9D00",
"z.	c #CF8900",
"A.	c #A27419",
"B.	c #BC7C00",
"C.	c #DF9500",
"D.	c #F9A602",
"E.	c #FFC908",
"F.	c #FFCD08",
"G.	c #FFC108",
"H.	c #F9A603",
"I.	c #E49600",
"J.	c #C38100",
"K.	c #9B7324",
"L.	c #A56E0A",
"M.	c #D48C00",
"N.	c #FFC308",
"O.	c #FFBF08",
"P.	c #FEAA06",
"Q.	c #D68E00",
"R.	c #B07603",
"S.	c #916510",
"T.	c #B27500",
"U.	c #F8A503",
"V.	c #FFB408",
"W.	c #FFB808",
"X.	c #F3A000",
"Y.	c #DF9400",
"Z.	c #C38200",
"`.	c #9A6D1A",
" +	c #936508",
".+	c #F19F00",
"++	c #FDAA06",
"@+	c #FFAE07",
"#+	c #FBA803",
"$+	c #F09F00",
"%+	c #C88400",
"&+	c #A56E06",
"*+	c #936303",
"=+	c #B37600",
"-+	c #C98400",
";+	c #D98F00",
">+	c #E39600",
",+	c #EC9B00",
"'+	c #F4A100",
")+	c #F9A502",
"!+	c #FBA903",
"~+	c #FDA904",
"{+	c #F3A101",
"]+	c #EA9A00",
"^+	c #DC9200",
"/+	c #CA8500",
"(+	c #AA7201",
"_+	c #7C5F25",
":+	c #8A5B01",
"<+	c #A56E00",
"[+	c #B87A00",
"}+	c #C88300",
"|+	c #DF9300",
"1+	c #E39700",
"2+	c #EA9900",
"3+	c #DD9200",
"4+	c #D18A00",
"5+	c #C17F00",
"6+	c #A66F03",
"7+	c #8C671D",
"8+	c #7E5508",
"9+	c #976400",
"0+	c #AB7200",
"a+	c #B97A00",
"b+	c #C58200",
"c+	c #CA8600",
"d+	c #D18900",
"e+	c #D18B00",
"f+	c #D08800",
"g+	c #C98500",
"h+	c #BF7F00",
"i+	c #B17500",
"j+	c #9A6706",
"k+	c #7B560B",
"l+	c #835908",
"m+	c #936100",
"n+	c #A16900",
"o+	c #A96F00",
"p+	c #AF7400",
"q+	c #AF7500",
"r+	c #AA6F00",
"s+	c #A46B00",
"t+	c #966504",
"u+	c #8D6516",
"v+	c #7F5D15",
"w+	c #8B692C",
"x+	c #876626",
"y+	c #8B692B",
"z+	c #856019",
"                . + @ # $ % &                 ",
"            * = - ; > , ' ) ! ~ {             ",
"        ] ^ / ( _ : < < : [ } | 1 2 3         ",
"      4 5 ; 6 7 8 9 9 9 0 8 a b c d e f       ",
"      g h i j k l m n o p q r s b c t u v     ",
"    w x 6 j 9 x y z A z B C D r a E F G H     ",
"  I J K x L x B M L L L N O o P 8 [ K Q R S   ",
"  T U V j x n L L W X Y Z M y l `  .} ..+.@.  ",
"  #.; _ x n x A L $.%.&.*.=.B -.`  .6 ;.>.,.'.",
").!.~.x 8 L n x L {.].^./.(._.-.`  .b :.<.[.}.",
"|.1.2.[ } 3.L B N 4.^.^.^.5.6.q `  ._ 7.8.9.0.",
"a.b.V V s r D L O c.d.^.e.f.p k `  ._ 7.8.9.g.",
"h.i.j.} } k.L l o _.l.m.n.o.P p.`  .i q.r.s.t.",
"u.v.>.x 6 L k.x 3.l -.-.q 9 p.8 `  .w.x.y.z.A.",
"  B.C.D.x b x E.F.r k r F.8 E.a G.i :.H.I.J.K.",
"  L.,.M.j.x E E N.< a a a a : O.6 7.P.y.Q.R.  ",
"  S.T.M.x U.x V.W.6 6 b b b i W.:.x.X.Y.Z.`.  ",
"     +x z.I..+x ++@+q.:.7.:.q.@+#+$+G %+&+    ",
"      *+=+-+;+>+,+'+)+!+~+!+)+{+]+^+/+(+      ",
"      _+:+<+[+}+M.|+1+2+2+2+I.3+4+5+6+7+      ",
"          8+9+0+a+b+c+d+e+f+g+h+i+j+          ",
"            k+l+m+n+o+p+q+r+s+t+u+            ",
"                  v+w+x+y+z+                  "};
