/* XPM */
static char * embarrased_xpm[] = {
"23 23 299 2",
"  	c None",
". 	c #CB962A",
"+ 	c #D7971A",
"@ 	c #D69A25",
"# 	c #D7971D",
"$ 	c #D59925",
"% 	c #D29219",
"& 	c #C79432",
"* 	c #D08F12",
"= 	c #E59906",
"- 	c #F5A304",
"; 	c #FCAB06",
"> 	c #FEAF08",
", 	c #FFAF08",
"' 	c #FDAE07",
") 	c #F9A805",
"! 	c #EF9F01",
"~ 	c #DA9205",
"{ 	c #C28C20",
"] 	c #C48E23",
"^ 	c #E09505",
"/ 	c #F8A605",
"( 	c #FFB407",
"_ 	c #FFBD08",
": 	c #FFC208",
"< 	c #FFC508",
"[ 	c #FFBE08",
"} 	c #FFB508",
"| 	c #FCAC06",
"1 	c #EC9D01",
"2 	c #D08C03",
"3 	c #AE7D18",
"4 	c #C28914",
"5 	c #E29803",
"6 	c #FFBA08",
"7 	c #FFFFB2",
"8 	c #FFCC08",
"9 	c #FFD208",
"0 	c #FFD008",
"a 	c #FFC608",
"b 	c #FEAF07",
"c 	c #EE9F02",
"d 	c #CE8A01",
"e 	c #AA770C",
"f 	c #E19402",
"g 	c #FCAC07",
"h 	c #FFBB08",
"i 	c #314AD6",
"j 	c #FFDA08",
"k 	c #FFDD08",
"l 	c #FFDB08",
"m 	c #FFD908",
"n 	c #FFD508",
"o 	c #ED9C01",
"p 	c #C68301",
"q 	c #A77821",
"r 	c #D28C05",
"s 	c #F9A704",
"t 	c #000000",
"u 	c #FFE308",
"v 	c #FFE208",
"w 	c #FFDF08",
"x 	c #FBA906",
"y 	c #E09400",
"z 	c #BC7C01",
"A 	c #BC8517",
"B 	c #E89A01",
"C 	c #FFB107",
"D 	c #FFCF08",
"E 	c #FFE708",
"F 	c #FFE608",
"G 	c #FFE008",
"H 	c #F2A001",
"I 	c #D48A00",
"J 	c #AB7611",
"K 	c #CC8A06",
"L 	c #F7A604",
"M 	c #FFB908",
"N 	c #FFC808",
"O 	c #FFD408",
"P 	c #FFE808",
"Q 	c #FFEB08",
"R 	c #FFEB0B",
"S 	c #FFE909",
"T 	c #FFE408",
"U 	c #FFDE08",
"V 	c #FFCE08",
"W 	c #FFC308",
"X 	c #FCAA05",
"Y 	c #E59600",
"Z 	c #BE7F00",
"` 	c #DB9100",
" .	c #FFCB08",
"..	c #FFED0C",
"+.	c #FFF91E",
"@.	c #FFFD32",
"#.	c #FFFA23",
"$.	c #FFEA0C",
"%.	c #FFD808",
"&.	c #FFAA08",
"*.	c #EF9801",
"=.	c #CC8700",
"-.	c #A47621",
";.	c #B87A06",
">.	c #E29500",
",.	c #FDAB06",
"'.	c #FFB309",
").	c #FFAE0A",
"!.	c #FFC609",
"~.	c #FFF71A",
"{.	c #FFFF67",
"].	c #E58032",
"^.	c #FFFF77",
"/.	c #FFF723",
"(.	c #FFE009",
"_.	c #FFB609",
":.	c #FF920B",
"<.	c #FF7B0C",
"[.	c #F68404",
"}.	c #D58B00",
"|.	c #A77819",
"1.	c #B98212",
"2.	c #E69300",
"3.	c #FF810A",
"4.	c #FF830D",
"5.	c #FF6610",
"6.	c #FFA80B",
"7.	c #FFFA22",
"8.	c #FFF92F",
"9.	c #FFDE0A",
"0.	c #FFBF09",
"a.	c #FF900C",
"b.	c #FF7D0C",
"c.	c #FF860B",
"d.	c #F98605",
"e.	c #DA8D00",
"f.	c #A8771C",
"g.	c #B17F1C",
"h.	c #E68002",
"i.	c #FD6E0B",
"j.	c #FF820B",
"k.	c #FF720E",
"l.	c #FF930C",
"m.	c #FFA50B",
"n.	c #FFF115",
"o.	c #FFFE49",
"p.	c #FFFF55",
"q.	c #FFF11B",
"r.	c #FFD108",
"s.	c #FFB209",
"t.	c #FF8D0B",
"u.	c #FF8A0C",
"v.	c #FF800C",
"w.	c #FA6D09",
"x.	c #DC8301",
"y.	c #A57315",
"z.	c #B17A12",
"A.	c #DF7903",
"B.	c #FC5A0D",
"C.	c #FF850A",
"D.	c #FF830B",
"E.	c #FF990B",
"F.	c #FF850D",
"G.	c #FFEB13",
"H.	c #FFF220",
"I.	c #FFEA14",
"J.	c #FFDB0A",
"K.	c #FFD308",
"L.	c #FFB709",
"M.	c #FF8E0C",
"N.	c #FF8F0B",
"O.	c #FF8C0B",
"P.	c #F76A09",
"Q.	c #D88301",
"R.	c #A4751D",
"S.	c #A5700A",
"T.	c #D17902",
"U.	c #F36B08",
"V.	c #FE5D0E",
"W.	c #FF7E0D",
"X.	c #FF9D0A",
"Y.	c #FF7C0E",
"Z.	c #FFCA08",
"`.	c #FFD708",
" +	c #FFBA09",
".+	c #FF7D0D",
"++	c #FF830C",
"@+	c #FE6F0D",
"#+	c #F36D07",
"$+	c #CF8700",
"%+	c #A27419",
"&+	c #C17102",
"*+	c #E28202",
"=+	c #FA6D08",
"-+	c #FF7B0A",
";+	c #FF8A0B",
">+	c #FFCD08",
",+	c #FFC908",
"'+	c #FFC008",
")+	c #FF940A",
"!+	c #FF7C0C",
"~+	c #FA7408",
"{+	c #E87A04",
"]+	c #C38100",
"^+	c #9B7324",
"/+	c #AB660B",
"(+	c #D47004",
"_+	c #EE6E05",
":+	c #FB7D08",
"<+	c #FF780C",
"[+	c #FF990A",
"}+	c #FFBF08",
"|+	c #FFB308",
"1+	c #FF8F0A",
"2+	c #FE7D09",
"3+	c #F26F05",
"4+	c #DD7304",
"5+	c #B07603",
"6+	c #916510",
"7+	c #B56F01",
"8+	c #D87D02",
"9+	c #EB8203",
"0+	c #F98906",
"a+	c #FEA608",
"b+	c #FFB408",
"c+	c #FFB808",
"d+	c #FFBC08",
"e+	c #FFB208",
"f+	c #FE9D08",
"g+	c #F58104",
"h+	c #E67105",
"i+	c #CD6B04",
"j+	c #9A6D1A",
"k+	c #936508",
"l+	c #B77900",
"m+	c #CF8900",
"n+	c #E49600",
"o+	c #F19F00",
"p+	c #F8A503",
"q+	c #93301F",
"r+	c #FBA803",
"s+	c #F09F00",
"t+	c #C88400",
"u+	c #A56E06",
"v+	c #936303",
"w+	c #B37600",
"x+	c #C98400",
"y+	c #D98F00",
"z+	c #E39600",
"A+	c #EC9B00",
"B+	c #DB4430",
"C+	c #F3A101",
"D+	c #EA9A00",
"E+	c #DC9200",
"F+	c #CA8500",
"G+	c #AA7201",
"H+	c #7C5F25",
"I+	c #8A5B01",
"J+	c #A56E00",
"K+	c #B87A00",
"L+	c #C88300",
"M+	c #D48C00",
"N+	c #DF9300",
"O+	c #E39700",
"P+	c #EA9900",
"Q+	c #DD9200",
"R+	c #D18A00",
"S+	c #C17F00",
"T+	c #A66F03",
"U+	c #8C671D",
"V+	c #7E5508",
"W+	c #976400",
"X+	c #AB7200",
"Y+	c #B97A00",
"Z+	c #C58200",
"`+	c #CA8600",
" @	c #D18900",
".@	c #D18B00",
"+@	c #D08800",
"@@	c #C98500",
"#@	c #BF7F00",
"$@	c #B17500",
"%@	c #9A6706",
"&@	c #7B560B",
"*@	c #835908",
"=@	c #936100",
"-@	c #A16900",
";@	c #A96F00",
">@	c #AF7400",
",@	c #AF7500",
"'@	c #AA6F00",
")@	c #A46B00",
"!@	c #966504",
"~@	c #8D6516",
"{@	c #7F5D15",
"]@	c #8B692C",
"^@	c #876626",
"/@	c #8B692B",
"(@	c #856019",
"                . + @ # $ % &                 ",
"            * = - ; > , ' ) ! ~ {             ",
"        ] ^ / ( _ : < < : [ } | 1 2 3         ",
"      4 5 ; 6 7 8 9 9 9 0 8 a 7 b c d e       ",
"      f g h i i i j k l m n i i i b o p q     ",
"    r s 6 7 i t i 7 u v w 7 i t i 7 x y z     ",
"  A B C : D i i i E E E F G i i i [ C H I J   ",
"  K L M N O k 7 E P Q R S T U 7 V W } X Y Z   ",
"  ` ; _  .n k u E ..+.@.#.$.w %.0 a 6 &.*.=.-.",
";.>.,.'.).!.k u E ~.{.].^./.(.%.D _.:.<.[.}.|.",
"1.2.3.4.5.6.< l F 7.].].].8.9.n 0.a.b.c.d.e.f.",
"g.h.i.j.k.l.m.l G n.o.].p.q.m r.s.t.u.v.w.x.y.",
"z.A.B.C.D.E.F.0 l (.G.H.I.J.K.V L.M.N.O.P.Q.R.",
"S.T.U.V.W.X.Y.Z.O `.%.%.n 9 V 8  +.+++@+#+$+%+",
"  &+*+=+-+;+M.N >+D r.D >+8 ,+a '+)+!+~+{+]+^+",
"  /+(+_+:+<+[+[ W < a a a a : }+|+1+2+3+4+5+  ",
"  6+7+8+9+0+a+b+c+6 6 d+d+d+h c+e+f+g+h+i+j+  ",
"    k+l+m+n+o+p+q+q+q+q+q+q+q+q+r+s+y t+u+    ",
"      v+w+x+y+z+A+B+B+B+B+B+B+C+D+E+F+G+      ",
"      H+I+J+K+L+M+N+O+P+P+P+n+Q+R+S+T+U+      ",
"          V+W+X+Y+Z+`+ @.@+@@@#@$@%@          ",
"            &@*@=@-@;@>@,@'@)@!@~@            ",
"                  {@]@^@/@(@                  "};
