/* XPM */
static char * grin20_xpm[] = {
"20 20 244 2",
"  	c None",
". 	c #D29823",
"+ 	c #DC9B1A",
"@ 	c #DC9C1E",
"# 	c #DB9B1E",
"$ 	c #D8971A",
"% 	c #CE9528",
"& 	c #DB950E",
"* 	c #EBA007",
"= 	c #F9AB05",
"- 	c #FDB207",
"; 	c #FFB508",
"> 	c #FEB408",
", 	c #FBAF06",
"' 	c #F4A603",
") 	c #E29907",
"! 	c #CD9017",
"~ 	c #CC9016",
"{ 	c #E19A0B",
"] 	c #F7AA06",
"^ 	c #FFCE41",
"/ 	c #FFC408",
"( 	c #FFC908",
"_ 	c #FFCA08",
": 	c #FFC508",
"< 	c #FFBD08",
"[ 	c #FCC840",
"} 	c #EEA003",
"| 	c #D08D07",
"1 	c #B67F0E",
"2 	c #E29908",
"3 	c #F9AD06",
"4 	c #AB8B5C",
"5 	c #949DBA",
"6 	c #A69661",
"7 	c #FFD708",
"8 	c #FFD608",
"9 	c #FFD208",
"0 	c #A69261",
"a 	c #939CBA",
"b 	c #A9845B",
"c 	c #CC8904",
"d 	c #B17B12",
"e 	c #E19604",
"f 	c #F8AB06",
"g 	c #FFBE08",
"h 	c #5E64A9",
"i 	c #15205D",
"j 	c #5564B2",
"k 	c #FFE008",
"l 	c #FFDE08",
"m 	c #FFDB08",
"n 	c #5563B2",
"o 	c #5E61A9",
"p 	c #FCB006",
"q 	c #E79A02",
"r 	c #C28208",
"s 	c #C88B10",
"t 	c #EEA004",
"u 	c #FEB807",
"v 	c #DCBE2B",
"w 	c #C9B00C",
"x 	c #DAC92D",
"y 	c #FFE608",
"z 	c #FFE508",
"A 	c #FFE108",
"B 	c #DAC22D",
"C 	c #C9A70C",
"D 	c #DCB32B",
"E 	c #FFB808",
"F 	c #F6A704",
"G 	c #DB9000",
"H 	c #B67B0C",
"I 	c #D69106",
"J 	c #F9AD05",
"K 	c #FFC008",
"L 	c #FFCF08",
"M 	c #FFE208",
"N 	c #FFE708",
"O 	c #FFE908",
"P 	c #FFEB0A",
"Q 	c #FFEA0B",
"R 	c #FFE609",
"S 	c #FFDF08",
"T 	c #FFCB08",
"U 	c #FDAF06",
"V 	c #ED9D02",
"W 	c #C78401",
"X 	c #E59802",
"Y 	c #FDB307",
"Z 	c #FFE308",
"` 	c #FFE809",
" .	c #FFF217",
"..	c #FDF22E",
"+.	c #FDF232",
"@.	c #FFF11A",
"#.	c #FFE10A",
"$.	c #FFD808",
"%.	c #FFCE08",
"&.	c #FFC208",
"*.	c #F6A504",
"=.	c #D78E00",
"-.	c #AA791B",
";.	c #BE8008",
">.	c #EA9C02",
",.	c #FEB507",
"'.	c #FFC608",
").	c #FFD108",
"!.	c #FFDA08",
"~.	c #FFEA0C",
"{.	c #FDEE2E",
"].	c #EFB247",
"^.	c #EFB24D",
"/.	c #FDEE39",
"(.	c #FFE40E",
"_.	c #FFCD08",
":.	c #FFC308",
"<.	c #F9A904",
"[.	c #DF9300",
"}.	c #AD7B17",
"|.	c #BC8313",
"1.	c #EC9B02",
"2.	c #FEB307",
"3.	c #FFE70C",
"4.	c #FBE326",
"5.	c #EB9F38",
"6.	c #EB9F3B",
"7.	c #FBE32E",
"8.	c #FFE00E",
"9.	c #FFD308",
"0.	c #FFCC08",
"a.	c #FBAA04",
"b.	c #E29400",
"c.	c #AD7916",
"d.	c #B77F13",
"e.	c #E69801",
"f.	c #FD8408",
"g.	c #FEBB08",
"h.	c #FFD908",
"i.	c #FFDF09",
"j.	c #FFEB17",
"k.	c #FADD29",
"l.	c #FADD2D",
"m.	c #FFE91B",
"n.	c #FFD80A",
"o.	c #FD7E08",
"p.	c #FFB708",
"q.	c #E09300",
"r.	c #AB7716",
"s.	c #AE760B",
"t.	c #DA9000",
"u.	c #F7A704",
"v.	c #FB4708",
"w.	c #FA3C09",
"x.	c #FFDB09",
"y.	c #FFDF0D",
"z.	c #FFDD0D",
"A.	c #FFD70A",
"B.	c #FFD008",
"C.	c #FFC108",
"D.	c #FA3A09",
"E.	c #FB4608",
"F.	c #FEAE07",
"G.	c #F5A403",
"H.	c #D99000",
"I.	c #A97717",
"J.	c #C88400",
"K.	c #EB9D01",
"L.	c #FAA803",
"M.	c #F94307",
"N.	c #FDA976",
"O.	c #FA3D15",
"P.	c #FA3009",
"Q.	c #FA2F09",
"R.	c #FAA704",
"S.	c #EE9D01",
"T.	c #CE8800",
"U.	c #A2751E",
"V.	c #AE7407",
"W.	c #D68E00",
"X.	c #E89A00",
"Y.	c #F33E06",
"Z.	c #FECA8D",
"`.	c #2B2B21",
" +	c #D4CC8F",
".+	c #55533C",
"++	c #958F66",
"@+	c #F53F06",
"#+	c #ED9D00",
"$+	c #DE9300",
"%+	c #B97C04",
"&+	c #99690C",
"*+	c #B97A01",
"=+	c #D08A00",
"-+	c #EC3906",
";+	c #212C22",
">+	c #D3D595",
",+	c #4E563F",
"'+	c #90956A",
")+	c #F03C06",
"!+	c #DD9200",
"~+	c #C88501",
"{+	c #A57212",
"]+	c #9F6B05",
"^+	c #B87A00",
"/+	c #DC5104",
"(+	c #F8925F",
"_+	c #21241D",
":+	c #FA935F",
"<+	c #E75804",
"[+	c #CC8700",
"}+	c #B17603",
"|+	c #946509",
"1+	c #AF7400",
"2+	c #D24D04",
"3+	c #85170E",
"4+	c #E57552",
"5+	c #A03325",
"6+	c #C2543C",
"7+	c #87170E",
"8+	c #E15704",
"9+	c #C78400",
"0+	c #AB7408",
"a+	c #8D5E04",
"b+	c #9F6A01",
"c+	c #C74E03",
"d+	c #D35004",
"e+	c #DA5504",
"f+	c #DC5704",
"g+	c #D35603",
"h+	c #A97004",
"i+	c #825908",
"j+	c #8D5F06",
"k+	c #9F6900",
"l+	c #AD7100",
"m+	c #B47700",
"n+	c #B67900",
"o+	c #B37600",
"p+	c #AB7000",
"q+	c #A06C04",
"r+	c #976910",
"s+	c #876218",
"t+	c #8E6924",
"u+	c #8C651B",
"              . + @ # $ %               ",
"          & * = - ; > , ' ) !           ",
"      ~ { ] ^ / ( _ ( : < [ } | 1       ",
"      2 3 4 5 6 7 7 8 9 0 a b } c d     ",
"    e f g h i j k k l m n i o p q r     ",
"  s t u ( v w x y y z A B C D E F G H   ",
"  I J K L m M N O P Q R S 8 T g U V W   ",
"  X Y : 9 m Z `  ...+.@.#.$.%.&.; *.=.-.",
";.>.,.'.).!.M ~.{.].^./.(.7 _.:.E <.[.}.",
"|.1.2.:.L 7 l 3.4.5.6.7.8.9.0.:.E a.b.c.",
"d.e.U g f.g.h.i.j.k.l.m.n.L > o.p.<.q.r.",
"s.t.u.2.v.w.'.7 x.y.z.A.B.C.D.E.F.G.H.I.",
"  J.K.L.M.N.O.P.P.P.P.Q.Q.O.N.M.R.S.T.U.",
"  V.W.X.Y.Z.`. +.+++++.+ +`.Z.@+#+$+%+  ",
"  &+*+=+-+Z.;+>+,+'+'+,+>+;+Z.)+!+~+{+  ",
"    ]+^+/+(+_+>+,+'+'+,+>+_+:+<+[+}+    ",
"      |+1+2+3+4+5+6+6+5+4+7+8+9+0+      ",
"        a+b+c+d+e+f+f+e+d+g+*+h+        ",
"          i+j+k+l+m+n+o+p+q+r+          ",
"                s+t+t+u+                "};
