/* XPM */
static char * grin_xpm[] = {
"23 23 225 2",
"  	c None",
". 	c #CB962A",
"+ 	c #D7971A",
"@ 	c #D69A25",
"# 	c #D7971D",
"$ 	c #D59925",
"% 	c #D29219",
"& 	c #C79432",
"* 	c #D08F12",
"= 	c #E59906",
"- 	c #F5A304",
"; 	c #FCAB06",
"> 	c #FEAF08",
", 	c #FFAF08",
"' 	c #FDAE07",
") 	c #F9A805",
"! 	c #EF9F01",
"~ 	c #DA9205",
"{ 	c #C28C20",
"] 	c #C48E23",
"^ 	c #E09505",
"/ 	c #F8A605",
"( 	c #FFB407",
"_ 	c #FFBD08",
": 	c #FFC208",
"< 	c #FFC508",
"[ 	c #FFBE08",
"} 	c #FFB508",
"| 	c #FCAC06",
"1 	c #EC9D01",
"2 	c #D08C03",
"3 	c #AE7D18",
"4 	c #C28914",
"5 	c #E29803",
"6 	c #FFBA08",
"7 	c #FFFFB2",
"8 	c #FFCC08",
"9 	c #FFD208",
"0 	c #FFD008",
"a 	c #FFC608",
"b 	c #FEAF07",
"c 	c #EE9F02",
"d 	c #CE8A01",
"e 	c #AA770C",
"f 	c #E19402",
"g 	c #FCAC07",
"h 	c #FFBB08",
"i 	c #314AD6",
"j 	c #FFDA08",
"k 	c #FFDD08",
"l 	c #FFDB08",
"m 	c #FFD908",
"n 	c #FFD508",
"o 	c #ED9C01",
"p 	c #C68301",
"q 	c #A77821",
"r 	c #D28C05",
"s 	c #F9A704",
"t 	c #FFC808",
"u 	c #000000",
"v 	c #FFE208",
"w 	c #FFE308",
"x 	c #FFDF08",
"y 	c #FFDC08",
"z 	c #FFB908",
"A 	c #FBA906",
"B 	c #E09400",
"C 	c #BC7C01",
"D 	c #BC8517",
"E 	c #E89A01",
"F 	c #FFB107",
"G 	c #FFCF08",
"H 	c #FFD808",
"I 	c #FFE408",
"J 	c #FFE708",
"K 	c #FFE608",
"L 	c #FFE008",
"M 	c #FFD308",
"N 	c #F2A001",
"O 	c #D48A00",
"P 	c #AB7611",
"Q 	c #CC8A06",
"R 	c #F7A604",
"S 	c #FFD408",
"T 	c #FFE808",
"U 	c #FFEB08",
"V 	c #FFEB0B",
"W 	c #FFE909",
"X 	c #FFDE08",
"Y 	c #FFD708",
"Z 	c #FFCE08",
"` 	c #FFC308",
" .	c #FCAA05",
"..	c #E59600",
"+.	c #BE7F00",
"@.	c #DB9100",
"#.	c #FFCB08",
"$.	c #FFED0C",
"%.	c #FFF91E",
"&.	c #FFFD32",
"*.	c #FFFA23",
"=.	c #FFEA0C",
"-.	c #FFAE08",
";.	c #EF9E01",
">.	c #CC8700",
",.	c #A47621",
"'.	c #B87A06",
").	c #E29500",
"!.	c #FDAE06",
"~.	c #FFC008",
"{.	c #FFF71A",
"].	c #FFFF67",
"^.	c #E58032",
"/.	c #FFFF77",
"(.	c #FFF723",
"_.	c #FFE009",
":.	c #FFC708",
"<.	c #FFBC08",
"[.	c #FFB208",
"}.	c #F5A201",
"|.	c #D58D00",
"1.	c #A77819",
"2.	c #B98212",
"3.	c #E69500",
"4.	c #FFAE06",
"5.	c #FFCA08",
"6.	c #FFFA22",
"7.	c #FFF92F",
"8.	c #FFDE0A",
"9.	c #FFB308",
"0.	c #F8A401",
"a.	c #DA8F00",
"b.	c #A8771C",
"c.	c #B17F1C",
"d.	c #E49500",
"e.	c #FDAB06",
"f.	c #FFD608",
"g.	c #FFF115",
"h.	c #FFFE49",
"i.	c #FFFF55",
"j.	c #FFF11B",
"k.	c #FFD108",
"l.	c #FFCD08",
"m.	c #A57315",
"n.	c #B17A12",
"o.	c #DB9000",
"p.	c #FAA704",
"q.	c #FFC108",
"r.	c #93301F",
"s.	c #FFEB13",
"t.	c #FFF220",
"u.	c #FFEA14",
"v.	c #FFDB0A",
"w.	c #FFB008",
"x.	c #F4A201",
"y.	c #D68D00",
"z.	c #A4751D",
"A.	c #A5700A",
"B.	c #CD8700",
"C.	c #F42509",
"D.	c #FEAB07",
"E.	c #EE9D00",
"F.	c #CF8900",
"G.	c #A27419",
"H.	c #BC7C00",
"I.	c #DF9500",
"J.	c #F9A602",
"K.	c #FFC908",
"L.	c #F9A603",
"M.	c #E49600",
"N.	c #C38100",
"O.	c #9B7324",
"P.	c #A56E0A",
"Q.	c #E99B00",
"R.	c #D68E00",
"S.	c #B07603",
"T.	c #916510",
"U.	c #B27500",
"V.	c #D48C00",
"W.	c #DF9400",
"X.	c #C38200",
"Y.	c #9A6D1A",
"Z.	c #936508",
"`.	c #B77900",
" +	c #C88400",
".+	c #A56E06",
"++	c #936303",
"@+	c #B37600",
"#+	c #C98400",
"$+	c #DC9200",
"%+	c #CA8500",
"&+	c #AA7201",
"*+	c #7C5F25",
"=+	c #8A5B01",
"-+	c #A56E00",
";+	c #B87A00",
">+	c #D18A00",
",+	c #C17F00",
"'+	c #A66F03",
")+	c #8C671D",
"!+	c #7E5508",
"~+	c #976400",
"{+	c #AB7200",
"]+	c #B97A00",
"^+	c #C58200",
"/+	c #CA8600",
"(+	c #BF7F00",
"_+	c #B17500",
":+	c #9A6706",
"<+	c #7B560B",
"[+	c #835908",
"}+	c #936100",
"|+	c #A16900",
"1+	c #A96F00",
"2+	c #AF7400",
"3+	c #AF7500",
"4+	c #AA6F00",
"5+	c #A46B00",
"6+	c #966504",
"7+	c #8D6516",
"8+	c #7F5D15",
"9+	c #8B692C",
"0+	c #876626",
"a+	c #8B692B",
"b+	c #856019",
"                . + @ # $ % &                 ",
"            * = - ; > , ' ) ! ~ {             ",
"        ] ^ / ( _ : < < : [ } | 1 2 3         ",
"      4 5 ; 6 7 8 9 9 9 0 8 a 7 b c d e       ",
"      f g h i i i j k l m n i i i b o p q     ",
"    r s 6 t i u i v w v x y i u i z A B C     ",
"  D E F : G H x I J J J K L l M 8 [ F N O P   ",
"  Q R z t S k v J T U V W I X Y Z ` }  ...+.  ",
"  @.; _ #.n k w J $.%.&.*.=.x H 0 a 6 -.;.>.,.",
"'.).!.~.8 n k w J {.].^./.(._.H G :.<.[.}.|.1.",
"2.3.4.[ 5.S j x K 6.^.^.^.7.8.n Z a _ 9.0.a.b.",
"c.d.e.h :.G f.k L g.h.^.i.j.m k.l.a _ 9.0.a.m.",
"n.o.p.} q.r.9 Y l _.s.t.u.v.M Z #.r.h w.x.y.z.",
"A.B.;.b r.C.r.0 S Y H H n 9 Z 8 r.C.r.D.E.F.G.",
"  H.I.J.r.C.7 r.l.G k.G l.8 K.r.7 C.r.L.M.N.O.",
"  P.>.Q.r.C.C.7 r.< a a a a r.7 C.C.r.E.R.S.  ",
"  T.U.V.r.C.C.C.7 r.r.r.r.r.7 C.C.C.r.W.X.Y.  ",
"    Z.`.F.r.7 C.C.7 7 7 7 7 C.C.7 r.B  +.+    ",
"      ++@+#+r.7 C.C.C.C.C.C.C.7 r.$+%+&+      ",
"      *+=+-+;+r.7 7 7 7 7 7 7 r.>+,+'+)+      ",
"          !+~+{+]+^+/+/+/+^+]+(+_+:+          ",
"            <+[+}+|+1+2+3+4+5+6+7+            ",
"                  8+9+0+a+b+                  "};
