/* XPM */
static char * kiss20_xpm[] = {
"20 20 236 2",
"  	c None",
". 	c #D29823",
"+ 	c #DC9B1A",
"@ 	c #DC9C1E",
"# 	c #DB9B1E",
"$ 	c #D8971A",
"% 	c #CE9528",
"& 	c #DB950E",
"* 	c #EBA007",
"= 	c #F9AB05",
"- 	c #FDB207",
"; 	c #FFB508",
"> 	c #FEB408",
", 	c #FBAF06",
"' 	c #F4A603",
") 	c #E29907",
"! 	c #CD9017",
"~ 	c #CC9016",
"{ 	c #E19A0B",
"] 	c #BCB713",
"^ 	c #F5CF43",
"/ 	c #C0CB16",
"( 	c #FFC908",
"_ 	c #FFCA08",
": 	c #FFC508",
"< 	c #C0C616",
"[ 	c #F2CA43",
"} 	c #B3B011",
"| 	c #D08D07",
"1 	c #B67F0E",
"2 	c #E29908",
"3 	c #B6BB15",
"4 	c #4B9E71",
"5 	c #879FBD",
"6 	c #479F76",
"7 	c #B8DA18",
"8 	c #FFD708",
"9 	c #FFD608",
"0 	c #B8D718",
"a 	c #4A9D71",
"b 	c #ACB213",
"c 	c #CC8904",
"d 	c #B17B12",
"e 	c #E19604",
"f 	c #F8AB06",
"g 	c #D2DF5A",
"h 	c #4F6FC5",
"i 	c #15205D",
"j 	c #4968C8",
"k 	c #D0EF60",
"l 	c #FFE008",
"m 	c #FFDE08",
"n 	c #D0EE60",
"o 	c #D0D959",
"p 	c #E79A02",
"q 	c #C28208",
"r 	c #C88B10",
"s 	c #EEA004",
"t 	c #FEB807",
"u 	c #9BDA37",
"v 	c #3D6CB9",
"w 	c #283CAE",
"x 	c #3A66BF",
"y 	c #95E83A",
"z 	c #FFE608",
"A 	c #FFE508",
"B 	c #95E73A",
"C 	c #5E66B1",
"D 	c #FFC220",
"E 	c #F6A704",
"F 	c #DB9000",
"G 	c #B67B0C",
"H 	c #D69106",
"I 	c #F9AD05",
"J 	c #FFC008",
"K 	c #F4D10A",
"L 	c #69D535",
"M 	c #D7EB9F",
"N 	c #61D837",
"O 	c #F3E90B",
"P 	c #FFEB0A",
"Q 	c #FFEA0B",
"R 	c #F3E60B",
"S 	c #61D737",
"T 	c #D7EA9F",
"U 	c #6CD034",
"V 	c #FFBE08",
"W 	c #FDAF06",
"X 	c #ED9D02",
"Y 	c #C78401",
"Z 	c #E59802",
"` 	c #FDB307",
" .	c #FFD208",
"..	c #FFDB08",
"+.	c #FFE308",
"@.	c #FFE809",
"#.	c #FFF217",
"$.	c #FDF22E",
"%.	c #FDF232",
"&.	c #FFF11A",
"*.	c #FFE10A",
"=.	c #FFD808",
"-.	c #FFCE08",
";.	c #FFC208",
">.	c #F6A504",
",.	c #D78E00",
"'.	c #AA791B",
").	c #BE8008",
"!.	c #EA9C02",
"~.	c #FEB507",
"{.	c #FFC608",
"].	c #FFD108",
"^.	c #FFDA08",
"/.	c #FFE208",
"(.	c #FFEA0C",
"_.	c #FDEE2E",
":.	c #EFB247",
"<.	c #EFB24D",
"[.	c #FDEE39",
"}.	c #FFE40E",
"|.	c #FFCD08",
"1.	c #FFC308",
"2.	c #FFB808",
"3.	c #F9A904",
"4.	c #DF9300",
"5.	c #AD7B17",
"6.	c #BC8313",
"7.	c #EC9B02",
"8.	c #FEB307",
"9.	c #FFCF08",
"0.	c #FFE70C",
"a.	c #FBE326",
"b.	c #EB9F38",
"c.	c #EB9F3B",
"d.	c #FBE32E",
"e.	c #FFE00E",
"f.	c #FFD308",
"g.	c #FFCC08",
"h.	c #FBAA04",
"i.	c #E29400",
"j.	c #AD7916",
"k.	c #B77F13",
"l.	c #E69801",
"m.	c #FFD908",
"n.	c #FFDF09",
"o.	c #FFEB17",
"p.	c #FADD29",
"q.	c #FADD2D",
"r.	c #FFE91B",
"s.	c #FFD80A",
"t.	c #FFB708",
"u.	c #E09300",
"v.	c #AB7716",
"w.	c #AE760B",
"x.	c #DA9000",
"y.	c #F7A704",
"z.	c #FFDB09",
"A.	c #FFDF0D",
"B.	c #FFDD0D",
"C.	c #FFD70A",
"D.	c #FFD008",
"E.	c #FFB308",
"F.	c #F5A403",
"G.	c #D99000",
"H.	c #A97717",
"I.	c #C88400",
"J.	c #EB9D01",
"K.	c #FDAE06",
"L.	c #FFBA08",
"M.	c #FFC408",
"N.	c #FFB107",
"O.	c #FF2501",
"P.	c #FFAD07",
"Q.	c #FFC708",
"R.	c #FFC108",
"S.	c #FFB908",
"T.	c #FDAD06",
"U.	c #EE9D01",
"V.	c #CE8800",
"W.	c #A2751E",
"X.	c #AE7407",
"Y.	c #D68E00",
"Z.	c #F1A102",
"`.	c #FCAD06",
" +	c #FCB00B",
".+	c #F90B08",
"++	c #FFB608",
"@+	c #FDB10B",
"#+	c #FEAF07",
"$+	c #F5A303",
"%+	c #DE9300",
"&+	c #B97C04",
"*+	c #99690C",
"=+	c #B97A01",
"-+	c #D98F00",
";+	c #EE9E02",
">+	c #F7A504",
",+	c #F59012",
"'+	c #DB4430",
")+	c #F59312",
"!+	c #E59700",
"~+	c #C88501",
"{+	c #A57212",
"]+	c #9F6B05",
"^+	c #B87A00",
"/+	c #D38B00",
"(+	c #E6830D",
"_+	c #EE8A0F",
":+	c #E39600",
"<+	c #CC8700",
"[+	c #B17603",
"}+	c #946509",
"|+	c #AF7400",
"1+	c #D68502",
"2+	c #E79103",
"3+	c #C78400",
"4+	c #AB7408",
"5+	c #8D5E04",
"6+	c #9F6A01",
"7+	c #B57800",
"8+	c #C47500",
"9+	c #FF0000",
"0+	c #CD7C00",
"a+	c #C98600",
"b+	c #A97004",
"c+	c #825908",
"d+	c #8D5F06",
"e+	c #9F6900",
"f+	c #B16700",
"g+	c #B96C00",
"h+	c #AF7200",
"i+	c #A06C04",
"j+	c #976910",
"k+	c #876218",
"l+	c #8E6924",
"m+	c #8C651B",
"              . + @ # $ %               ",
"          & * = - ; > , ' ) !           ",
"      ~ { ] ^ / ( _ ( : < [ } | 1       ",
"      2 3 4 5 6 7 8 9 0 6 5 a b c d     ",
"    e f g h i j k l m n j i h o p q     ",
"  r s t u v w x y z A B x w C D E F G   ",
"  H I J K L M N O P Q R S T U V W X Y   ",
"  Z ` :  ...+.@.#.$.%.&.*.=.-.;.; >.,.'.",
").!.~.{.].^./.(._.:.<.[.}.8 |.1.2.3.4.5.",
"6.7.8.1.9.8 m 0.a.b.c.d.e.f.g.1.2.h.i.j.",
"k.l.W V _  .m.n.o.p.q.r.s.9._ ;.t.3.u.v.",
"w.x.y.t.1.g. .8 z.A.B.C.D.g.{.V E.F.G.H.",
"  I.J.K.L.M._ N.O.A.A.O.P.Q.R.S.T.U.V.W.",
"  X.Y.Z.`. +; .+.+.+.+.+.+++@+#+$+%+&+  ",
"  *+=+-+;+>+,+.+'+'+'+'+.+)+>+>+!+~+{+  ",
"    ]+^+/+(+>+.+'+'+'+'+.+>+_+:+<+[+    ",
"      }+|+>+1+.+.+'+'+.+.+2+3+3+4+      ",
"        5+6+7+8+.+9+9+.+0+a+=+b+        ",
"          c+d+e+f+g+g+g+h+i+j+          ",
"                k+l+l+m+                "};
