/* XPM */
static char * kiss_xpm[] = {
"23 23 242 2",
"  	c None",
". 	c #CB962A",
"+ 	c #D7971A",
"@ 	c #D69A25",
"# 	c #D7971D",
"$ 	c #D59925",
"% 	c #D29219",
"& 	c #C79432",
"* 	c #D08F12",
"= 	c #E59906",
"- 	c #F5A304",
"; 	c #FCAB06",
"> 	c #FEAF08",
", 	c #FFAF08",
"' 	c #FDAE07",
") 	c #F9A805",
"! 	c #EF9F01",
"~ 	c #DA9205",
"{ 	c #C28C20",
"] 	c #C48E23",
"^ 	c #E09505",
"/ 	c #F8A605",
"( 	c #FFB407",
"_ 	c #FFBD08",
": 	c #FFC208",
"< 	c #FFC508",
"[ 	c #FFBE08",
"} 	c #FFB508",
"| 	c #FCAC06",
"1 	c #EC9D01",
"2 	c #D08C03",
"3 	c #AE7D18",
"4 	c #C28914",
"5 	c #E29803",
"6 	c #3CE234",
"7 	c #FFFFB2",
"8 	c #FFD208",
"9 	c #FFD008",
"0 	c #FFCC08",
"a 	c #EE9F02",
"b 	c #CE8A01",
"c 	c #AA770C",
"d 	c #E19402",
"e 	c #FCAC07",
"f 	c #314AD6",
"g 	c #FFDD08",
"h 	c #FFDB08",
"i 	c #FFD908",
"j 	c #ED9C01",
"k 	c #C68301",
"l 	c #A77821",
"m 	c #D28C05",
"n 	c #F9A704",
"o 	c #FFBA08",
"p 	c #000000",
"q 	c #FFE308",
"r 	c #FFE208",
"s 	c #FFDF08",
"t 	c #FBA906",
"u 	c #E09400",
"v 	c #BC7C01",
"w 	c #BC8517",
"x 	c #E89A01",
"y 	c #FFB107",
"z 	c #FFE708",
"A 	c #FFE608",
"B 	c #F2A001",
"C 	c #D48A00",
"D 	c #AB7611",
"E 	c #CC8A06",
"F 	c #F7A604",
"G 	c #FFB908",
"H 	c #FFC808",
"I 	c #FFD408",
"J 	c #FFE808",
"K 	c #FFEB08",
"L 	c #FFEB0B",
"M 	c #FFE909",
"N 	c #FFE408",
"O 	c #FFC308",
"P 	c #FCAA05",
"Q 	c #E59600",
"R 	c #BE7F00",
"S 	c #DB9100",
"T 	c #FFCB08",
"U 	c #FFD508",
"V 	c #FFED0C",
"W 	c #FFF91E",
"X 	c #FFFD32",
"Y 	c #FFFA23",
"Z 	c #FFEA0C",
"` 	c #FFD808",
" .	c #FFC608",
"..	c #FFAE08",
"+.	c #EF9E01",
"@.	c #CC8700",
"#.	c #A47621",
"$.	c #B87A06",
"%.	c #E29500",
"&.	c #FDAE06",
"*.	c #FFC008",
"=.	c #FFF71A",
"-.	c #FFFF67",
";.	c #E58032",
">.	c #FFFF77",
",.	c #FFF723",
"'.	c #FFE009",
").	c #FFCF08",
"!.	c #FFC708",
"~.	c #FFBC08",
"{.	c #FFB208",
"].	c #F5A201",
"^.	c #D58D00",
"/.	c #A77819",
"(.	c #B98212",
"_.	c #E69500",
":.	c #FFAE06",
"<.	c #FFCA08",
"[.	c #FFDA08",
"}.	c #FFFA22",
"|.	c #FFF92F",
"1.	c #FFDE0A",
"2.	c #FFCE08",
"3.	c #FFB308",
"4.	c #F8A401",
"5.	c #DA8F00",
"6.	c #A8771C",
"7.	c #B17F1C",
"8.	c #E49500",
"9.	c #FDAB06",
"0.	c #FFBB08",
"a.	c #FFD608",
"b.	c #FFE008",
"c.	c #FFF115",
"d.	c #FFFE49",
"e.	c #FFFF55",
"f.	c #FFF11B",
"g.	c #FFD108",
"h.	c #FFCD08",
"i.	c #A57315",
"j.	c #B17A12",
"k.	c #DB9000",
"l.	c #FAA704",
"m.	c #FFC108",
"n.	c #FFD708",
"o.	c #FFEB13",
"p.	c #FFF220",
"q.	c #FFEA14",
"r.	c #FFDB0A",
"s.	c #FFD308",
"t.	c #FFC408",
"u.	c #FFB008",
"v.	c #F4A201",
"w.	c #D68D00",
"x.	c #A4751D",
"y.	c #A5700A",
"z.	c #CD8700",
"A.	c #FEAF07",
"B.	c #FFBF08",
"C.	c #FFB708",
"D.	c #FEAB07",
"E.	c #EE9D00",
"F.	c #CF8900",
"G.	c #A27419",
"H.	c #BC7C00",
"I.	c #DF9500",
"J.	c #F9A602",
"K.	c #FFC908",
"L.	c #FF0000",
"M.	c #F9A603",
"N.	c #E49600",
"O.	c #C38100",
"P.	c #9B7324",
"Q.	c #A56E0A",
"R.	c #E99B00",
"S.	c #FFB108",
"T.	c #FEAA06",
"U.	c #D68E00",
"V.	c #B07603",
"W.	c #916510",
"X.	c #B27500",
"Y.	c #D48C00",
"Z.	c #E89A00",
"`.	c #F8A503",
" +	c #DB4430",
".+	c #FFB408",
"++	c #FFB808",
"@+	c #F3A000",
"#+	c #DF9400",
"$+	c #C38200",
"%+	c #9A6D1A",
"&+	c #936508",
"*+	c #B77900",
"=+	c #F19F00",
"-+	c #FBA803",
";+	c #F09F00",
">+	c #C88400",
",+	c #A56E06",
"'+	c #936303",
")+	c #B37600",
"!+	c #C98400",
"~+	c #E39600",
"{+	c #F3A101",
"]+	c #DC9200",
"^+	c #CA8500",
"/+	c #AA7201",
"(+	c #7C5F25",
"_+	c #8A5B01",
":+	c #A56E00",
"<+	c #B87A00",
"[+	c #C88300",
"}+	c #DD9200",
"|+	c #D18A00",
"1+	c #C17F00",
"2+	c #A66F03",
"3+	c #8C671D",
"4+	c #7E5508",
"5+	c #976400",
"6+	c #AB7200",
"7+	c #B97A00",
"8+	c #C58200",
"9+	c #D08800",
"0+	c #C98500",
"a+	c #BF7F00",
"b+	c #B17500",
"c+	c #9A6706",
"d+	c #7B560B",
"e+	c #835908",
"f+	c #936100",
"g+	c #A16900",
"h+	c #A96F00",
"i+	c #AF7400",
"j+	c #AF7500",
"k+	c #AA6F00",
"l+	c #A46B00",
"m+	c #966504",
"n+	c #8D6516",
"o+	c #7F5D15",
"p+	c #8B692C",
"q+	c #876626",
"r+	c #8B692B",
"s+	c #856019",
"                . + @ # $ % &                 ",
"            * = - ; > , ' ) ! ~ {             ",
"        ] ^ / ( _ : < < : [ } | 1 2 3         ",
"      4 5 ; 6 7 6 8 8 8 9 0 6 7 6 a b c       ",
"      d e 6 f f f 6 g h i 6 f f f 6 j k l     ",
"    m n o 7 f p f 7 q r s 7 f p f 7 t u v     ",
"  w x y : 6 f f f 6 z z A 6 f f f [ y B C D   ",
"  E F G H I 6 7 6 J K L M N 6 7 6 O } P Q R   ",
"  S ; _ T U g q z V W X Y Z s ` 9  .o ..+.@.#.",
"$.%.&.*.0 U g q z =.-.;.>.,.'.` ).!.~.{.].^./.",
"(._.:.[ <.I [.s A }.;.;.;.|.1.U 2. ._ 3.4.5.6.",
"7.8.9.0.!.).a.g b.c.d.;.e.f.i g.h. ._ 3.4.5.i.",
"j.k.l.} m.T 8 n.h '.o.p.q.r.s.2.T t.0.u.v.w.x.",
"y.z.+.A.o < T 9 I n.` ` U 8 2.0  .B.C.D.E.F.G.",
"  H.I.J.{.~.t.K.h.L.L.).L.L.K. .m.0.{.M.N.O.P.",
"  Q.@.R.l.S.G [ L.L.L.L.L.L.L.B.o 3.T.E.U.V.  ",
"  W.X.Y.Z.`. +.+L. + + + + +L.++ +D.@+#+$+%+  ",
"    &+*+F.N.=+ + + + + + + + + +-+;+u >+,+    ",
"      '+)+!+ +~+L.L. + + +L.L.{+ +]+^+/+      ",
"      (+_+:+<+[+[+L.L.L.L.L.[+}+|+1+2+3+      ",
"          4+5+6+7+8+L.L.L.9+0+a+b+c+          ",
"            d+e+f+g+h+i+j+k+l+m+n+            ",
"                  o+p+q+r+s+                  "};
