/* XPM */
static char * quiet_xpm[] = {
"23 23 258 2",
"  	c None",
". 	c #CB962A",
"+ 	c #D7971A",
"@ 	c #D69A25",
"# 	c #D7971D",
"$ 	c #D59925",
"% 	c #D29219",
"& 	c #C79432",
"* 	c #D08F12",
"= 	c #E59906",
"- 	c #F5A304",
"; 	c #FCAB06",
"> 	c #FEAF08",
", 	c #FFAF08",
"' 	c #FDAE07",
") 	c #F9A805",
"! 	c #EF9F01",
"~ 	c #DA9205",
"{ 	c #C28C20",
"] 	c #C48E23",
"^ 	c #E09505",
"/ 	c #F8A605",
"( 	c #FFB407",
"_ 	c #FFBD08",
": 	c #FFC208",
"< 	c #FFC508",
"[ 	c #FFBE08",
"} 	c #FFB508",
"| 	c #FCAC06",
"1 	c #EC9D01",
"2 	c #D08C03",
"3 	c #AE7D18",
"4 	c #C28914",
"5 	c #E29803",
"6 	c #FFBA08",
"7 	c #FFFFB2",
"8 	c #FFCC08",
"9 	c #FFD208",
"0 	c #FFD008",
"a 	c #FFC608",
"b 	c #FEAF07",
"c 	c #EE9F02",
"d 	c #CE8A01",
"e 	c #AA770C",
"f 	c #E19402",
"g 	c #FCAC07",
"h 	c #FFBB08",
"i 	c #314AD6",
"j 	c #FFDA08",
"k 	c #FFDD08",
"l 	c #FFDB08",
"m 	c #FFD908",
"n 	c #FFD508",
"o 	c #ED9C01",
"p 	c #C68301",
"q 	c #A77821",
"r 	c #D28C05",
"s 	c #F9A704",
"t 	c #000000",
"u 	c #FFE308",
"v 	c #FFE208",
"w 	c #FFDF08",
"x 	c #FBA906",
"y 	c #E09400",
"z 	c #BC7C01",
"A 	c #BC8517",
"B 	c #E89A01",
"C 	c #FFB107",
"D 	c #FFCF08",
"E 	c #FFE708",
"F 	c #FFE608",
"G 	c #FFE008",
"H 	c #F2A001",
"I 	c #D48A00",
"J 	c #AB7611",
"K 	c #CC8A06",
"L 	c #F7A604",
"M 	c #FFB908",
"N 	c #FFC808",
"O 	c #FFD408",
"P 	c #FFE808",
"Q 	c #FFEB08",
"R 	c #FFEB0B",
"S 	c #FFE909",
"T 	c #FFE408",
"U 	c #FFDE08",
"V 	c #FFCE08",
"W 	c #FFC308",
"X 	c #FCAA05",
"Y 	c #E59600",
"Z 	c #BE7F00",
"` 	c #DB9100",
" .	c #FFCB08",
"..	c #FFED0C",
"+.	c #FFF91E",
"@.	c #FFFD32",
"#.	c #FFFA23",
"$.	c #FFEA0C",
"%.	c #FFD808",
"&.	c #FFAE08",
"*.	c #EF9E01",
"=.	c #CC8700",
"-.	c #A47621",
";.	c #B87A06",
">.	c #E29500",
",.	c #FDAE06",
"'.	c #FFC008",
").	c #FFF71A",
"!.	c #FFFF67",
"~.	c #E58032",
"{.	c #FFFF77",
"].	c #FFF723",
"^.	c #FFE009",
"/.	c #FFC708",
"(.	c #FFBC08",
"_.	c #FFB208",
":.	c #F5A201",
"<.	c #D58D00",
"[.	c #A77819",
"}.	c #B98212",
"|.	c #E69500",
"1.	c #FFAE06",
"2.	c #FFCA08",
"3.	c #FFFA22",
"4.	c #FFF92F",
"5.	c #FFDE0A",
"6.	c #FFB308",
"7.	c #F8A401",
"8.	c #DA8F00",
"9.	c #A8771C",
"0.	c #B17F1C",
"a.	c #E49500",
"b.	c #FDAB06",
"c.	c #FFD608",
"d.	c #FFF115",
"e.	c #FFFE49",
"f.	c #FFFF55",
"g.	c #FFF11B",
"h.	c #FFD108",
"i.	c #FFCD08",
"j.	c #A57315",
"k.	c #B17A12",
"l.	c #DB9000",
"m.	c #FAA704",
"n.	c #FFC108",
"o.	c #FFD708",
"p.	c #FFEB13",
"q.	c #FFF220",
"r.	c #FFEA14",
"s.	c #FFDB0A",
"t.	c #FFD308",
"u.	c #FFC408",
"v.	c #FFB008",
"w.	c #F4A201",
"x.	c #D68D00",
"y.	c #A4751D",
"z.	c #A5700A",
"A.	c #CD8700",
"B.	c #C43F2B",
"C.	c #FFBF08",
"D.	c #FFB708",
"E.	c #FEAB07",
"F.	c #EE9D00",
"G.	c #CF8900",
"H.	c #A27419",
"I.	c #BC7C00",
"J.	c #DF9500",
"K.	c #F9A602",
"L.	c #FFC908",
"M.	c #DB4430",
"N.	c #F9A603",
"O.	c #E49600",
"P.	c #C38100",
"Q.	c #9B7324",
"R.	c #A56E0A",
"S.	c #E99B00",
"T.	c #FFB108",
"U.	c #93301F",
"V.	c #FEAA06",
"W.	c #D68E00",
"X.	c #B07603",
"Y.	c #916510",
"Z.	c #B27500",
"`.	c #D48C00",
" +	c #E89A00",
".+	c #F8A503",
"++	c #FEAE08",
"@+	c #FFB408",
"#+	c #FFB808",
"$+	c #F3A000",
"%+	c #DF9400",
"&+	c #C38200",
"*+	c #9A6D1A",
"=+	c #936508",
"-+	c #B77900",
";+	c #F19F00",
">+	c #FDAA06",
",+	c #FFAE07",
"'+	c #FBA803",
")+	c #F09F00",
"!+	c #C88400",
"~+	c #A56E06",
"{+	c #936303",
"]+	c #B37600",
"^+	c #C98400",
"/+	c #D98F00",
"(+	c #E39600",
"_+	c #F4A100",
":+	c #F9A502",
"<+	c #FBA903",
"[+	c #FDA904",
"}+	c #F3A101",
"|+	c #EA9A00",
"1+	c #DC9200",
"2+	c #CA8500",
"3+	c #AA7201",
"4+	c #7C5F25",
"5+	c #8A5B01",
"6+	c #A56E00",
"7+	c #B87A00",
"8+	c #C88300",
"9+	c #DF9300",
"0+	c #E39700",
"a+	c #EA9900",
"b+	c #DD9200",
"c+	c #D18A00",
"d+	c #C17F00",
"e+	c #A66F03",
"f+	c #8C671D",
"g+	c #7E5508",
"h+	c #976400",
"i+	c #AB7200",
"j+	c #B97A00",
"k+	c #C58200",
"l+	c #CA8600",
"m+	c #D18900",
"n+	c #D18B00",
"o+	c #D08800",
"p+	c #C98500",
"q+	c #BF7F00",
"r+	c #B17500",
"s+	c #9A6706",
"t+	c #7B560B",
"u+	c #835908",
"v+	c #936100",
"w+	c #A16900",
"x+	c #A96F00",
"y+	c #AF7400",
"z+	c #AF7500",
"A+	c #AA6F00",
"B+	c #A46B00",
"C+	c #966504",
"D+	c #8D6516",
"E+	c #7F5D15",
"F+	c #8B692C",
"G+	c #876626",
"H+	c #8B692B",
"I+	c #856019",
"                . + @ # $ % &                 ",
"            * = - ; > , ' ) ! ~ {             ",
"        ] ^ / ( _ : < < : [ } | 1 2 3         ",
"      4 5 ; 6 7 8 9 9 9 0 8 a 7 b c d e       ",
"      f g h i i i j k l m n i i i b o p q     ",
"    r s 6 7 i t i 7 u v w 7 i t i 7 x y z     ",
"  A B C : D i i i E E E F G i i i [ C H I J   ",
"  K L M N O k 7 E P Q R S T U 7 V W } X Y Z   ",
"  ` ; _  .n k u E ..+.@.#.$.w %.0 a 6 &.*.=.-.",
";.>.,.'.8 n k u E ).!.~.{.].^.%.D /.(._.:.<.[.",
"}.|.1.[ 2.O j w F 3.~.~.~.4.5.n V a _ 6.7.8.9.",
"0.a.b.h /.D c.k G d.e.~.f.g.m h.i.a _ 6.7.8.j.",
"k.l.m.} n. .9 o.l ^.p.q.r.s.t.V  .u.h v.w.x.y.",
"z.A.*.b 6 <  .0 B.o.%.%.n 9 B.8 a C.D.E.F.G.H.",
"  I.J.K._.(.u.L.i.B.M.M.M.B.L.a n.h _.N.O.P.Q.",
"  R.=.S.m.T.M [ W < U.U.U.a : C.6 6.V.F.W.X.  ",
"  Y.Z.`. +.+++@+#+6 U.U.U.(.h #+_.E.$+%+&+*+  ",
"    =+-+G.O.;+.+>+B.M.M.M.B.v.,+'+)+y !+~+    ",
"      {+]+^+/+(+B._+:+<+[+<+B.}+|+1+2+3+      ",
"      4+5+6+7+8+`.9+0+a+a+a+O.b+c+d+e+f+      ",
"          g+h+i+j+k+l+m+n+o+p+q+r+s+          ",
"            t+u+v+w+x+y+z+A+B+C+D+            ",
"                  E+F+G+H+I+                  "};
