/* XPM */
static char * sad_xpm[] = {
"23 23 256 2",
"  	c None",
". 	c #CB962A",
"+ 	c #D7971A",
"@ 	c #D69A25",
"# 	c #D7971D",
"$ 	c #D59925",
"% 	c #D29219",
"& 	c #C79432",
"* 	c #D08F12",
"= 	c #E59906",
"- 	c #F5A304",
"; 	c #FCAB06",
"> 	c #FEAF08",
", 	c #FFAF08",
"' 	c #FDAE07",
") 	c #F9A805",
"! 	c #EF9F01",
"~ 	c #DA9205",
"{ 	c #C28C20",
"] 	c #C48E23",
"^ 	c #E09505",
"/ 	c #F8A605",
"( 	c #FFB407",
"_ 	c #FFBD08",
": 	c #FFC208",
"< 	c #FFC508",
"[ 	c #FFBE08",
"} 	c #FFB508",
"| 	c #FCAC06",
"1 	c #EC9D01",
"2 	c #D08C03",
"3 	c #AE7D18",
"4 	c #C28914",
"5 	c #E29803",
"6 	c #FFBA08",
"7 	c #FFC408",
"8 	c #FFCC08",
"9 	c #FFD208",
"0 	c #FFD008",
"a 	c #FFC608",
"b 	c #FFBC08",
"c 	c #FEAF07",
"d 	c #EE9F02",
"e 	c #CE8A01",
"f 	c #AA770C",
"g 	c #E19402",
"h 	c #FCAC07",
"i 	c #FFBB08",
"j 	c #FFC808",
"k 	c #FFD108",
"l 	c #FFD708",
"m 	c #FFDA08",
"n 	c #FFDD08",
"o 	c #FFDB08",
"p 	c #FFD908",
"q 	c #FFD508",
"r 	c #FFCF08",
"s 	c #FFC708",
"t 	c #ED9C01",
"u 	c #C68301",
"v 	c #A77821",
"w 	c #D28C05",
"x 	c #F9A704",
"y 	c #FFFFB2",
"z 	c #314AD6",
"A 	c #000000",
"B 	c #FFE308",
"C 	c #FFE208",
"D 	c #FFDF08",
"E 	c #FBA906",
"F 	c #E09400",
"G 	c #BC7C01",
"H 	c #BC8517",
"I 	c #E89A01",
"J 	c #FFB107",
"K 	c #FFE708",
"L 	c #FFE608",
"M 	c #FFE008",
"N 	c #F2A001",
"O 	c #D48A00",
"P 	c #AB7611",
"Q 	c #CC8A06",
"R 	c #F7A604",
"S 	c #FFB908",
"T 	c #FFD408",
"U 	c #FFE808",
"V 	c #FFEB08",
"W 	c #FFEB0B",
"X 	c #FFE909",
"Y 	c #FFE408",
"Z 	c #FFDE08",
"` 	c #FFCE08",
" .	c #FFC308",
"..	c #FCAA05",
"+.	c #E59600",
"@.	c #BE7F00",
"#.	c #DB9100",
"$.	c #FFCB08",
"%.	c #FFED0C",
"&.	c #FFF91E",
"*.	c #FFFD32",
"=.	c #FFFA23",
"-.	c #FFEA0C",
";.	c #FFD808",
">.	c #FFAE08",
",.	c #EF9E01",
"'.	c #CC8700",
").	c #A47621",
"!.	c #B87A06",
"~.	c #E29500",
"{.	c #FDAE06",
"].	c #FFC008",
"^.	c #FFF71A",
"/.	c #FFFF67",
"(.	c #E58032",
"_.	c #FFFF77",
":.	c #FFF723",
"<.	c #FFE009",
"[.	c #FFB208",
"}.	c #F5A201",
"|.	c #D58D00",
"1.	c #A77819",
"2.	c #B98212",
"3.	c #E69500",
"4.	c #FFAE06",
"5.	c #FFCA08",
"6.	c #FFFA22",
"7.	c #FFF92F",
"8.	c #FFDE0A",
"9.	c #FFB308",
"0.	c #F8A401",
"a.	c #DA8F00",
"b.	c #A8771C",
"c.	c #B17F1C",
"d.	c #E49500",
"e.	c #FDAB06",
"f.	c #FFD608",
"g.	c #FFF115",
"h.	c #FFFE49",
"i.	c #FFFF55",
"j.	c #FFF11B",
"k.	c #FFCD08",
"l.	c #A57315",
"m.	c #B17A12",
"n.	c #DB9000",
"o.	c #FAA704",
"p.	c #FFC108",
"q.	c #FFEB13",
"r.	c #FFF220",
"s.	c #FFEA14",
"t.	c #FFDB0A",
"u.	c #FFD308",
"v.	c #FFB008",
"w.	c #F4A201",
"x.	c #D68D00",
"y.	c #A4751D",
"z.	c #A5700A",
"A.	c #CD8700",
"B.	c #FFBF08",
"C.	c #FFB708",
"D.	c #FEAB07",
"E.	c #EE9D00",
"F.	c #CF8900",
"G.	c #A27419",
"H.	c #BC7C00",
"I.	c #DF9500",
"J.	c #F9A602",
"K.	c #FFC908",
"L.	c #DB4430",
"M.	c #F9A603",
"N.	c #E49600",
"O.	c #C38100",
"P.	c #9B7324",
"Q.	c #A56E0A",
"R.	c #E99B00",
"S.	c #FFB108",
"T.	c #93301F",
"U.	c #FEAA06",
"V.	c #D68E00",
"W.	c #B07603",
"X.	c #916510",
"Y.	c #B27500",
"Z.	c #D48C00",
"`.	c #E89A00",
" +	c #F8A503",
".+	c #FEAE08",
"++	c #F3A000",
"@+	c #DF9400",
"#+	c #C38200",
"$+	c #9A6D1A",
"%+	c #936508",
"&+	c #B77900",
"*+	c #F19F00",
"=+	c #FDAA06",
"-+	c #FFAE07",
";+	c #FBA803",
">+	c #F09F00",
",+	c #C88400",
"'+	c #A56E06",
")+	c #936303",
"!+	c #B37600",
"~+	c #C98400",
"{+	c #D98F00",
"]+	c #E39600",
"^+	c #EC9B00",
"/+	c #F4A100",
"(+	c #F9A502",
"_+	c #FBA903",
":+	c #FDA904",
"<+	c #F3A101",
"[+	c #EA9A00",
"}+	c #DC9200",
"|+	c #CA8500",
"1+	c #AA7201",
"2+	c #7C5F25",
"3+	c #8A5B01",
"4+	c #A56E00",
"5+	c #B87A00",
"6+	c #C88300",
"7+	c #DF9300",
"8+	c #E39700",
"9+	c #EA9900",
"0+	c #DD9200",
"a+	c #D18A00",
"b+	c #C17F00",
"c+	c #A66F03",
"d+	c #8C671D",
"e+	c #7E5508",
"f+	c #976400",
"g+	c #AB7200",
"h+	c #B97A00",
"i+	c #C58200",
"j+	c #CA8600",
"k+	c #D18900",
"l+	c #D18B00",
"m+	c #D08800",
"n+	c #C98500",
"o+	c #BF7F00",
"p+	c #B17500",
"q+	c #9A6706",
"r+	c #7B560B",
"s+	c #835908",
"t+	c #936100",
"u+	c #A16900",
"v+	c #A96F00",
"w+	c #AF7400",
"x+	c #AF7500",
"y+	c #AA6F00",
"z+	c #A46B00",
"A+	c #966504",
"B+	c #8D6516",
"C+	c #7F5D15",
"D+	c #8B692C",
"E+	c #876626",
"F+	c #8B692B",
"G+	c #856019",
"                . + @ # $ % &                 ",
"            * = - ; > , ' ) ! ~ {             ",
"        ] ^ / ( _ : < < : [ } | 1 2 3         ",
"      4 5 ; 6 7 8 9 9 9 0 8 a b c d e f       ",
"      g h i j k l m n o p q r s b c t u v     ",
"    w x 6 y z A z y B C D y z A z y E F G     ",
"  H I J : r z z z K K K L M z z z [ J N O P   ",
"  Q R S j T n y K U V W X Y Z y `  .} ..+.@.  ",
"  #.; _ $.q n B K %.&.*.=.-.D ;.0 a 6 >.,.'.).",
"!.~.{.].8 q n B K ^./.(._.:.<.;.r s b [.}.|.1.",
"2.3.4.[ 5.T m D L 6.(.(.(.7.8.q ` a _ 9.0.a.b.",
"c.d.e.i s r f.n M g.h.(.i.j.p k k.a _ 9.0.a.l.",
"m.n.o.} p.$.9 l o <.q.r.s.t.u.` $.7 i v.w.x.y.",
"z.A.,.c 6 < $.0 T l ;.;.q 9 ` 8 a B.C.D.E.F.G.",
"  H.I.J.[.b 7 K.k.L.L.L.L.L.K.a p.i [.M.N.O.P.",
"  Q.'.R.o.S.S [ L.T.T.T.T.T.L.B.6 9.U.E.V.W.  ",
"  X.Y.Z.`. +.+L.T.6 6 b b b T.L.[.D.++@+#+$+  ",
"    %+&+F.N.*+T.=+-+v.[.9.[.v.T.;+>+F ,+'+    ",
"      )+!+~+{+]+^+/+(+_+:+_+(+<+[+}+|+1+      ",
"      2+3+4+5+6+Z.7+8+9+9+9+N.0+a+b+c+d+      ",
"          e+f+g+h+i+j+k+l+m+n+o+p+q+          ",
"            r+s+t+u+v+w+x+y+z+A+B+            ",
"                  C+D+E+F+G+                  "};
