/* XPM */
static char * sad20_xpm[] = {
"20 20 247 2",
"  	c None",
". 	c #D29823",
"+ 	c #DC9B1A",
"@ 	c #DC9C1E",
"# 	c #DB9B1E",
"$ 	c #D8971A",
"% 	c #CE9528",
"& 	c #DB950E",
"* 	c #EBA007",
"= 	c #F9AB05",
"- 	c #FDB207",
"; 	c #FFB508",
"> 	c #FEB408",
", 	c #FBAF06",
"' 	c #F4A603",
") 	c #E29907",
"! 	c #CD9017",
"~ 	c #CC9016",
"{ 	c #E19A0B",
"] 	c #F7AA06",
"^ 	c #FFBA07",
"/ 	c #FFC408",
"( 	c #FFC908",
"_ 	c #FFCA08",
": 	c #FFC508",
"< 	c #FFBD08",
"[ 	c #FCB107",
"} 	c #EEA003",
"| 	c #D08D07",
"1 	c #B67F0E",
"2 	c #E29908",
"3 	c #F9AD06",
"4 	c #FFBE08",
"5 	c #FFD308",
"6 	c #FFD708",
"7 	c #FFD608",
"8 	c #FFD208",
"9 	c #FFCC08",
"0 	c #FFC108",
"a 	c #FDB307",
"b 	c #CC8904",
"c 	c #B17B12",
"d 	c #E19604",
"e 	c #F8AB06",
"f 	c #FFD650",
"g 	c #968F89",
"h 	c #5D4F15",
"i 	c #90908A",
"j 	c #FFED55",
"k 	c #FFE008",
"l 	c #FFDE08",
"m 	c #FFEA55",
"n 	c #908D8A",
"o 	c #5D4B15",
"p 	c #968A89",
"q 	c #FCCD4F",
"r 	c #E79A02",
"s 	c #C28208",
"t 	c #C88B10",
"u 	c #EEA004",
"v 	c #FEB807",
"w 	c #FFD120",
"x 	c #5E69B1",
"y 	c #283CAE",
"z 	c #5566B9",
"A 	c #FFEA22",
"B 	c #FFE608",
"C 	c #FFE508",
"D 	c #FFE622",
"E 	c #5565B9",
"F 	c #5E66B1",
"G 	c #FFC220",
"H 	c #F6A704",
"I 	c #DB9000",
"J 	c #B67B0C",
"K 	c #D69106",
"L 	c #F9AD05",
"M 	c #FFC008",
"N 	c #FFCF08",
"O 	c #F1D116",
"P 	c #EDEB9A",
"Q 	c #F0DC17",
"R 	c #FFE908",
"S 	c #FFEB0A",
"T 	c #FFEA0B",
"U 	c #FFE609",
"V 	c #F0D417",
"W 	c #EDE99A",
"X 	c #F1C316",
"Y 	c #FDAF06",
"Z 	c #ED9D02",
"` 	c #C78401",
" .	c #E59802",
"..	c #FFDB08",
"+.	c #FFE308",
"@.	c #FFE809",
"#.	c #FFF217",
"$.	c #FDF22E",
"%.	c #FDF232",
"&.	c #FFF11A",
"*.	c #FFE10A",
"=.	c #FFD808",
"-.	c #FFCE08",
";.	c #FFC208",
">.	c #F6A504",
",.	c #D78E00",
"'.	c #AA791B",
").	c #BE8008",
"!.	c #EA9C02",
"~.	c #FEB507",
"{.	c #FFC608",
"].	c #FFD108",
"^.	c #FFDA08",
"/.	c #FFE208",
"(.	c #FFEA0C",
"_.	c #FDEE2E",
":.	c #EFB247",
"<.	c #EFB24D",
"[.	c #FDEE39",
"}.	c #FFE40E",
"|.	c #FFCD08",
"1.	c #FFC308",
"2.	c #FFB808",
"3.	c #F9A904",
"4.	c #DF9300",
"5.	c #AD7B17",
"6.	c #BC8313",
"7.	c #EC9B02",
"8.	c #FEB307",
"9.	c #FFE70C",
"0.	c #FBE326",
"a.	c #EB9F38",
"b.	c #EB9F3B",
"c.	c #FBE32E",
"d.	c #FFE00E",
"e.	c #FBAA04",
"f.	c #E29400",
"g.	c #AD7916",
"h.	c #B77F13",
"i.	c #E69801",
"j.	c #FFD908",
"k.	c #FFDF09",
"l.	c #FFEB17",
"m.	c #FADD29",
"n.	c #FADD2D",
"o.	c #FFE91B",
"p.	c #FFD80A",
"q.	c #FFB708",
"r.	c #E09300",
"s.	c #AB7716",
"t.	c #AE760B",
"u.	c #DA9000",
"v.	c #F7A704",
"w.	c #FFDB09",
"x.	c #FFDF0D",
"y.	c #FFDD0D",
"z.	c #FFD70A",
"A.	c #FFD008",
"B.	c #FFB308",
"C.	c #F5A403",
"D.	c #D99000",
"E.	c #A97717",
"F.	c #C88400",
"G.	c #EB9D01",
"H.	c #FDAE06",
"I.	c #FFBA08",
"J.	c #FABB0E",
"K.	c #E15E29",
"L.	c #E15D29",
"M.	c #FAB70E",
"N.	c #FFC708",
"O.	c #FFB908",
"P.	c #FDAD06",
"Q.	c #EE9D01",
"R.	c #CE8800",
"S.	c #A2751E",
"T.	c #AE7407",
"U.	c #D68E00",
"V.	c #F1A102",
"W.	c #FCAD06",
"X.	c #FBB00D",
"Y.	c #CD462A",
"Z.	c #A03D1E",
"`.	c #FEAF07",
" +	c #F5A303",
".+	c #DE9300",
"++	c #B97C04",
"@+	c #99690C",
"#+	c #B97A01",
"$+	c #D98F00",
"%+	c #EE9E02",
"&+	c #FAA905",
"*+	c #CE4928",
"=+	c #B95D16",
"-+	c #B95F17",
";+	c #CE4A28",
">+	c #FDAE07",
",+	c #F7A504",
"'+	c #E59700",
")+	c #C88501",
"!+	c #A57212",
"~+	c #9F6B05",
"{+	c #B87A00",
"]+	c #D38B00",
"^+	c #E69700",
"/+	c #B75D12",
"(+	c #F8A604",
"_+	c #FCAA05",
":+	c #FEAF06",
"<+	c #BD6212",
"[+	c #F2A102",
"}+	c #E39600",
"|+	c #CC8700",
"1+	c #B17603",
"2+	c #946509",
"3+	c #AF7400",
"4+	c #C58200",
"5+	c #D58D00",
"6+	c #E29500",
"7+	c #EB9C00",
"8+	c #F0A001",
"9+	c #F3A102",
"0+	c #F09E01",
"a+	c #E89900",
"b+	c #C78400",
"c+	c #AB7408",
"d+	c #8D5E04",
"e+	c #9F6A01",
"f+	c #B57800",
"g+	c #C68200",
"h+	c #D18A00",
"i+	c #DA8F00",
"j+	c #D58C00",
"k+	c #CA8600",
"l+	c #A97004",
"m+	c #825908",
"n+	c #8D5F06",
"o+	c #9F6900",
"p+	c #AD7100",
"q+	c #B47700",
"r+	c #B57700",
"s+	c #AF7200",
"t+	c #A06C04",
"u+	c #976910",
"v+	c #876218",
"w+	c #8E6924",
"x+	c #8C651B",
"              . + @ # $ %               ",
"          & * = - ; > , ' ) !           ",
"      ~ { ] ^ / ( _ ( : < [ } | 1       ",
"      2 3 4 _ 5 6 6 7 8 9 0 a } b c     ",
"    d e f g h i j k l m n o p q r s     ",
"  t u v w x y z A B C D E y F G H I J   ",
"  K L M N O P Q R S T U V W X 4 Y Z `   ",
"   .a : 8 ..+.@.#.$.%.&.*.=.-.;.; >.,.'.",
").!.~.{.].^./.(._.:.<.[.}.6 |.1.2.3.4.5.",
"6.7.8.1.N 6 l 9.0.a.b.c.d.5 9 1.2.e.f.g.",
"h.i.Y 4 _ 8 j.k.l.m.n.o.p.N _ ;.q.3.r.s.",
"t.u.v.q.1.9 8 6 w.x.y.z.A.9 {.4 B.C.D.E.",
"  F.G.H.I./ _ J.K.K.L.L.M.N.0 O.P.Q.R.S.",
"  T.U.V.W.q.X.Y.Z.Z.Z.Z.Y.X.2.`. +.+++  ",
"  @+#+$+%+&+*+=+2.O.I.I.-+;+>+,+'+)+!+  ",
"    ~+{+]+^+/+(+_+P.:+:+P.<+[+}+|+1+    ",
"      2+3+4+5+6+7+8+9+9+0+a+I b+c+      ",
"        d+e+f+g+h+,.I i+j+k+#+l+        ",
"          m+n+o+p+q+{+r+s+t+u+          ",
"                v+w+w+x+                "};
