/* XPM */
static char * tears20_xpm[] = {
"20 20 273 2",
"  	c None",
". 	c #D29823",
"+ 	c #DC9B1A",
"@ 	c #DC9C1E",
"# 	c #DB9B1E",
"$ 	c #D8971A",
"% 	c #CE9528",
"& 	c #DB950E",
"* 	c #EBA007",
"= 	c #F9AB05",
"- 	c #FDB207",
"; 	c #FFB508",
"> 	c #FEB408",
", 	c #FBAF06",
"' 	c #F4A603",
") 	c #E29907",
"! 	c #CD9017",
"~ 	c #CC9016",
"{ 	c #E19A0B",
"] 	c #F7AA06",
"^ 	c #FFCE41",
"/ 	c #FFC408",
"( 	c #FFC908",
"_ 	c #FFCA08",
": 	c #FFC508",
"< 	c #FFBD08",
"[ 	c #FCC840",
"} 	c #EEA003",
"| 	c #D08D07",
"1 	c #B67F0E",
"2 	c #E29908",
"3 	c #F9AD06",
"4 	c #AB8B5C",
"5 	c #949DBA",
"6 	c #A69661",
"7 	c #FFD708",
"8 	c #FFD608",
"9 	c #FFD208",
"0 	c #A69261",
"a 	c #939CBA",
"b 	c #A9845B",
"c 	c #CC8904",
"d 	c #B17B12",
"e 	c #E19604",
"f 	c #F8AB06",
"g 	c #FFD650",
"h 	c #5E6CC1",
"i 	c #15205D",
"j 	c #5567C5",
"k 	c #FFED55",
"l 	c #FFE008",
"m 	c #FFDE08",
"n 	c #FFEA55",
"o 	c #5E6BC1",
"p 	c #FCCD4F",
"q 	c #E79A02",
"r 	c #C28208",
"s 	c #C88B10",
"t 	c #EEA004",
"u 	c #FEB807",
"v 	c #FFD120",
"w 	c #5E69B1",
"x 	c #283CAE",
"y 	c #5566B9",
"z 	c #FFEA22",
"A 	c #FFE608",
"B 	c #FFE508",
"C 	c #FFE622",
"D 	c #5565B9",
"E 	c #5E66B1",
"F 	c #FFC220",
"G 	c #F6A704",
"H 	c #DB9000",
"I 	c #B67B0C",
"J 	c #D69106",
"K 	c #F9AD05",
"L 	c #FFC008",
"M 	c #8A817D",
"N 	c #CAB73D",
"O 	c #EDEB9A",
"P 	c #F0DC17",
"Q 	c #FFE908",
"R 	c #FFEB0A",
"S 	c #FFEA0B",
"T 	c #FFE609",
"U 	c #F0D417",
"V 	c #EDE99A",
"W 	c #CAAC3D",
"X 	c #8A797D",
"Y 	c #FDAF06",
"Z 	c #ED9D02",
"` 	c #C78401",
" .	c #E59802",
"..	c #FDB307",
"+.	c #ECB91B",
"@.	c #F3CA14",
"#.	c #FFDB08",
"$.	c #FFE308",
"%.	c #FFE809",
"&.	c #FFF217",
"*.	c #FDF22E",
"=.	c #FDF232",
"-.	c #FFF11A",
";.	c #FFE10A",
">.	c #FFD808",
",.	c #FFCE08",
"'.	c #F3BB14",
").	c #ECAA1B",
"!.	c #F6A504",
"~.	c #D78E00",
"{.	c #AA791B",
"].	c #BE8008",
"^.	c #EA9C02",
"/.	c #E6A71F",
"(.	c #767191",
"_.	c #8E8979",
":.	c #F1D116",
"<.	c #FFE208",
"[.	c #FFEA0C",
"}.	c #FDEE2E",
"|.	c #EFB247",
"1.	c #EFB24D",
"2.	c #FDEE39",
"3.	c #FFE40E",
"4.	c #F1C516",
"5.	c #8E8379",
"6.	c #766D91",
"7.	c #E19C1C",
"8.	c #DF9300",
"9.	c #AD7B17",
"0.	c #BC8313",
"a.	c #EC9B02",
"b.	c #AE8657",
"c.	c #314AD6",
"d.	c #D2B935",
"e.	c #FFE70C",
"f.	c #FBE326",
"g.	c #EB9F38",
"h.	c #EB9F3B",
"i.	c #FBE32E",
"j.	c #FFE00E",
"k.	c #FFD308",
"l.	c #D2B135",
"m.	c #AA8154",
"n.	c #E29400",
"o.	c #AD7916",
"p.	c #B77F13",
"q.	c #E69801",
"r.	c #DA9B29",
"s.	c #A58A62",
"t.	c #A59162",
"u.	c #ECC61B",
"v.	c #FFD908",
"w.	c #FFDF09",
"x.	c #FFEB17",
"y.	c #FADD29",
"z.	c #FADD2D",
"A.	c #FFE91B",
"B.	c #FFD80A",
"C.	c #FFCF08",
"D.	c #ECBF1B",
"E.	c #A58D62",
"F.	c #A58762",
"G.	c #D69727",
"H.	c #E09300",
"I.	c #AB7716",
"J.	c #AE760B",
"K.	c #DA9000",
"L.	c #BF8C3C",
"M.	c #BA954D",
"N.	c #FFC308",
"O.	c #FFCC08",
"P.	c #FFDB09",
"Q.	c #FFDF0D",
"R.	c #FFDD0D",
"S.	c #FFD70A",
"T.	c #FFD008",
"U.	c #FFC608",
"V.	c #FFBE08",
"W.	c #BA924D",
"X.	c #BE8A3B",
"Y.	c #D99000",
"Z.	c #A97717",
"`.	c #A3742E",
" +	c #4553BF",
".+	c #4454C3",
"++	c #C49C43",
"@+	c #FABB0E",
"#+	c #E15E29",
"$+	c #E15D29",
"%+	c #FAB70E",
"&+	c #FFC708",
"*+	c #FFC108",
"=+	c #C49B43",
"-+	c #A7772E",
";+	c #A2751E",
">+	c #89653A",
",+	c #3D4FC3",
"'+	c #4050C3",
")+	c #BC8F49",
"!+	c #FFB708",
"~+	c #FBB00D",
"{+	c #CD442A",
"]+	c #9F301E",
"^+	c #FFB808",
"/+	c #BD9149",
"(+	c #4151C3",
"_+	c #3F4FC3",
":+	c #916C37",
"<+	c #936719",
"[+	c #AC771C",
"}+	c #D98F00",
"|+	c #EE9E02",
"1+	c #FAA905",
"2+	c #CE4828",
"3+	c #B32D19",
"4+	c #E32A10",
"5+	c #CE4928",
"6+	c #FDAE07",
"7+	c #F7A504",
"8+	c #E59700",
"9+	c #B9801C",
"0+	c #9D7020",
"a+	c #53569F",
"b+	c #A87624",
"c+	c #D38B00",
"d+	c #E19400",
"e+	c #AD5212",
"f+	c #D03313",
"g+	c #B55814",
"h+	c #B75915",
"i+	c #B85A15",
"j+	c #B75A15",
"k+	c #AE5313",
"l+	c #E99B02",
"m+	c #E39600",
"n+	c #B78024",
"o+	c #58599F",
"p+	c #6B5A67",
"q+	c #AF7400",
"r+	c #BF7E00",
"s+	c #C78201",
"t+	c #BC670D",
"u+	c #EB9C00",
"v+	c #F0A001",
"w+	c #F3A102",
"x+	c #C46C0E",
"y+	c #C98301",
"z+	c #CD8700",
"A+	c #C78400",
"B+	c #8D5E04",
"C+	c #9F6A01",
"D+	c #B67800",
"E+	c #C68200",
"F+	c #D18A00",
"G+	c #DA8F00",
"H+	c #D58C00",
"I+	c #C38100",
"J+	c #B97A01",
"K+	c #A97004",
"L+	c #825908",
"M+	c #8D5F06",
"N+	c #9F6900",
"O+	c #AD7100",
"P+	c #B47700",
"Q+	c #B87A00",
"R+	c #B57700",
"S+	c #AF7200",
"T+	c #A06C04",
"U+	c #976910",
"V+	c #876218",
"W+	c #8E6924",
"X+	c #8C651B",
"              . + @ # $ %               ",
"          & * = - ; > , ' ) !           ",
"      ~ { ] ^ / ( _ ( : < [ } | 1       ",
"      2 3 4 5 6 7 7 8 9 0 a b } c d     ",
"    e f g h i j k l m n j i o p q r     ",
"  s t u v w x y z A B C D x E F G H I   ",
"  J K L M N O P Q R S T U V W X Y Z `   ",
"   ...+.@.#.$.%.&.*.=.-.;.>.,.'.).!.~.{.",
"].^./.(._.:.<.[.}.|.1.2.3.7 4.5.6.7.8.9.",
"0.a.b.c.c.d.m e.f.g.h.i.j.k.l.c.c.m.n.o.",
"p.q.r.s.t.u.v.w.x.y.z.A.B.C.D.E.F.G.H.I.",
"J.K.L.M.N.O.9 7 P.Q.R.S.T.O.U.V.W.X.Y.Z.",
"  `. +.+++/ _ @+#+#+$+$+%+&+*+=+.+ +-+;+",
"  >+,+'+)+!+~+{+]+]+]+]+{+~+^+/+(+_+:+  ",
"  <+[+}+|+1+2+3+4+4+4+4+3+5+6+7+8+9+0+  ",
"  c.a+b+c+d+e+f+g+h+i+j+f+k+l+m+n+o+c.  ",
"    c.p+q+r+s+t+u+v+w+w+x+y+z+A+        ",
"        B+C+D+E+F+~.H G+H+I+J+K+        ",
"          L+M+N+O+P+Q+R+S+T+U+          ",
"                V+W+W+X+                "};
