/* XPM */
static char * tears_xpm[] = {
"23 23 235 2",
"  	c None",
". 	c #CB962A",
"+ 	c #D7971A",
"@ 	c #D69A25",
"# 	c #D7971D",
"$ 	c #D59925",
"% 	c #D29219",
"& 	c #C79432",
"* 	c #D08F12",
"= 	c #E59906",
"- 	c #F5A304",
"; 	c #FCAB06",
"> 	c #FEAF08",
", 	c #FFAF08",
"' 	c #FDAE07",
") 	c #F9A805",
"! 	c #EF9F01",
"~ 	c #DA9205",
"{ 	c #C28C20",
"] 	c #C48E23",
"^ 	c #E09505",
"/ 	c #F8A605",
"( 	c #FFB407",
"_ 	c #FFBD08",
": 	c #FFC208",
"< 	c #FFC508",
"[ 	c #FFBE08",
"} 	c #FFB508",
"| 	c #FCAC06",
"1 	c #EC9D01",
"2 	c #D08C03",
"3 	c #AE7D18",
"4 	c #C28914",
"5 	c #E29803",
"6 	c #FFBA08",
"7 	c #FFFFB2",
"8 	c #FFCC08",
"9 	c #FFD208",
"0 	c #FFD008",
"a 	c #FFC608",
"b 	c #FEAF07",
"c 	c #EE9F02",
"d 	c #CE8A01",
"e 	c #AA770C",
"f 	c #E19402",
"g 	c #FCAC07",
"h 	c #FFBB08",
"i 	c #314AD6",
"j 	c #FFDA08",
"k 	c #FFDD08",
"l 	c #FFDB08",
"m 	c #FFD908",
"n 	c #FFD508",
"o 	c #ED9C01",
"p 	c #C68301",
"q 	c #A77821",
"r 	c #D28C05",
"s 	c #F9A704",
"t 	c #000000",
"u 	c #FFE308",
"v 	c #FFE208",
"w 	c #FFDF08",
"x 	c #FBA906",
"y 	c #E09400",
"z 	c #BC7C01",
"A 	c #BC8517",
"B 	c #E89A01",
"C 	c #FFB107",
"D 	c #FFCF08",
"E 	c #FFE708",
"F 	c #FFE608",
"G 	c #FFE008",
"H 	c #F2A001",
"I 	c #D48A00",
"J 	c #AB7611",
"K 	c #CC8A06",
"L 	c #F7A604",
"M 	c #FFB908",
"N 	c #FFC808",
"O 	c #65BCB9",
"P 	c #FFE808",
"Q 	c #FFEB08",
"R 	c #FFEB0B",
"S 	c #FFE909",
"T 	c #FFE408",
"U 	c #FFDE08",
"V 	c #FFCE08",
"W 	c #FCAA05",
"X 	c #E59600",
"Y 	c #BE7F00",
"Z 	c #DB9100",
"` 	c #FFCB08",
" .	c #FFED0C",
"..	c #FFF91E",
"+.	c #FFFD32",
"@.	c #FFFA23",
"#.	c #FFEA0C",
"$.	c #FFD808",
"%.	c #FFAE08",
"&.	c #EF9E01",
"*.	c #CC8700",
"=.	c #A47621",
"-.	c #B87A06",
";.	c #E29500",
">.	c #FDAE06",
",.	c #FFC008",
"'.	c #FFF71A",
").	c #FFFF67",
"!.	c #E58032",
"~.	c #FFFF77",
"{.	c #FFF723",
"].	c #FFE009",
"^.	c #FFC708",
"/.	c #FFB208",
"(.	c #F5A201",
"_.	c #D58D00",
":.	c #A77819",
"<.	c #B98212",
"[.	c #E69500",
"}.	c #FFAE06",
"|.	c #FFFA22",
"1.	c #FFF92F",
"2.	c #FFDE0A",
"3.	c #F8A401",
"4.	c #DA8F00",
"5.	c #A8771C",
"6.	c #B17F1C",
"7.	c #E49500",
"8.	c #FDAB06",
"9.	c #FFD608",
"0.	c #FFF115",
"a.	c #FFFE49",
"b.	c #FFFF55",
"c.	c #FFF11B",
"d.	c #FFD108",
"e.	c #FFCD08",
"f.	c #A57315",
"g.	c #B17A12",
"h.	c #DB9000",
"i.	c #FAA704",
"j.	c #FFC108",
"k.	c #FFD708",
"l.	c #FFEB13",
"m.	c #FFF220",
"n.	c #FFEA14",
"o.	c #FFDB0A",
"p.	c #FFD308",
"q.	c #FFC408",
"r.	c #FFB008",
"s.	c #F4A201",
"t.	c #D68D00",
"u.	c #A4751D",
"v.	c #A5700A",
"w.	c #CD8700",
"x.	c #FFD408",
"y.	c #FFBF08",
"z.	c #FFB708",
"A.	c #EE9D00",
"B.	c #CF8900",
"C.	c #A27419",
"D.	c #BC7C00",
"E.	c #FFBC08",
"F.	c #FFC908",
"G.	c #DB4430",
"H.	c #C38100",
"I.	c #9B7324",
"J.	c #A56E0A",
"K.	c #FFB108",
"L.	c #93301F",
"M.	c #FFB308",
"N.	c #B07603",
"O.	c #916510",
"P.	c #B27500",
"Q.	c #D48C00",
"R.	c #E89A00",
"S.	c #F8A503",
"T.	c #FEAE08",
"U.	c #F9280C",
"V.	c #FEAB07",
"W.	c #F3A000",
"X.	c #DF9400",
"Y.	c #C38200",
"Z.	c #9A6D1A",
"`.	c #B77900",
" +	c #E49600",
".+	c #F19F00",
"++	c #FBA803",
"@+	c #F09F00",
"#+	c #C88400",
"$+	c #B37600",
"%+	c #C98400",
"&+	c #F4A100",
"*+	c #F9A502",
"=+	c #FBA903",
"-+	c #FDA904",
";+	c #DC9200",
">+	c #CA8500",
",+	c #8A5B01",
"'+	c #A56E00",
")+	c #B87A00",
"!+	c #DF9300",
"~+	c #E39700",
"{+	c #EA9900",
"]+	c #D18A00",
"^+	c #C17F00",
"/+	c #A66F03",
"(+	c #7E5508",
"_+	c #976400",
":+	c #AB7200",
"<+	c #B97A00",
"[+	c #C58200",
"}+	c #CA8600",
"|+	c #D18900",
"1+	c #D18B00",
"2+	c #D08800",
"3+	c #C98500",
"4+	c #BF7F00",
"5+	c #B17500",
"6+	c #9A6706",
"7+	c #7B560B",
"8+	c #835908",
"9+	c #936100",
"0+	c #A16900",
"a+	c #A96F00",
"b+	c #AF7400",
"c+	c #AF7500",
"d+	c #AA6F00",
"e+	c #A46B00",
"f+	c #966504",
"g+	c #8D6516",
"h+	c #7F5D15",
"i+	c #8B692C",
"j+	c #876626",
"k+	c #8B692B",
"l+	c #856019",
"                . + @ # $ % &                 ",
"            * = - ; > , ' ) ! ~ {             ",
"        ] ^ / ( _ : < < : [ } | 1 2 3         ",
"      4 5 ; 6 7 8 9 9 9 0 8 a 7 b c d e       ",
"      f g h i i i j k l m n i i i b o p q     ",
"    r s 6 7 i t i 7 u v w 7 i t i 7 x y z     ",
"  A B C : D i i i E E E F G i i i [ C H I J   ",
"  K L M N O k 7 E P Q R S T U 7 V O } W X Y   ",
"  Z ; _ ` n k u E  ...+.@.#.w $.0 a 6 %.&.*.=.",
"-.;.>.,.O n k u E '.).!.~.{.].$.D ^.O /.(._.:.",
"<.[.}.O O O j w F |.!.!.!.1.2.n V O O O 3.4.5.",
"6.7.8.O O O 9.k G 0.a.!.b.c.m d.e.O O O 3.4.f.",
"g.h.i.} j.` 9 k.l ].l.m.n.o.p.V ` q.h r.s.t.u.",
"v.w.&.O 6 < ` 0 x.k.$.$.n 9 V 8 a y.z.O A.B.C.",
"  D.O O O E.q.F.e.G.G.G.G.G.F.a j.h O O O H.I.",
"  J.O O O K.M [ G.L.L.L.L.L.G.y.6 M.O O O N.  ",
"  O.P.Q.R.S.T.G.L.U.U.U.U.U.L.G./.V.W.X.Y.Z.  ",
"    O `.B. +.+L.U.L.L.L.L.L.U.L.++@+y #+O     ",
"  O O O $+%+%+%+L.&+*+=+-+=+L.%+%+;+>+O O O   ",
"  O O O ,+'+)+%+Q.!+~+{+{+{+ +%+]+^+/+O O O   ",
"          (+_+:+<+[+}+|+1+2+3+4+5+6+          ",
"            7+8+9+0+a+b+c+d+e+f+g+            ",
"                  h+i+j+k+l+                  "};
