/* XPM */
static char * tongue_xpm[] = {
"23 23 234 2",
"  	c None",
". 	c #CB962A",
"+ 	c #D7971A",
"@ 	c #D69A25",
"# 	c #D7971D",
"$ 	c #D59925",
"% 	c #D29219",
"& 	c #C79432",
"* 	c #D08F12",
"= 	c #E59906",
"- 	c #F5A304",
"; 	c #FCAB06",
"> 	c #FEAF08",
", 	c #FFAF08",
"' 	c #FDAE07",
") 	c #F9A805",
"! 	c #EF9F01",
"~ 	c #DA9205",
"{ 	c #C28C20",
"] 	c #C48E23",
"^ 	c #E09505",
"/ 	c #F8A605",
"( 	c #FFB407",
"_ 	c #FFBD08",
": 	c #FFC208",
"< 	c #FFC508",
"[ 	c #FFBE08",
"} 	c #FFB508",
"| 	c #FCAC06",
"1 	c #EC9D01",
"2 	c #D08C03",
"3 	c #AE7D18",
"4 	c #C28914",
"5 	c #E29803",
"6 	c #FFBA08",
"7 	c #FFFFB2",
"8 	c #FFCC08",
"9 	c #FFD208",
"0 	c #FFD008",
"a 	c #FFC608",
"b 	c #FEAF07",
"c 	c #EE9F02",
"d 	c #CE8A01",
"e 	c #AA770C",
"f 	c #E19402",
"g 	c #FCAC07",
"h 	c #FFBB08",
"i 	c #314AD6",
"j 	c #FFDA08",
"k 	c #FFDD08",
"l 	c #FFDB08",
"m 	c #FFD908",
"n 	c #FFD508",
"o 	c #ED9C01",
"p 	c #C68301",
"q 	c #A77821",
"r 	c #D28C05",
"s 	c #F9A704",
"t 	c #000000",
"u 	c #FFE308",
"v 	c #FFE208",
"w 	c #FFDF08",
"x 	c #FBA906",
"y 	c #E09400",
"z 	c #BC7C01",
"A 	c #BC8517",
"B 	c #E89A01",
"C 	c #FFB107",
"D 	c #FFCF08",
"E 	c #FFE708",
"F 	c #FFE608",
"G 	c #FFE008",
"H 	c #F2A001",
"I 	c #D48A00",
"J 	c #AB7611",
"K 	c #CC8A06",
"L 	c #F7A604",
"M 	c #FFB908",
"N 	c #FFC808",
"O 	c #FFD408",
"P 	c #FFE808",
"Q 	c #FFEB08",
"R 	c #FFEB0B",
"S 	c #FFE909",
"T 	c #FFE408",
"U 	c #FFDE08",
"V 	c #FFCE08",
"W 	c #FFC308",
"X 	c #FCAA05",
"Y 	c #E59600",
"Z 	c #BE7F00",
"` 	c #DB9100",
" .	c #FFCB08",
"..	c #FFED0C",
"+.	c #FFF91E",
"@.	c #FFFD32",
"#.	c #FFFA23",
"$.	c #FFEA0C",
"%.	c #FFD808",
"&.	c #FFAE08",
"*.	c #EF9E01",
"=.	c #CC8700",
"-.	c #A47621",
";.	c #B87A06",
">.	c #E29500",
",.	c #FDAE06",
"'.	c #FFC008",
").	c #FFF71A",
"!.	c #FFFF67",
"~.	c #E58032",
"{.	c #FFFF77",
"].	c #FFF723",
"^.	c #FFE009",
"/.	c #FFC708",
"(.	c #FFBC08",
"_.	c #FFB208",
":.	c #F5A201",
"<.	c #D58D00",
"[.	c #A77819",
"}.	c #B98212",
"|.	c #E69500",
"1.	c #FFAE06",
"2.	c #FFCA08",
"3.	c #FFFA22",
"4.	c #FFF92F",
"5.	c #FFDE0A",
"6.	c #FFB308",
"7.	c #F8A401",
"8.	c #DA8F00",
"9.	c #A8771C",
"0.	c #B17F1C",
"a.	c #E49500",
"b.	c #FDAB06",
"c.	c #FFD608",
"d.	c #FFF115",
"e.	c #FFFE49",
"f.	c #FFFF55",
"g.	c #FFF11B",
"h.	c #FFD108",
"i.	c #FFCD08",
"j.	c #A57315",
"k.	c #B17A12",
"l.	c #DB9000",
"m.	c #FAA704",
"n.	c #FFC108",
"o.	c #FFD708",
"p.	c #FFEB13",
"q.	c #FFF220",
"r.	c #FFEA14",
"s.	c #FFDB0A",
"t.	c #FFD308",
"u.	c #FFC408",
"v.	c #FFB008",
"w.	c #F4A201",
"x.	c #D68D00",
"y.	c #A4751D",
"z.	c #A5700A",
"A.	c #CD8700",
"B.	c #FFBF08",
"C.	c #FFB708",
"D.	c #FEAB07",
"E.	c #EE9D00",
"F.	c #CF8900",
"G.	c #A27419",
"H.	c #BC7C00",
"I.	c #DF9500",
"J.	c #F9A602",
"K.	c #93301F",
"L.	c #FFC908",
"M.	c #F9A603",
"N.	c #E49600",
"O.	c #C38100",
"P.	c #9B7324",
"Q.	c #A56E0A",
"R.	c #E99B00",
"S.	c #FFB108",
"T.	c #C43F2B",
"U.	c #FEAA06",
"V.	c #D68E00",
"W.	c #B07603",
"X.	c #916510",
"Y.	c #B27500",
"Z.	c #D48C00",
"`.	c #E89A00",
" +	c #F8A503",
".+	c #FEAE08",
"++	c #F90031",
"@+	c #FFB5C1",
"#+	c #F3A000",
"$+	c #DF9400",
"%+	c #C38200",
"&+	c #9A6D1A",
"*+	c #936508",
"=+	c #B77900",
"-+	c #F19F00",
";+	c #C88400",
">+	c #A56E06",
",+	c #936303",
"'+	c #B37600",
")+	c #C98400",
"!+	c #D98F00",
"~+	c #E39600",
"{+	c #EC9B00",
"]+	c #DB4430",
"^+	c #AA7201",
"/+	c #7C5F25",
"(+	c #8A5B01",
"_+	c #A56E00",
":+	c #B87A00",
"<+	c #C88300",
"[+	c #DF9300",
"}+	c #E39700",
"|+	c #EA9900",
"1+	c #7E5508",
"2+	c #976400",
"3+	c #AB7200",
"4+	c #B97A00",
"5+	c #C58200",
"6+	c #CA8600",
"7+	c #D18900",
"8+	c #D18B00",
"9+	c #7B560B",
"0+	c #835908",
"a+	c #936100",
"b+	c #A16900",
"c+	c #A96F00",
"d+	c #AF7400",
"e+	c #AF7500",
"f+	c #AA6F00",
"g+	c #7F5D15",
"h+	c #8B692C",
"i+	c #876626",
"j+	c #8B692B",
"k+	c #856019",
"                . + @ # $ % &                 ",
"            * = - ; > , ' ) ! ~ {             ",
"        ] ^ / ( _ : < < : [ } | 1 2 3         ",
"      4 5 ; 6 7 8 9 9 9 0 8 a 7 b c d e       ",
"      f g h i i i j k l m n i i i b o p q     ",
"    r s 6 7 i t i 7 u v w 7 i t i 7 x y z     ",
"  A B C : D i i i E E E F G i i i [ C H I J   ",
"  K L M N O k 7 E P Q R S T U 7 V W } X Y Z   ",
"  ` ; _  .n k u E ..+.@.#.$.w %.0 a 6 &.*.=.-.",
";.>.,.'.8 n k u E ).!.~.{.].^.%.D /.(._.:.<.[.",
"}.|.1.[ 2.O j w F 3.~.~.~.4.5.n V a _ 6.7.8.9.",
"0.a.b.h /.D c.k G d.e.~.f.g.m h.i.a _ 6.7.8.j.",
"k.l.m.} n. .9 o.l ^.p.q.r.s.t.V  .u.h v.w.x.y.",
"z.A.*.b 6 <  .0 O o.%.%.n 9 V 8 a B.C.D.E.F.G.",
"  H.I.J._.(.K.L.i.D h.D i.8 L.a K.h _.M.N.O.P.",
"  Q.=.R.m.S.T.K.W < a a a a : K.T.6.U.E.V.W.  ",
"  X.Y.Z.`. +.+T.K.6 6 (.(.(.K.++@+D.#+$+%+&+  ",
"    *+=+F.N.-+ +T.K.K.K.K.K.T.++++@+y ;+>+    ",
"      ,+'+)+!+~+{+]+]+@+++++t t ++++@+^+      ",
"      /+(+_+:+<+Z.[+}+|+@+++++t t ++++@+      ",
"          1+2+3+4+5+6+7+8+@+++++t t @+        ",
"            9+0+a+b+c+d+e+f+@+++++@+          ",
"                  g+h+i+j+k+  @+@+            "};
