/* XPM */
static char * wink_xpm[] = {
"23 23 245 2",
"  	c None",
". 	c #CB962A",
"+ 	c #D7971A",
"@ 	c #D69A25",
"# 	c #D7971D",
"$ 	c #D59925",
"% 	c #D29219",
"& 	c #C79432",
"* 	c #D08F12",
"= 	c #E59906",
"- 	c #F5A304",
"; 	c #FCAB06",
"> 	c #FEAF08",
", 	c #FFAF08",
"' 	c #FDAE07",
") 	c #F9A805",
"! 	c #EF9F01",
"~ 	c #DA9205",
"{ 	c #C28C20",
"] 	c #C48E23",
"^ 	c #E09505",
"/ 	c #F8A605",
"( 	c #FFB407",
"_ 	c #FFBD08",
": 	c #FFC208",
"< 	c #FFC508",
"[ 	c #FFBE08",
"} 	c #FFB508",
"| 	c #FCAC06",
"1 	c #EC9D01",
"2 	c #D08C03",
"3 	c #AE7D18",
"4 	c #C28914",
"5 	c #E29803",
"6 	c #FFFFB2",
"7 	c #FFC408",
"8 	c #FFCC08",
"9 	c #FFD208",
"0 	c #FFD008",
"a 	c #FFC608",
"b 	c #FFBC08",
"c 	c #FEAF07",
"d 	c #EE9F02",
"e 	c #CE8A01",
"f 	c #AA770C",
"g 	c #E19402",
"h 	c #FCAC07",
"i 	c #314AD6",
"j 	c #FFD708",
"k 	c #FFDA08",
"l 	c #FFDD08",
"m 	c #FFDB08",
"n 	c #FFD908",
"o 	c #FFD508",
"p 	c #FFCF08",
"q 	c #777777",
"r 	c #ED9C01",
"s 	c #C68301",
"t 	c #A77821",
"u 	c #D28C05",
"v 	c #F9A704",
"w 	c #000000",
"x 	c #FFE208",
"y 	c #FFE308",
"z 	c #FFDF08",
"A 	c #FFB908",
"B 	c #FBA906",
"C 	c #E09400",
"D 	c #BC7C01",
"E 	c #BC8517",
"F 	c #E89A01",
"G 	c #FFB107",
"H 	c #FFE408",
"I 	c #FFE708",
"J 	c #FFD308",
"K 	c #F2A001",
"L 	c #D48A00",
"M 	c #AB7611",
"N 	c #CC8A06",
"O 	c #F7A604",
"P 	c #FFC808",
"Q 	c #FFD408",
"R 	c #FFE808",
"S 	c #FFEB08",
"T 	c #FFEB0B",
"U 	c #FFE909",
"V 	c #FFDE08",
"W 	c #FFCE08",
"X 	c #FFC308",
"Y 	c #FCAA05",
"Z 	c #E59600",
"` 	c #BE7F00",
" .	c #DB9100",
"..	c #FFCB08",
"+.	c #FFED0C",
"@.	c #FFF91E",
"#.	c #FFFD32",
"$.	c #FFFA23",
"%.	c #FFEA0C",
"&.	c #FFD808",
"*.	c #FFBA08",
"=.	c #FFAE08",
"-.	c #EF9E01",
";.	c #CC8700",
">.	c #A47621",
",.	c #B87A06",
"'.	c #E29500",
").	c #FDAE06",
"!.	c #FFC008",
"~.	c #FFF71A",
"{.	c #FFFF77",
"].	c #FFF723",
"^.	c #FFE009",
"/.	c #FFC708",
"(.	c #FFB208",
"_.	c #F5A201",
":.	c #D58D00",
"<.	c #A77819",
"[.	c #B98212",
"}.	c #E69500",
"|.	c #FFAE06",
"1.	c #FFCA08",
"2.	c #FFE608",
"3.	c #E58032",
"4.	c #FFF92F",
"5.	c #FFDE0A",
"6.	c #FFB308",
"7.	c #F8A401",
"8.	c #DA8F00",
"9.	c #A8771C",
"0.	c #B17F1C",
"a.	c #E49500",
"b.	c #FDAB06",
"c.	c #FFBB08",
"d.	c #FFD608",
"e.	c #FFFF55",
"f.	c #FFF11B",
"g.	c #FFD108",
"h.	c #FFCD08",
"i.	c #A57315",
"j.	c #B17A12",
"k.	c #DB9000",
"l.	c #FAA704",
"m.	c #FFC108",
"n.	c #FFEB13",
"o.	c #FFF220",
"p.	c #FFEA14",
"q.	c #FFDB0A",
"r.	c #FFB008",
"s.	c #F4A201",
"t.	c #D68D00",
"u.	c #A4751D",
"v.	c #A5700A",
"w.	c #CD8700",
"x.	c #C43F2B",
"y.	c #FFBF08",
"z.	c #FFB708",
"A.	c #FEAB07",
"B.	c #EE9D00",
"C.	c #CF8900",
"D.	c #A27419",
"E.	c #BC7C00",
"F.	c #DF9500",
"G.	c #F9A602",
"H.	c #FFC908",
"I.	c #93301F",
"J.	c #F9A603",
"K.	c #E49600",
"L.	c #C38100",
"M.	c #9B7324",
"N.	c #A56E0A",
"O.	c #E99B00",
"P.	c #FFB108",
"Q.	c #FEAA06",
"R.	c #D68E00",
"S.	c #B07603",
"T.	c #916510",
"U.	c #B27500",
"V.	c #D48C00",
"W.	c #E89A00",
"X.	c #F8A503",
"Y.	c #FEAE08",
"Z.	c #FFB408",
"`.	c #FFB808",
" +	c #F3A000",
".+	c #DF9400",
"++	c #C38200",
"@+	c #9A6D1A",
"#+	c #936508",
"$+	c #B77900",
"%+	c #F19F00",
"&+	c #FDAA06",
"*+	c #FFAE07",
"=+	c #FBA803",
"-+	c #F09F00",
";+	c #C88400",
">+	c #A56E06",
",+	c #936303",
"'+	c #B37600",
")+	c #FBA903",
"!+	c #F9A502",
"~+	c #F3A101",
"{+	c #EA9A00",
"]+	c #DC9200",
"^+	c #CA8500",
"/+	c #AA7201",
"(+	c #7C5F25",
"_+	c #8A5B01",
":+	c #A56E00",
"<+	c #DB4430",
"[+	c #EA9900",
"}+	c #DD9200",
"|+	c #D18A00",
"1+	c #C17F00",
"2+	c #A66F03",
"3+	c #8C671D",
"4+	c #7E5508",
"5+	c #976400",
"6+	c #AB7200",
"7+	c #B97A00",
"8+	c #C58200",
"9+	c #CA8600",
"0+	c #D18900",
"a+	c #D18B00",
"b+	c #D08800",
"c+	c #C98500",
"d+	c #BF7F00",
"e+	c #B17500",
"f+	c #9A6706",
"g+	c #7B560B",
"h+	c #835908",
"i+	c #936100",
"j+	c #A16900",
"k+	c #A96F00",
"l+	c #AF7400",
"m+	c #AF7500",
"n+	c #AA6F00",
"o+	c #A46B00",
"p+	c #966504",
"q+	c #8D6516",
"r+	c #7F5D15",
"s+	c #8B692C",
"t+	c #876626",
"u+	c #8B692B",
"v+	c #856019",
"                . + @ # $ % &                 ",
"            * = - ; > , ' ) ! ~ {             ",
"        ] ^ / ( _ : < < : [ } | 1 2 3         ",
"      4 5 ; 6 7 8 9 9 9 0 8 a b c d e f       ",
"      g h i i i j k l m n o p q b c r s t     ",
"    u v 6 i w i 6 x y x z q w w q A B C D     ",
"  E F G : i i i H I I I w w q J 8 [ G K L M   ",
"  N O A P Q 6 x I R S T U H V j W X } Y Z `   ",
"   .; _ ..o l y I +.@.#.$.%.z &.0 a *.=.-.;.>.",
",.'.).!.8 o l y I ~.{.6 {.].^.&.p /.b (._.:.<.",
"[.}.|.[ 1.Q k z 2.3.6 6 6 4.5.o W a _ 6.7.8.9.",
"0.a.b.c./.p d.l 3.3.3.6 e.f.n g.h.a _ 6.7.8.i.",
"j.k.l.} m...9 j m 3.n.o.p.q.J W ..7 c.r.s.t.u.",
"v.w.-.c *.< ..0 Q j &.&.o 9 x.8 a y.z.A.B.C.D.",
"  E.F.G.(.b 7 H.h.p p p h.8 I.x.m.c.(.J.K.L.M.",
"  N.;.O.l.P.A [ X < a a a a I.x.*.6.Q.B.R.S.  ",
"  T.U.V.W.X.Y.Z.`.*.*.b b I.x.`.x.A. +.+++@+  ",
"    #+$+C.I.%+X.&+*+r.I.I.x.r.*+=+-+C ;+>+    ",
"      ,+'+x.I.I.I.I.I.x.x.)+!+~+{+]+^+/+      ",
"      (+_+:+<+<+<+<+<+[+[+[+K.}+|+1+2+3+      ",
"          4+5+6+7+8+9+0+a+b+c+d+e+f+          ",
"            g+h+i+j+k+l+m+n+o+p+q+            ",
"                  r+s+t+u+v+                  "};
