/* XPM */
static char * dead20_xpm[] = {
"20 20 255 2",
"  	c None",
". 	c #D29823",
"+ 	c #DC9B1A",
"@ 	c #DC9C1E",
"# 	c #DB9B1E",
"$ 	c #D8971A",
"% 	c #CE9528",
"& 	c #DB950E",
"* 	c #EBA007",
"= 	c #F9AB05",
"- 	c #FDB207",
"; 	c #FFB508",
"> 	c #FEB408",
", 	c #FBAF06",
"' 	c #F4A603",
") 	c #E29907",
"! 	c #CD9017",
"~ 	c #CC9016",
"{ 	c #E19A0B",
"] 	c #F7AA06",
"^ 	c #FFBA07",
"/ 	c #FFC408",
"( 	c #FFC908",
"_ 	c #FFCA08",
": 	c #FFC508",
"< 	c #FFBD08",
"[ 	c #FCB107",
"} 	c #EEA003",
"| 	c #D08D07",
"1 	c #B67F0E",
"2 	c #E29908",
"3 	c #F9AD06",
"4 	c #FFBE08",
"5 	c #FFD308",
"6 	c #FFD708",
"7 	c #FFD608",
"8 	c #FFD208",
"9 	c #FFCC08",
"0 	c #FFC108",
"a 	c #FDB307",
"b 	c #CC8904",
"c 	c #B17B12",
"d 	c #916003",
"e 	c #AA7704",
"f 	c #6E5B03",
"g 	c #FFDC08",
"h 	c #FFE008",
"i 	c #FFDE08",
"j 	c #FFDB08",
"k 	c #FFD508",
"l 	c #FFC008",
"m 	c #FCB006",
"n 	c #E79A02",
"o 	c #C28208",
"p 	c #C88B10",
"q 	c #D89203",
"r 	c #7C5704",
"s 	c #BAA006",
"t 	c #635403",
"u 	c #BDA606",
"v 	c #FFE308",
"w 	c #FFE608",
"x 	c #FFE508",
"y 	c #FFE108",
"z 	c #FFC808",
"A 	c #FFB808",
"B 	c #F6A704",
"C 	c #DB9000",
"D 	c #B67B0C",
"E 	c #D69106",
"F 	c #F9A805",
"G 	c #EDAD07",
"H 	c #635003",
"I 	c #B59D06",
"J 	c #FCE308",
"K 	c #FFE708",
"L 	c #FFE908",
"M 	c #FFEB0A",
"N 	c #FFEA0B",
"O 	c #FFE609",
"P 	c #FFDF08",
"Q 	c #F6CA0A",
"R 	c #AB4120",
"S 	c #EA7220",
"T 	c #FDAF06",
"U 	c #ED9D02",
"V 	c #C78401",
"W 	c #E59802",
"X 	c #ECA506",
"Y 	c #7C5D04",
"Z 	c #B69E06",
"` 	c #5A4F03",
" .	c #C6B006",
"..	c #FFE809",
"+.	c #FFF217",
"@.	c #FDF22E",
"#.	c #FDF232",
"$.	c #FFF11A",
"%.	c #FFE10A",
"&.	c #A33423",
"*.	c #E86D22",
"=.	c #F6A504",
"-.	c #D78E00",
";.	c #AA791B",
">.	c #BE8008",
",.	c #EA9C02",
"'.	c #B98105",
").	c #AA8205",
"!.	c #655903",
"~.	c #FFEA0C",
"{.	c #FDEE2E",
"].	c #EFB247",
"^.	c #EFB24D",
"/.	c #FDEE39",
"(.	c #FFE40E",
"_.	c #F6C90A",
":.	c #E86E22",
"<.	c #F9A904",
"[.	c #DF9300",
"}.	c #AD7B17",
"|.	c #BC8313",
"1.	c #EC9B02",
"2.	c #FEB006",
"3.	c #FFB908",
"4.	c #FFCB08",
"5.	c #FFDD08",
"6.	c #FFE208",
"7.	c #FFE70C",
"8.	c #FBE326",
"9.	c #EB9F38",
"0.	c #EB9F3B",
"a.	c #FBE32E",
"b.	c #FFE00E",
"c.	c #F6C50A",
"d.	c #FBAA04",
"e.	c #E29400",
"f.	c #AD7916",
"g.	c #B77F13",
"h.	c #E69801",
"i.	c #FCAC06",
"j.	c #FFB708",
"k.	c #FFC708",
"l.	c #FFDF09",
"m.	c #FFEB17",
"n.	c #FADD29",
"o.	c #FADD2D",
"p.	c #FFE91B",
"q.	c #FFD80A",
"r.	c #F6C20A",
"s.	c #E09300",
"t.	c #AB7716",
"u.	c #AE760B",
"v.	c #DA9000",
"w.	c #B27702",
"x.	c #AA7B05",
"y.	c #FFD108",
"z.	c #655503",
"A.	c #FFDB09",
"B.	c #FFDF0D",
"C.	c #FFDD0D",
"D.	c #FFD70A",
"E.	c #FFD008",
"F.	c #F6BF0A",
"G.	c #E86C22",
"H.	c #FFB308",
"I.	c #F5A403",
"J.	c #D99000",
"K.	c #A97717",
"L.	c #C88400",
"M.	c #DA9101",
"N.	c #7A5202",
"O.	c #B68B06",
"P.	c #5A4603",
"Q.	c #C69C06",
"R.	c #FFCF08",
"S.	c #FFCD08",
"T.	c #FDC408",
"U.	c #EFA70D",
"V.	c #FBAB0D",
"W.	c #FDAD06",
"X.	c #EE9D01",
"Y.	c #CE8800",
"Z.	c #A2751E",
"`.	c #AE7407",
" +	c #CF8900",
".+	c #D88F02",
"++	c #614102",
"@+	c #B58306",
"#+	c #FCB808",
"$+	c #FFC308",
"%+	c #FFC208",
"&+	c #FEAF07",
"*+	c #F5A303",
"=+	c #DE9300",
"-+	c #B97C04",
";+	c #99690C",
">+	c #A97001",
",+	c #674400",
"'+	c #AF7402",
")+	c #5E3E01",
"!+	c #BD8506",
"~+	c #FFBA08",
"{+	c #FDAE07",
"]+	c #F7A504",
"^+	c #E59700",
"/+	c #C88501",
"(+	c #A57212",
"_+	c #634405",
":+	c #7F5400",
"<+	c #D38B00",
"[+	c #E69700",
"}+	c #644200",
"|+	c #F8A604",
"1+	c #FCAA05",
"2+	c #FEAF06",
"3+	c #FAA905",
"4+	c #F2A102",
"5+	c #E39600",
"6+	c #CC8700",
"7+	c #B17603",
"8+	c #946509",
"9+	c #AF7400",
"0+	c #C58200",
"a+	c #D58D00",
"b+	c #E29500",
"c+	c #EB9C00",
"d+	c #F0A001",
"e+	c #F3A102",
"f+	c #F09E01",
"g+	c #E89900",
"h+	c #C78400",
"i+	c #AB7408",
"j+	c #8D5E04",
"k+	c #9F6A01",
"l+	c #B57800",
"m+	c #C68200",
"n+	c #D18A00",
"o+	c #DA8F00",
"p+	c #D58C00",
"q+	c #CA8600",
"r+	c #B97A01",
"s+	c #A97004",
"t+	c #825908",
"u+	c #8D5F06",
"v+	c #9F6900",
"w+	c #AD7100",
"x+	c #B47700",
"y+	c #B87A00",
"z+	c #B57700",
"A+	c #AF7200",
"B+	c #A06C04",
"C+	c #976910",
"D+	c #876218",
"E+	c #8E6924",
"F+	c #8C651B",
"              . + @ # $ %               ",
"          & * = - ; > , ' ) !           ",
"      ~ { ] ^ / ( _ ( : < [ } | 1       ",
"      2 3 4 _ 5 6 6 7 8 9 0 a } b c     ",
"    d e 4 9 f g h h i j k 9 l m n o     ",
"  p q r s t u v w w x y j 8 z A B C D   ",
"  E F G H I J K L M N O P Q R S T U V   ",
"  W X Y Z `  ...+.@.#.$.%.Q &.*.; =.-.;.",
">.,.'.).6 h !.~.{.].^./.(._.&.:.A <.[.}.",
"|.1.2.3.4.5.6.7.8.9.0.a.b.c.&.:.A d.e.f.",
"g.h.i.j.k.g i l.m.n.o.p.q.r.&.:.j.<.s.t.",
"u.v.w.x.y.7 z.6 A.B.C.D.E.F.&.G.H.I.J.K.",
"  L.M.N.O.P.Q.R.y.y.R.S._ T.U.V.W.X.Y.Z.",
"  `. +.+++@+#+$+: : : : %+4 A &+*+=+-+  ",
"  ;+>+,+'+)+!+; A 3.~+~+3.; {+]+^+/+(+  ",
"    _+:+<+[+}+|+1+W.2+2+W.3+4+5+6+7+    ",
"      8+9+0+a+b+c+d+e+e+f+g+C h+i+      ",
"        j+k+l+m+n+-.C o+p+q+r+s+        ",
"          t+u+v+w+x+y+z+A+B+C+          ",
"                D+E+E+F+                "};
