/* XPM */
static char * embarrased20_xpm[] = {
"20 20 267 2",
"  	c None",
". 	c #D29823",
"+ 	c #DC9B1A",
"@ 	c #DC9C1E",
"# 	c #DB9B1E",
"$ 	c #D8971A",
"% 	c #CE9528",
"& 	c #DB950E",
"* 	c #EBA007",
"= 	c #F9AB05",
"- 	c #FDB207",
"; 	c #FFB508",
"> 	c #FEB408",
", 	c #FBAF06",
"' 	c #F4A603",
") 	c #E29907",
"! 	c #CD9017",
"~ 	c #CC9016",
"{ 	c #E19A0B",
"] 	c #F7AA06",
"^ 	c #FFCE41",
"/ 	c #FFC408",
"( 	c #FFC908",
"_ 	c #FFCA08",
": 	c #FFC508",
"< 	c #FFBD08",
"[ 	c #FCC840",
"} 	c #EEA003",
"| 	c #D08D07",
"1 	c #B67F0E",
"2 	c #E29908",
"3 	c #F9AD06",
"4 	c #AB8B5C",
"5 	c #949DBA",
"6 	c #A69661",
"7 	c #FFD708",
"8 	c #FFD608",
"9 	c #FFD208",
"0 	c #A69261",
"a 	c #939CBA",
"b 	c #A9845B",
"c 	c #CC8904",
"d 	c #B17B12",
"e 	c #E19604",
"f 	c #F8AB06",
"g 	c #FFD650",
"h 	c #5E6CC1",
"i 	c #15205D",
"j 	c #5567C5",
"k 	c #FFED55",
"l 	c #FFE008",
"m 	c #FFDE08",
"n 	c #FFEA55",
"o 	c #5E6BC1",
"p 	c #FCCD4F",
"q 	c #E79A02",
"r 	c #C28208",
"s 	c #C88B10",
"t 	c #EEA004",
"u 	c #FEB807",
"v 	c #FFD120",
"w 	c #5E69B1",
"x 	c #283CAE",
"y 	c #5566B9",
"z 	c #FFEA22",
"A 	c #FFE608",
"B 	c #FFE508",
"C 	c #FFE622",
"D 	c #5565B9",
"E 	c #5E66B1",
"F 	c #FFC220",
"G 	c #F6A704",
"H 	c #DB9000",
"I 	c #B67B0C",
"J 	c #D69106",
"K 	c #F9AD05",
"L 	c #FFC008",
"M 	c #FFCF08",
"N 	c #F1D116",
"O 	c #EDEB9A",
"P 	c #F0DC17",
"Q 	c #FFE908",
"R 	c #FFEB0A",
"S 	c #FFEA0B",
"T 	c #FFE609",
"U 	c #F0D417",
"V 	c #EDE99A",
"W 	c #F1C316",
"X 	c #FFBE08",
"Y 	c #FDAF06",
"Z 	c #ED9D02",
"` 	c #C78401",
" .	c #E59802",
"..	c #FDB107",
"+.	c #FFC108",
"@.	c #FFCE08",
"#.	c #FFDB08",
"$.	c #FFE308",
"%.	c #FFE809",
"&.	c #FFF217",
"*.	c #FDF22E",
"=.	c #FDF232",
"-.	c #FFF11A",
";.	c #FFE10A",
">.	c #FFD808",
",.	c #FFCD08",
"'.	c #FFAB09",
").	c #F69A04",
"!.	c #D78B00",
"~.	c #AA791B",
"{.	c #BE8008",
"].	c #EA9702",
"^.	c #FEA108",
"/.	c #FF9E0B",
"(.	c #FFB00A",
"_.	c #FFD008",
":.	c #FFEA0C",
"<.	c #FDEE2E",
"[.	c #EFB247",
"}.	c #EFB24D",
"|.	c #FDEE39",
"1.	c #FFE40E",
"2.	c #FFC309",
"3.	c #FFA00A",
"4.	c #FF850B",
"5.	c #FA8207",
"6.	c #DF8A01",
"7.	c #AD7A17",
"8.	c #BC8214",
"9.	c #EC8603",
"0.	c #FE7D0B",
"a.	c #FF760E",
"b.	c #FF8D0D",
"c.	c #FFB20A",
"d.	c #FFE70C",
"e.	c #FBE326",
"f.	c #EB9F38",
"g.	c #EB9F3B",
"h.	c #FBE32E",
"i.	c #FFE00E",
"j.	c #FFD108",
"k.	c #FF8B0C",
"l.	c #FF830C",
"m.	c #FC7E09",
"n.	c #E38502",
"o.	c #AE7816",
"p.	c #B77C14",
"q.	c #E97505",
"r.	c #FD700B",
"s.	c #FF7F0B",
"t.	c #FF8D0C",
"u.	c #FF940C",
"v.	c #FFDF09",
"w.	c #FFEB17",
"x.	c #FADD29",
"y.	c #FADD2D",
"z.	c #FFE91B",
"A.	c #FFD80A",
"B.	c #FFAC0A",
"C.	c #FF8A0B",
"D.	c #FB760A",
"E.	c #E27D03",
"F.	c #AB7616",
"G.	c #AE740B",
"H.	c #DE7404",
"I.	c #F9670B",
"J.	c #FF750D",
"K.	c #FF920B",
"L.	c #FF850D",
"M.	c #FFC608",
"N.	c #FFDB09",
"O.	c #FFDF0D",
"P.	c #FFDD0D",
"Q.	c #FFD70A",
"R.	c #FFCB08",
"S.	c #FFAD0A",
"T.	c #FF840C",
"U.	c #FF800C",
"V.	c #F87109",
"W.	c #DB7F02",
"X.	c #A97717",
"Y.	c #CC7502",
"Z.	c #ED7605",
"`.	c #FD730A",
" +	c #FF870B",
".+	c #FFC308",
"++	c #FFB509",
"@+	c #FF890B",
"#+	c #FD780B",
"$+	c #F07606",
"%+	c #CF7F01",
"&+	c #A2751E",
"*+	c #B46909",
"=+	c #DC7004",
"-+	c #F37706",
";+	c #FD7B0A",
">+	c #FF930A",
",+	c #FFBB08",
"'+	c #FFC208",
")+	c #FFAC08",
"!+	c #FE8A09",
"~+	c #F87707",
"{+	c #E47104",
"]+	c #BB7505",
"^+	c #9A670C",
"/+	c #BB7302",
"(+	c #DB8002",
"_+	c #EF8904",
":+	c #FA9F06",
"<+	c #FCAF07",
"[+	c #E89B0D",
"}+	c #E89C0D",
"|+	c #E89D0D",
"1+	c #E89E0D",
"2+	c #E99C0C",
"3+	c #FDAC07",
"4+	c #F79505",
"5+	c #E87D04",
"6+	c #CF6F04",
"7+	c #A76D13",
"8+	c #9F6B05",
"9+	c #B87A00",
"0+	c #D38B00",
"a+	c #E69700",
"b+	c #ED9C03",
"c+	c #B15017",
"d+	c #AC3725",
"e+	c #BA5C14",
"f+	c #F2A102",
"g+	c #E39600",
"h+	c #CC8700",
"i+	c #B17603",
"j+	c #946509",
"k+	c #AF7400",
"l+	c #C58200",
"m+	c #D58D00",
"n+	c #E08D04",
"o+	c #DD6A19",
"p+	c #E06C19",
"q+	c #E26D19",
"r+	c #E06B19",
"s+	c #E79702",
"t+	c #C78400",
"u+	c #AB7408",
"v+	c #8D5E04",
"w+	c #9F6A01",
"x+	c #B57800",
"y+	c #C68200",
"z+	c #D18A00",
"A+	c #D78E00",
"B+	c #DA8F00",
"C+	c #D58C00",
"D+	c #CA8600",
"E+	c #B97A01",
"F+	c #A97004",
"G+	c #825908",
"H+	c #8D5F06",
"I+	c #9F6900",
"J+	c #AD7100",
"K+	c #B47700",
"L+	c #B57700",
"M+	c #AF7200",
"N+	c #A06C04",
"O+	c #976910",
"P+	c #876218",
"Q+	c #8E6924",
"R+	c #8C651B",
"              . + @ # $ %               ",
"          & * = - ; > , ' ) !           ",
"      ~ { ] ^ / ( _ ( : < [ } | 1       ",
"      2 3 4 5 6 7 7 8 9 0 a b } c d     ",
"    e f g h i j k l m n j i o p q r     ",
"  s t u v w x y z A B C D x E F G H I   ",
"  J K L M N O P Q R S T U V W X Y Z `   ",
"   ...+.@.#.$.%.&.*.=.-.;.>.,.X '.).!.~.",
"{.].^./.(._.l :.<.[.}.|.1.8 2.3.4.5.6.7.",
"8.9.0.a.b.c.>.d.e.f.g.h.i.j.(.k.l.m.n.o.",
"p.q.r.s.t.u.M v.w.x.y.z.A.,.B.t.C.D.E.F.",
"G.H.I.J.K.L.M.7 N.O.P.Q._.R.S.T.U.V.W.X.",
"  Y.Z.`. +k..+M j.j.M ,._ M.++@+#+$+%+&+",
"  *+=+-+;+>+,+.+: : : : '+X )+!+~+{+]+  ",
"  ^+/+(+_+:+<+[+}+|+1+1+|+2+3+4+5+6+7+  ",
"    8+9+0+a+b+c+d+d+d+d+d+e+f+g+h+i+    ",
"      j+k+l+m+n+o+p+q+q+r+s+H t+u+      ",
"        v+w+x+y+z+A+H B+C+D+E+F+        ",
"          G+H+I+J+K+9+L+M+N+O+          ",
"                P+Q+Q+R+                "};
