/* XPM */
static char * indifferent20_xpm[] = {
"20 20 259 2",
"  	c None",
". 	c #D29823",
"+ 	c #DC9B1A",
"@ 	c #DC9C1E",
"# 	c #DB9B1E",
"$ 	c #D8971A",
"% 	c #CE9528",
"& 	c #DB950E",
"* 	c #EBA007",
"= 	c #F9AB05",
"- 	c #FDB207",
"; 	c #FFB508",
"> 	c #FEB408",
", 	c #FBAF06",
"' 	c #F4A603",
") 	c #E29907",
"! 	c #CD9017",
"~ 	c #CC9016",
"{ 	c #E19A0B",
"] 	c #F7AA06",
"^ 	c #FFCE41",
"/ 	c #FFC408",
"( 	c #FFC908",
"_ 	c #FFCA08",
": 	c #FFC508",
"< 	c #FFBD08",
"[ 	c #FCC840",
"} 	c #EEA003",
"| 	c #D08D07",
"1 	c #B67F0E",
"2 	c #E29908",
"3 	c #F9AD06",
"4 	c #AB8B5C",
"5 	c #949DBA",
"6 	c #A69661",
"7 	c #FFD708",
"8 	c #FFD608",
"9 	c #FFD208",
"0 	c #A69261",
"a 	c #939CBA",
"b 	c #A9845B",
"c 	c #CC8904",
"d 	c #B17B12",
"e 	c #E19604",
"f 	c #F8AB06",
"g 	c #FFD650",
"h 	c #5E6CC1",
"i 	c #15205D",
"j 	c #5567C5",
"k 	c #FFED55",
"l 	c #FFE008",
"m 	c #FFDE08",
"n 	c #FFEA55",
"o 	c #5E6BC1",
"p 	c #FCCD4F",
"q 	c #E79A02",
"r 	c #C28208",
"s 	c #C88B10",
"t 	c #EEA004",
"u 	c #FEB807",
"v 	c #FFD120",
"w 	c #5E69B1",
"x 	c #283CAE",
"y 	c #5566B9",
"z 	c #FFEA22",
"A 	c #FFE608",
"B 	c #FFE508",
"C 	c #FFE622",
"D 	c #5565B9",
"E 	c #5E66B1",
"F 	c #FFC220",
"G 	c #F6A704",
"H 	c #DB9000",
"I 	c #B67B0C",
"J 	c #D69106",
"K 	c #F9AD05",
"L 	c #FFC008",
"M 	c #FFCF08",
"N 	c #F1D116",
"O 	c #EDEB9A",
"P 	c #F0DC17",
"Q 	c #FFE908",
"R 	c #FFEB0A",
"S 	c #FFEA0B",
"T 	c #FFE609",
"U 	c #F0D417",
"V 	c #EDE99A",
"W 	c #F1C316",
"X 	c #FFBE08",
"Y 	c #FDAF06",
"Z 	c #ED9D02",
"` 	c #C78401",
" .	c #E59802",
"..	c #FDB307",
"+.	c #FFDB08",
"@.	c #FFE308",
"#.	c #FFE809",
"$.	c #FFF217",
"%.	c #FDF22E",
"&.	c #FDF232",
"*.	c #FFF11A",
"=.	c #FFE10A",
"-.	c #FFD808",
";.	c #FFCE08",
">.	c #FFC208",
",.	c #F6A504",
"'.	c #D78E00",
").	c #AA791B",
"!.	c #BE8008",
"~.	c #EA9C02",
"{.	c #FEB507",
"].	c #FFC608",
"^.	c #FFD108",
"/.	c #FFDA08",
"(.	c #FFE208",
"_.	c #FFEA0C",
":.	c #FDEE2E",
"<.	c #EFB247",
"[.	c #EFB24D",
"}.	c #FDEE39",
"|.	c #FFE40E",
"1.	c #FFCD08",
"2.	c #FFC308",
"3.	c #FFB808",
"4.	c #F9A904",
"5.	c #DF9300",
"6.	c #AD7B17",
"7.	c #BC8313",
"8.	c #EC9B02",
"9.	c #FEB307",
"0.	c #FFE70C",
"a.	c #FBE326",
"b.	c #EB9F38",
"c.	c #EB9F3B",
"d.	c #FBE32E",
"e.	c #FFE00E",
"f.	c #FFD308",
"g.	c #FBAA04",
"h.	c #E29400",
"i.	c #AD7916",
"j.	c #B77F13",
"k.	c #E69801",
"l.	c #FFD908",
"m.	c #FFDF09",
"n.	c #FFEB17",
"o.	c #FADD29",
"p.	c #FADD2D",
"q.	c #FFE91B",
"r.	c #FFD80A",
"s.	c #FAC809",
"t.	c #CF8612",
"u.	c #FFB708",
"v.	c #E09300",
"w.	c #AB7716",
"x.	c #AE760B",
"y.	c #DA9000",
"z.	c #F7A704",
"A.	c #FFCC08",
"B.	c #FFDB09",
"C.	c #FFDF0D",
"D.	c #FFDD0D",
"E.	c #FFD70A",
"F.	c #FFD008",
"G.	c #B76219",
"H.	c #C55721",
"I.	c #FFBC08",
"J.	c #FFB308",
"K.	c #F5A403",
"L.	c #D99000",
"M.	c #A97717",
"N.	c #C88400",
"O.	c #EB9D01",
"P.	c #FDAE06",
"Q.	c #FFBA08",
"R.	c #C17415",
"S.	c #A64C1B",
"T.	c #C04726",
"U.	c #F7AE0D",
"V.	c #FFB908",
"W.	c #FDAD06",
"X.	c #EE9D01",
"Y.	c #CE8800",
"Z.	c #A2751E",
"`.	c #AE7407",
" +	c #D68E00",
".+	c #F1A102",
"++	c #FCAD06",
"@+	c #FBC009",
"#+	c #C37016",
"$+	c #C84728",
"%+	c #DB4E2C",
"&+	c #FBB40B",
"*+	c #FEAF07",
"=+	c #F5A303",
"-+	c #DE9300",
";+	c #B97C04",
">+	c #99690C",
",+	c #B97A01",
"'+	c #D98F00",
")+	c #EE9E02",
"!+	c #FAA905",
"~+	c #FDB007",
"{+	c #FBB109",
"]+	c #E89C0D",
"^+	c #C76E16",
"/+	c #BB4A23",
"(+	c #F19F10",
"_+	c #FDAE07",
":+	c #F7A504",
"<+	c #E59700",
"[+	c #C88501",
"}+	c #A57212",
"|+	c #9F6B05",
"1+	c #B87A00",
"2+	c #D38B00",
"3+	c #E69700",
"4+	c #F09F02",
"5+	c #E7900A",
"6+	c #AC3725",
"7+	c #BF4A22",
"8+	c #EE9311",
"9+	c #FEB106",
"0+	c #F2A102",
"a+	c #E39600",
"b+	c #CC8700",
"c+	c #B17603",
"d+	c #946509",
"e+	c #AF7400",
"f+	c #C58200",
"g+	c #D58C00",
"h+	c #DC8A04",
"i+	c #DD6A19",
"j+	c #E8830F",
"k+	c #F4A102",
"l+	c #F3A102",
"m+	c #F09E01",
"n+	c #E89900",
"o+	c #C78400",
"p+	c #AB7408",
"q+	c #8D5E04",
"r+	c #9F6A01",
"s+	c #B57800",
"t+	c #C68200",
"u+	c #D18A00",
"v+	c #DA8F00",
"w+	c #CA8600",
"x+	c #A97004",
"y+	c #825908",
"z+	c #8D5F06",
"A+	c #9F6900",
"B+	c #AD7100",
"C+	c #B47700",
"D+	c #B57700",
"E+	c #AF7200",
"F+	c #A06C04",
"G+	c #976910",
"H+	c #876218",
"I+	c #8E6924",
"J+	c #8C651B",
"              . + @ # $ %               ",
"          & * = - ; > , ' ) !           ",
"      ~ { ] ^ / ( _ ( : < [ } | 1       ",
"      2 3 4 5 6 7 7 8 9 0 a b } c d     ",
"    e f g h i j k l m n j i o p q r     ",
"  s t u v w x y z A B C D x E F G H I   ",
"  J K L M N O P Q R S T U V W X Y Z `   ",
"   ...: 9 +.@.#.$.%.&.*.=.-.;.>.; ,.'.).",
"!.~.{.].^./.(._.:.<.[.}.|.7 1.2.3.4.5.6.",
"7.8.9.2.M 7 m 0.a.b.c.d.e.f.1.2.3.g.h.i.",
"j.k.Y X _ 9 l.m.n.o.p.q.r.s.t.X u.4.v.w.",
"x.y.z.u.2.A.9 7 B.C.D.E.F.G.H.I.J.K.L.M.",
"  N.O.P.Q./ _ M ^.^.M R.S.T.U.V.W.X.Y.Z.",
"  `. +.+++u.< 2.: @+#+$+%+&+3.*+=+-+;+  ",
"  >+,+'+)+!+~+{+]+^+/+(+V.; _+:+<+[+}+  ",
"    |+1+2+3+4+5+6+7+8+9+W.!+0+a+b+c+    ",
"      d+e+f+g+h+i+j+k+l+m+n+H o+p+      ",
"        q+r+s+t+u+'.H v+g+w+,+x+        ",
"          y+z+A+B+C+1+D+E+F+G+          ",
"                H+I+I+J+                "};
