/* XPM */
static char * quiet20_xpm[] = {
"20 20 247 2",
"  	c None",
". 	c #D29823",
"+ 	c #DC9B1A",
"@ 	c #DC9C1E",
"# 	c #DB9B1E",
"$ 	c #D8971A",
"% 	c #CE9528",
"& 	c #DB950E",
"* 	c #EBA007",
"= 	c #F9AB05",
"- 	c #FDB207",
"; 	c #FFB508",
"> 	c #FEB408",
", 	c #FBAF06",
"' 	c #F4A603",
") 	c #E29907",
"! 	c #CD9017",
"~ 	c #CC9016",
"{ 	c #E19A0B",
"] 	c #F7AA06",
"^ 	c #FFCE41",
"/ 	c #FFC408",
"( 	c #FFC908",
"_ 	c #FFCA08",
": 	c #FFC508",
"< 	c #FFBD08",
"[ 	c #FCC840",
"} 	c #EEA003",
"| 	c #D08D07",
"1 	c #B67F0E",
"2 	c #E29908",
"3 	c #F9AD06",
"4 	c #AB8B5C",
"5 	c #949DBA",
"6 	c #A69661",
"7 	c #FFD708",
"8 	c #FFD608",
"9 	c #FFD208",
"0 	c #A69261",
"a 	c #939CBA",
"b 	c #A9845B",
"c 	c #CC8904",
"d 	c #B17B12",
"e 	c #E19604",
"f 	c #F8AB06",
"g 	c #FFD650",
"h 	c #5E6CC1",
"i 	c #15205D",
"j 	c #5567C5",
"k 	c #FFED55",
"l 	c #FFE008",
"m 	c #FFDE08",
"n 	c #FFEA55",
"o 	c #5E6BC1",
"p 	c #FCCD4F",
"q 	c #E79A02",
"r 	c #C28208",
"s 	c #C88B10",
"t 	c #EEA004",
"u 	c #FEB807",
"v 	c #FFD120",
"w 	c #5E69B1",
"x 	c #283CAE",
"y 	c #5566B9",
"z 	c #FFEA22",
"A 	c #FFE608",
"B 	c #FFE508",
"C 	c #FFE622",
"D 	c #5565B9",
"E 	c #5E66B1",
"F 	c #FFC220",
"G 	c #F6A704",
"H 	c #DB9000",
"I 	c #B67B0C",
"J 	c #D69106",
"K 	c #F9AD05",
"L 	c #FFC008",
"M 	c #FFCF08",
"N 	c #F1D116",
"O 	c #EDEB9A",
"P 	c #F0DC17",
"Q 	c #FFE908",
"R 	c #FFEB0A",
"S 	c #FFEA0B",
"T 	c #FFE609",
"U 	c #F0D417",
"V 	c #EDE99A",
"W 	c #F1C316",
"X 	c #FFBE08",
"Y 	c #FDAF06",
"Z 	c #ED9D02",
"` 	c #C78401",
" .	c #E59802",
"..	c #FDB307",
"+.	c #FFDB08",
"@.	c #FFE308",
"#.	c #FFE809",
"$.	c #FFF217",
"%.	c #FDF22E",
"&.	c #FDF232",
"*.	c #FFF11A",
"=.	c #FFE10A",
"-.	c #FFD808",
";.	c #FFCE08",
">.	c #FFC208",
",.	c #F6A504",
"'.	c #D78E00",
").	c #AA791B",
"!.	c #BE8008",
"~.	c #EA9C02",
"{.	c #FEB507",
"].	c #FFC608",
"^.	c #FFD108",
"/.	c #FFDA08",
"(.	c #FFE208",
"_.	c #FFEA0C",
":.	c #FDEE2E",
"<.	c #EFB247",
"[.	c #EFB24D",
"}.	c #FDEE39",
"|.	c #FFE40E",
"1.	c #FFCD08",
"2.	c #FFC308",
"3.	c #FFB808",
"4.	c #F9A904",
"5.	c #DF9300",
"6.	c #AD7B17",
"7.	c #BC8313",
"8.	c #EC9B02",
"9.	c #FEB307",
"0.	c #FFE70C",
"a.	c #FBE326",
"b.	c #EB9F38",
"c.	c #EB9F3B",
"d.	c #FBE32E",
"e.	c #FFE00E",
"f.	c #FFD308",
"g.	c #FFCC08",
"h.	c #FBAA04",
"i.	c #E29400",
"j.	c #AD7916",
"k.	c #B77F13",
"l.	c #E69801",
"m.	c #FFD908",
"n.	c #FFDF09",
"o.	c #FFEB17",
"p.	c #FADD29",
"q.	c #FADD2D",
"r.	c #FFE91B",
"s.	c #FFD80A",
"t.	c #FFB708",
"u.	c #E09300",
"v.	c #AB7716",
"w.	c #AE760B",
"x.	c #DA9000",
"y.	c #F7A704",
"z.	c #FDCD09",
"A.	c #00000D",
"B.	c #FFDB09",
"C.	c #FFDF0D",
"D.	c #FFDD0D",
"E.	c #FFD70A",
"F.	c #FDC809",
"G.	c #FFB308",
"H.	c #F5A403",
"I.	c #D99000",
"J.	c #A97717",
"K.	c #C88400",
"L.	c #EB9D01",
"M.	c #FDAE06",
"N.	c #FFBA08",
"O.	c #E15E29",
"P.	c #E15D29",
"Q.	c #FFC108",
"R.	c #FFB908",
"S.	c #FDAD06",
"T.	c #EE9D01",
"U.	c #CE8800",
"V.	c #A2751E",
"W.	c #AE7407",
"X.	c #D68E00",
"Y.	c #F1A102",
"Z.	c #FCAD06",
"`.	c #DD9310",
" +	c #DD9410",
".+	c #FEAF07",
"++	c #F5A303",
"@+	c #DE9300",
"#+	c #B97C04",
"$+	c #99690C",
"%+	c #B97A01",
"&+	c #D98F00",
"*+	c #EE9E02",
"=+	c #FAA905",
"-+	c #FDB007",
";+	c #FCB109",
">+	c #DA7F15",
",+	c #DA8015",
"'+	c #FDB409",
")+	c #FDAE07",
"!+	c #F7A504",
"~+	c #E59700",
"{+	c #C88501",
"]+	c #A57212",
"^+	c #9F6B05",
"/+	c #B87A00",
"(+	c #D38B00",
"_+	c #E69700",
":+	c #F09E03",
"<+	c #E66620",
"[+	c #E76721",
"}+	c #FAA805",
"|+	c #F2A102",
"1+	c #E39600",
"2+	c #CC8700",
"3+	c #B17603",
"4+	c #946509",
"5+	c #AF7400",
"6+	c #C58200",
"7+	c #D58A01",
"8+	c #EB9C00",
"9+	c #F0A001",
"0+	c #F3A102",
"a+	c #E79701",
"b+	c #C78400",
"c+	c #AB7408",
"d+	c #8D5E04",
"e+	c #9F6A01",
"f+	c #B57800",
"g+	c #C68200",
"h+	c #D18A00",
"i+	c #DA8F00",
"j+	c #D58C00",
"k+	c #CA8600",
"l+	c #A97004",
"m+	c #825908",
"n+	c #8D5F06",
"o+	c #9F6900",
"p+	c #AD7100",
"q+	c #B47700",
"r+	c #B57700",
"s+	c #AF7200",
"t+	c #A06C04",
"u+	c #976910",
"v+	c #876218",
"w+	c #8E6924",
"x+	c #8C651B",
"              . + @ # $ %               ",
"          & * = - ; > , ' ) !           ",
"      ~ { ] ^ / ( _ ( : < [ } | 1       ",
"      2 3 4 5 6 7 7 8 9 0 a b } c d     ",
"    e f g h i j k l m n j i o p q r     ",
"  s t u v w x y z A B C D x E F G H I   ",
"  J K L M N O P Q R S T U V W X Y Z `   ",
"   ...: 9 +.@.#.$.%.&.*.=.-.;.>.; ,.'.).",
"!.~.{.].^./.(._.:.<.[.}.|.7 1.2.3.4.5.6.",
"7.8.9.2.M 7 m 0.a.b.c.d.e.f.g.2.3.h.i.j.",
"k.l.Y X _ 9 m.n.o.p.q.r.s.M _ >.t.4.u.v.",
"w.x.y.t.2.g.z.A.B.C.D.E.A.F.].X G.H.I.J.",
"  K.L.M.N./ ( A.A.O.P.A.A.].Q.R.S.T.U.V.",
"  W.X.Y.Z.t.< >.`.A.A. +Q.X 3..+++@+#+  ",
"  $+%+&+*+=+-+;+>+A.A.,+'+; )+!+~+{+]+  ",
"    ^+/+(+_+:+A.A.<+[+A.A.}+|+1+2+3+    ",
"      4+5+6+7+A.8+9+0+0+A.a+H b+c+      ",
"        d+e+f+g+h+'.H i+j+k+%+l+        ",
"          m+n+o+p+q+/+r+s+t+u+          ",
"                v+w+w+x+                "};
