/* XPM */
static char * shades20_xpm[] = {
"20 20 216 2",
"  	c None",
". 	c #D29823",
"+ 	c #DC9B1A",
"@ 	c #DC9C1E",
"# 	c #DB9B1E",
"$ 	c #D8971A",
"% 	c #CE9528",
"& 	c #000000",
"* 	c #DB950E",
"= 	c #EBA007",
"- 	c #F9AB05",
"; 	c #FDB207",
"> 	c #FFB508",
", 	c #FEB408",
"' 	c #FBAF06",
") 	c #F4A603",
"! 	c #E29907",
"~ 	c #CD9017",
"{ 	c #CC9016",
"] 	c #B67F0E",
"^ 	c #E29908",
"/ 	c #FFD708",
"( 	c #FFD608",
"_ 	c #CC8904",
": 	c #B17B12",
"< 	c #E19604",
"[ 	c #F8AB06",
"} 	c #FFE008",
"| 	c #FFDE08",
"1 	c #E79A02",
"2 	c #C28208",
"3 	c #C88B10",
"4 	c #EEA004",
"5 	c #FEB807",
"6 	c #FFE608",
"7 	c #FFE508",
"8 	c #FFE108",
"9 	c #FFB808",
"0 	c #F6A704",
"a 	c #DB9000",
"b 	c #B67B0C",
"c 	c #D69106",
"d 	c #F9AD05",
"e 	c #FFC008",
"f 	c #FFCF08",
"g 	c #FFDB08",
"h 	c #FFE208",
"i 	c #FFE708",
"j 	c #FFE908",
"k 	c #FFEB0A",
"l 	c #FFEA0B",
"m 	c #FFE609",
"n 	c #FFDF08",
"o 	c #FFCB08",
"p 	c #FFBE08",
"q 	c #FDAF06",
"r 	c #ED9D02",
"s 	c #C78401",
"t 	c #E59802",
"u 	c #FDB307",
"v 	c #FFC508",
"w 	c #FFD208",
"x 	c #FFE308",
"y 	c #FFE809",
"z 	c #FFF217",
"A 	c #FDF22E",
"B 	c #FDF232",
"C 	c #FFF11A",
"D 	c #FFE10A",
"E 	c #FFD808",
"F 	c #FFCE08",
"G 	c #FFC208",
"H 	c #F6A504",
"I 	c #D78E00",
"J 	c #AA791B",
"K 	c #BE8008",
"L 	c #EA9C02",
"M 	c #FEB507",
"N 	c #FFC608",
"O 	c #FFD108",
"P 	c #FFDA08",
"Q 	c #FFEA0C",
"R 	c #FDEE2E",
"S 	c #EFB247",
"T 	c #EFB24D",
"U 	c #FDEE39",
"V 	c #FFE40E",
"W 	c #FFCD08",
"X 	c #FFC308",
"Y 	c #F9A904",
"Z 	c #DF9300",
"` 	c #AD7B17",
" .	c #BC8313",
"..	c #EC9B02",
"+.	c #FEB307",
"@.	c #FFE70C",
"#.	c #FBE326",
"$.	c #EB9F38",
"%.	c #EB9F3B",
"&.	c #FBE32E",
"*.	c #FFE00E",
"=.	c #FFD308",
"-.	c #FFCC08",
";.	c #FBAA04",
">.	c #E29400",
",.	c #AD7916",
"'.	c #B77F13",
").	c #E69801",
"!.	c #FD8408",
"~.	c #FEBB08",
"{.	c #FFD908",
"].	c #FFDF09",
"^.	c #FFEB17",
"/.	c #FADD29",
"(.	c #FADD2D",
"_.	c #FFE91B",
":.	c #FFD80A",
"<.	c #FD7E08",
"[.	c #FFB708",
"}.	c #E09300",
"|.	c #AB7716",
"1.	c #AE760B",
"2.	c #DA9000",
"3.	c #F7A704",
"4.	c #FB4708",
"5.	c #FA3C09",
"6.	c #FFDB09",
"7.	c #FFDF0D",
"8.	c #FFDD0D",
"9.	c #FFD70A",
"0.	c #FFD008",
"a.	c #FFC108",
"b.	c #FA3A09",
"c.	c #FB4608",
"d.	c #FEAE07",
"e.	c #F5A403",
"f.	c #D99000",
"g.	c #A97717",
"h.	c #C88400",
"i.	c #EB9D01",
"j.	c #FAA803",
"k.	c #F94307",
"l.	c #FDA976",
"m.	c #FA3D15",
"n.	c #FA3009",
"o.	c #FA2F09",
"p.	c #FAA704",
"q.	c #EE9D01",
"r.	c #CE8800",
"s.	c #A2751E",
"t.	c #AE7407",
"u.	c #D68E00",
"v.	c #E89A00",
"w.	c #F33E06",
"x.	c #FECA8D",
"y.	c #2B2B21",
"z.	c #D4CC8F",
"A.	c #55533C",
"B.	c #958F66",
"C.	c #F53F06",
"D.	c #ED9D00",
"E.	c #DE9300",
"F.	c #B97C04",
"G.	c #99690C",
"H.	c #B97A01",
"I.	c #D08A00",
"J.	c #EC3906",
"K.	c #212C22",
"L.	c #D3D595",
"M.	c #4E563F",
"N.	c #90956A",
"O.	c #F03C06",
"P.	c #DD9200",
"Q.	c #C88501",
"R.	c #A57212",
"S.	c #9F6B05",
"T.	c #B87A00",
"U.	c #DC5104",
"V.	c #F8925F",
"W.	c #21241D",
"X.	c #FA935F",
"Y.	c #E75804",
"Z.	c #CC8700",
"`.	c #B17603",
" +	c #946509",
".+	c #AF7400",
"++	c #D24D04",
"@+	c #85170E",
"#+	c #E57552",
"$+	c #A03325",
"%+	c #C2543C",
"&+	c #87170E",
"*+	c #E15704",
"=+	c #C78400",
"-+	c #AB7408",
";+	c #8D5E04",
">+	c #9F6A01",
",+	c #C74E03",
"'+	c #D35004",
")+	c #DA5504",
"!+	c #DC5704",
"~+	c #D35603",
"{+	c #A97004",
"]+	c #825908",
"^+	c #8D5F06",
"/+	c #9F6900",
"(+	c #AD7100",
"_+	c #B47700",
":+	c #B67900",
"<+	c #B37600",
"[+	c #AB7000",
"}+	c #A06C04",
"|+	c #976910",
"1+	c #876218",
"2+	c #8E6924",
"3+	c #8C651B",
"              . + @ # $ %               ",
"      &   * = - ; > , ' ) ! ~   &       ",
"      { & & & & & & & & & & & & ]       ",
"      ^ & & & & & / ( & & & & & _ :     ",
"    < [ & & & & & } | & & & & & 1 2     ",
"  3 4 5 5 & & & 6 6 7 8 & & & 9 0 a b   ",
"  c d e f g h i j k l m n ( o p q r s   ",
"  t u v w g x y z A B C D E F G > H I J ",
"K L M N O P h Q R S T U V / W X 9 Y Z ` ",
" ...+.X f / | @.#.$.%.&.*.=.-.X 9 ;.>.,.",
"'.).q p !.~.{.].^./.(._.:.f , <.[.Y }.|.",
"1.2.3.+.4.5.N / 6.7.8.9.0.a.b.c.d.e.f.g.",
"  h.i.j.k.l.m.n.n.n.n.o.o.m.l.k.p.q.r.s.",
"  t.u.v.w.x.y.z.A.B.B.A.z.y.x.C.D.E.F.  ",
"  G.H.I.J.x.K.L.M.N.N.M.L.K.x.O.P.Q.R.  ",
"    S.T.U.V.W.L.M.N.N.M.L.W.X.Y.Z.`.    ",
"       +.+++@+#+$+%+%+$+#+&+*+=+-+      ",
"        ;+>+,+'+)+!+!+)+'+~+H.{+        ",
"          ]+^+/+(+_+:+<+[+}+|+          ",
"                1+2+2+3+                "};
