/* XPM */
static char * shocked20_xpm[] = {
"20 20 255 2",
"  	c None",
". 	c #D29823",
"+ 	c #DC9B1A",
"@ 	c #DC9C1E",
"# 	c #DB9B1E",
"$ 	c #D8971A",
"% 	c #CE9528",
"& 	c #DB950E",
"* 	c #EBA007",
"= 	c #F9AB05",
"- 	c #FDB207",
"; 	c #FFB508",
"> 	c #FEB408",
", 	c #FBAF06",
"' 	c #F4A603",
") 	c #E29907",
"! 	c #CD9017",
"~ 	c #CC9016",
"{ 	c #E19A0B",
"] 	c #F7AA06",
"^ 	c #FFCE41",
"/ 	c #FFC408",
"( 	c #FFC908",
"_ 	c #FFCA08",
": 	c #FFC508",
"< 	c #FFBD08",
"[ 	c #FCC840",
"} 	c #EEA003",
"| 	c #D08D07",
"1 	c #B67F0E",
"2 	c #E29908",
"3 	c #F9AD06",
"4 	c #AB8B5C",
"5 	c #949DBA",
"6 	c #A69661",
"7 	c #FFD708",
"8 	c #FFD608",
"9 	c #FFD208",
"0 	c #A69261",
"a 	c #939CBA",
"b 	c #A9845B",
"c 	c #CC8904",
"d 	c #B17B12",
"e 	c #E19604",
"f 	c #F8AB06",
"g 	c #FFD650",
"h 	c #5E6CC1",
"i 	c #15205D",
"j 	c #5567C5",
"k 	c #FFED55",
"l 	c #FFE008",
"m 	c #FFDE08",
"n 	c #FFEA55",
"o 	c #5E6BC1",
"p 	c #FCCD4F",
"q 	c #E79A02",
"r 	c #C28208",
"s 	c #C88B10",
"t 	c #EEA004",
"u 	c #FEB807",
"v 	c #FFD120",
"w 	c #5E69B1",
"x 	c #283CAE",
"y 	c #5566B9",
"z 	c #FFEA22",
"A 	c #FFE608",
"B 	c #FFE508",
"C 	c #FFE622",
"D 	c #5565B9",
"E 	c #5E66B1",
"F 	c #FFC220",
"G 	c #F6A704",
"H 	c #DB9000",
"I 	c #B67B0C",
"J 	c #D69106",
"K 	c #F9AD05",
"L 	c #FFC008",
"M 	c #FFCF08",
"N 	c #F1D116",
"O 	c #EDEB9A",
"P 	c #F0DC17",
"Q 	c #FFE908",
"R 	c #FFEB0A",
"S 	c #FFEA0B",
"T 	c #FFE609",
"U 	c #F0D417",
"V 	c #EDE99A",
"W 	c #F1C316",
"X 	c #FFBE08",
"Y 	c #FDAF06",
"Z 	c #ED9D02",
"` 	c #C78401",
" .	c #E59802",
"..	c #FDB307",
"+.	c #FFDB08",
"@.	c #FFE308",
"#.	c #FFE809",
"$.	c #FFF217",
"%.	c #FDF22E",
"&.	c #FDF232",
"*.	c #FFF11A",
"=.	c #FFE10A",
"-.	c #FFD808",
";.	c #FFCE08",
">.	c #FFC208",
",.	c #F6A504",
"'.	c #D78E00",
").	c #AA791B",
"!.	c #BE8008",
"~.	c #EA9C02",
"{.	c #FEB507",
"].	c #FFC608",
"^.	c #FFD108",
"/.	c #FFDA08",
"(.	c #FFE208",
"_.	c #FFEA0C",
":.	c #FDEE2E",
"<.	c #EFB247",
"[.	c #EFB24D",
"}.	c #FDEE39",
"|.	c #FFE40E",
"1.	c #FFCD08",
"2.	c #FFC308",
"3.	c #FFB808",
"4.	c #F9A904",
"5.	c #DF9300",
"6.	c #AD7B17",
"7.	c #BC8313",
"8.	c #EC9B02",
"9.	c #FEB307",
"0.	c #FFE70C",
"a.	c #FBE326",
"b.	c #EB9F38",
"c.	c #EB9F3B",
"d.	c #FBE32E",
"e.	c #FFE00E",
"f.	c #FFD308",
"g.	c #FFCC08",
"h.	c #FBAA04",
"i.	c #E29400",
"j.	c #AD7916",
"k.	c #B77F13",
"l.	c #E69801",
"m.	c #FFD908",
"n.	c #FFDF09",
"o.	c #FFEB17",
"p.	c #FADD29",
"q.	c #FADD2D",
"r.	c #FFE91B",
"s.	c #FFD80A",
"t.	c #FFB708",
"u.	c #E09300",
"v.	c #AB7716",
"w.	c #AE760B",
"x.	c #DA9000",
"y.	c #F7A704",
"z.	c #FFDB09",
"A.	c #FFDF0D",
"B.	c #FFDD0D",
"C.	c #FFD70A",
"D.	c #FFD008",
"E.	c #FFB308",
"F.	c #F5A403",
"G.	c #D99000",
"H.	c #A97717",
"I.	c #C88400",
"J.	c #EB9D01",
"K.	c #FDAE06",
"L.	c #FFBA08",
"M.	c #F7BA0D",
"N.	c #C25622",
"O.	c #A64D1B",
"P.	c #C25522",
"Q.	c #F7B60D",
"R.	c #FFC708",
"S.	c #FFC108",
"T.	c #FFB908",
"U.	c #FDAD06",
"V.	c #EE9D01",
"W.	c #CE8800",
"X.	c #A2751E",
"Y.	c #AE7407",
"Z.	c #D68E00",
"`.	c #F1A102",
" +	c #FCAD06",
".+	c #FCB809",
"++	c #BC4027",
"@+	c #B96559",
"#+	c #F9E2E0",
"$+	c #FCB909",
"%+	c #FEAF07",
"&+	c #F5A303",
"*+	c #DE9300",
"=+	c #B97C04",
"-+	c #99690C",
";+	c #B97A01",
">+	c #D98F00",
",+	c #EE9E02",
"'+	c #FAA905",
")+	c #F9AB08",
"!+	c #A32D1B",
"~+	c #EF1C09",
"{+	c #FAAF09",
"]+	c #FDAE07",
"^+	c #F7A504",
"/+	c #E59700",
"(+	c #C88501",
"_+	c #A57212",
":+	c #9F6B05",
"<+	c #B87A00",
"[+	c #D38B00",
"}+	c #E69700",
"|+	c #ED9B03",
"1+	c #AC3220",
"2+	c #DA3928",
"3+	c #F56B5F",
"4+	c #F7A406",
"5+	c #F2A102",
"6+	c #E39600",
"7+	c #CC8700",
"8+	c #B17603",
"9+	c #946509",
"0+	c #AF7400",
"a+	c #C58200",
"b+	c #D58A01",
"c+	c #C65C19",
"d+	c #B45647",
"e+	c #CB9C94",
"f+	c #CC6019",
"g+	c #E79701",
"h+	c #C78400",
"i+	c #AB7408",
"j+	c #8D5E04",
"k+	c #9F6A01",
"l+	c #B57800",
"m+	c #C47D03",
"n+	c #C0670F",
"o+	c #B6650C",
"p+	c #B9670C",
"q+	c #C66A0F",
"r+	c #D28603",
"s+	c #CA8600",
"t+	c #A97004",
"u+	c #825908",
"v+	c #8D5F06",
"w+	c #9F6900",
"x+	c #AD7100",
"y+	c #B47700",
"z+	c #B57700",
"A+	c #AF7200",
"B+	c #A06C04",
"C+	c #976910",
"D+	c #876218",
"E+	c #8E6924",
"F+	c #8C651B",
"              . + @ # $ %               ",
"          & * = - ; > , ' ) !           ",
"      ~ { ] ^ / ( _ ( : < [ } | 1       ",
"      2 3 4 5 6 7 7 8 9 0 a b } c d     ",
"    e f g h i j k l m n j i o p q r     ",
"  s t u v w x y z A B C D x E F G H I   ",
"  J K L M N O P Q R S T U V W X Y Z `   ",
"   ...: 9 +.@.#.$.%.&.*.=.-.;.>.; ,.'.).",
"!.~.{.].^./.(._.:.<.[.}.|.7 1.2.3.4.5.6.",
"7.8.9.2.M 7 m 0.a.b.c.d.e.f.g.2.3.h.i.j.",
"k.l.Y X _ 9 m.n.o.p.q.r.s.M _ >.t.4.u.v.",
"w.x.y.t.2.g.9 7 z.A.B.C.D.g.].X E.F.G.H.",
"  I.J.K.L./ _ M.N.O.O.P.Q.R.S.T.U.V.W.X.",
"  Y.Z.`. +t..+++@+#+#+@+++$+3.%+&+*+=+  ",
"  -+;+>+,+'+)+!+~+~+~+~+!+{+]+^+/+(+_+  ",
"    :+<+[+}+|+1+2+3+3+2+1+4+5+6+7+8+    ",
"      9+0+a+b+c+d+e+e+d+f+g+H h+i+      ",
"        j+k+l+m+n+o+p+q+r+s+;+t+        ",
"          u+v+w+x+y+<+z+A+B+C+          ",
"                D+E+E+F+                "};
