/* XPM */
static char * wink20_xpm[] = {
"20 20 254 2",
"  	c None",
". 	c #D29823",
"+ 	c #DC9B1A",
"@ 	c #DC9C1E",
"# 	c #DB9B1E",
"$ 	c #D8971A",
"% 	c #CE9528",
"& 	c #DB950E",
"* 	c #EBA007",
"= 	c #F9AB05",
"- 	c #FDB207",
"; 	c #FFB508",
"> 	c #FEB408",
", 	c #FBAF06",
"' 	c #F4A603",
") 	c #E29907",
"! 	c #CD9017",
"~ 	c #CC9016",
"{ 	c #E19A0B",
"] 	c #F7BF3A",
"^ 	c #FFBC0D",
"/ 	c #FFC408",
"( 	c #FFC908",
"_ 	c #FFCA08",
": 	c #FFC508",
"< 	c #FFBD08",
"[ 	c #FCB107",
"} 	c #EEA003",
"| 	c #D08D07",
"1 	c #B67F0E",
"2 	c #E29908",
"3 	c #B3874C",
"4 	c #9398B3",
"5 	c #988A76",
"6 	c #FFD308",
"7 	c #FFD708",
"8 	c #FFD608",
"9 	c #FFD208",
"0 	c #FFCC08",
"a 	c #C19D3A",
"b 	c #FDB307",
"c 	c #CC8904",
"d 	c #B17B12",
"e 	c #E19604",
"f 	c #F8C33F",
"g 	c #787FB5",
"h 	c #182469",
"i 	c #374DC6",
"j 	c #FFEE64",
"k 	c #FFE008",
"l 	c #FFDE08",
"m 	c #C1AD3A",
"n 	c #665610",
"o 	c #36342B",
"p 	c #BA9741",
"q 	c #FCB006",
"r 	c #E79A02",
"s 	c #C28208",
"t 	c #C88B10",
"u 	c #EEA004",
"v 	c #FEC01A",
"w 	c #79789B",
"x 	c #293DB2",
"y 	c #3950CB",
"z 	c #FFE927",
"A 	c #FFE608",
"B 	c #8E7F04",
"C 	c #232113",
"D 	c #515151",
"E 	c #C5A40C",
"F 	c #E8BA1B",
"G 	c #FFB808",
"H 	c #F6A704",
"I 	c #DB9000",
"J 	c #B67B0C",
"K 	c #D69106",
"L 	c #F9AD05",
"M 	c #FFC008",
"N 	c #F3C814",
"O 	c #EDE68E",
"P 	c #EED826",
"Q 	c #FFE708",
"R 	c #FFE908",
"S 	c #FFEB0A",
"T 	c #F2DF0B",
"U 	c #E9D208",
"V 	c #F1D410",
"W 	c #FED608",
"X 	c #FFCB08",
"Y 	c #FFBE08",
"Z 	c #FDAF06",
"` 	c #ED9D02",
" .	c #C78401",
"..	c #E59802",
"+.	c #FFDB08",
"@.	c #FFE308",
"#.	c #FFE809",
"$.	c #FFF218",
"%.	c #FFFB39",
"&.	c #FFFC3B",
"*.	c #FFF11A",
"=.	c #FFE10A",
"-.	c #FFD808",
";.	c #FFCE08",
">.	c #FFC208",
",.	c #F6A504",
"'.	c #D78E00",
").	c #AA791B",
"!.	c #BE8008",
"~.	c #EA9C02",
"{.	c #FEB507",
"].	c #FFC608",
"^.	c #FFD108",
"/.	c #FFDA08",
"(.	c #FFE208",
"_.	c #FEE30C",
":.	c #F9E041",
"<.	c #FFFF9B",
"[.	c #FFFA45",
"}.	c #FFE40E",
"|.	c #FFCD08",
"1.	c #FFC308",
"2.	c #F9A904",
"3.	c #DF9300",
"4.	c #AD7B17",
"5.	c #BC8313",
"6.	c #EC9B02",
"7.	c #FEB307",
"8.	c #FFCF08",
"9.	c #FFDC09",
"0.	c #F1B01E",
"a.	c #E99648",
"b.	c #F9E093",
"c.	c #FFF845",
"d.	c #FFE00E",
"e.	c #FBAA04",
"f.	c #E29400",
"g.	c #AD7916",
"h.	c #B77F13",
"i.	c #E69801",
"j.	c #FFD709",
"k.	c #F1AA1E",
"l.	c #E9922D",
"m.	c #F9D63C",
"n.	c #FFF545",
"o.	c #FFE91B",
"p.	c #FFD80A",
"q.	c #FFB708",
"r.	c #E09300",
"s.	c #AB7716",
"t.	c #AE760B",
"u.	c #DA9000",
"v.	c #F7A704",
"w.	c #FED20A",
"x.	c #F9C712",
"y.	c #FFDF0D",
"z.	c #FFDD0D",
"A.	c #FFD70A",
"B.	c #DD7E1C",
"C.	c #FDC809",
"D.	c #FFB308",
"E.	c #F5A403",
"F.	c #D99000",
"G.	c #A97717",
"H.	c #C88400",
"I.	c #EB9D01",
"J.	c #FDAE06",
"K.	c #FFBA08",
"L.	c #FFD008",
"M.	c #AD4D1D",
"N.	c #D05F22",
"O.	c #FFC108",
"P.	c #FFB908",
"Q.	c #FDAD06",
"R.	c #EE9D01",
"S.	c #CE8800",
"T.	c #A2751E",
"U.	c #AE7407",
"V.	c #D68E00",
"W.	c #F1A102",
"X.	c #FCAD06",
"Y.	c #F8BD09",
"Z.	c #A8491C",
"`.	c #CB5125",
" +	c #FBB00A",
".+	c #FEAF07",
"++	c #F5A303",
"@+	c #DE9300",
"#+	c #B97C04",
"$+	c #99690C",
"%+	c #B97A01",
"&+	c #D98F00",
"*+	c #E28F06",
"=+	c #F6A407",
"-+	c #FDB007",
";+	c #F5AC0A",
">+	c #E89E0D",
",+	c #B4541B",
"'+	c #C85123",
")+	c #F9A90B",
"!+	c #D9681C",
"~+	c #F7A504",
"{+	c #E59700",
"]+	c #C88501",
"^+	c #A57212",
"/+	c #9F6B05",
"(+	c #B87A00",
"_+	c #B05017",
":+	c #C76A10",
"<+	c #D57C0D",
"[+	c #D8800F",
"}+	c #D98310",
"|+	c #C26118",
"1+	c #A43523",
"2+	c #C8561F",
"3+	c #F6A00A",
"4+	c #FAA905",
"5+	c #F2A102",
"6+	c #E39600",
"7+	c #CC8700",
"8+	c #B17603",
"9+	c #946509",
"0+	c #AE5C0F",
"a+	c #B54024",
"b+	c #B53A27",
"c+	c #C44F20",
"d+	c #D66A16",
"e+	c #EA9108",
"f+	c #F09E01",
"g+	c #E89900",
"h+	c #C78400",
"i+	c #AB7408",
"j+	c #8D5E04",
"k+	c #AA5910",
"l+	c #BD5F13",
"m+	c #C86613",
"n+	c #CF6A13",
"o+	c #D57B0B",
"p+	c #DA8F00",
"q+	c #D58C00",
"r+	c #CA8600",
"s+	c #A97004",
"t+	c #825908",
"u+	c #8D5F06",
"v+	c #9F6900",
"w+	c #AD7100",
"x+	c #B47700",
"y+	c #B57700",
"z+	c #AF7200",
"A+	c #A06C04",
"B+	c #976910",
"C+	c #876218",
"D+	c #8E6924",
"E+	c #8C651B",
"              . + @ # $ %               ",
"          & * = - ; > , ' ) !           ",
"      ~ { ] ^ / ( _ ( : < [ } | 1       ",
"      2 3 4 5 6 7 7 8 9 0 a b } c d     ",
"    e f g h i j k k l m n o p q r s     ",
"  t u v w x y z A A B C D E F G H I J   ",
"  K L M N O P Q R S T U V W X Y Z `  .  ",
"  ..b : 9 +.@.#.$.%.&.*.=.-.;.>.; ,.'.).",
"!.~.{.].^./.(._.:.<.<.[.}.7 |.1.G 2.3.4.",
"5.6.7.1.8.7 9.0.a.b.<.c.d.6 0 1.G e.f.g.",
"h.i.Z Y _ 9 j.k.l.m.n.o.p.8._ >.q.2.r.s.",
"t.u.v.q.1.0 9 w.x.y.z.A.B.C.].Y D.E.F.G.",
"  H.I.J.K./ _ 8.L.^.8.|.M.N.O.P.Q.R.S.T.",
"  U.V.W.X.q.< 1.: : : Y.Z.`. +.+++@+#+  ",
"  $+%+&+*+=+-+; G ;+>+,+'+)+!+~+{+]+^+  ",
"    /+(+_+:+<+[+}+|+1+2+3+4+5+6+7+8+    ",
"      9+0+a+b+b+b+c+d+e+f+g+I h+i+      ",
"        j+k+l+m+n+o+I p+q+r+%+s+        ",
"          t+u+v+w+x+(+y+z+A+B+          ",
"                C+D+D+E+                "};
