/* XPM */
static char * grin_xpm[] = {
"17 16 4 1",
" 	c None",
".	c #000000",
"+	c #FFFFFF",
"@	c #455E5D",
"     ..          ",
"     ..   ..     ",
"          ..     ",
"                 ",
" ...             ",
" .......         ",
" ..+........     ",
" ..+++@+.......  ",
" ..@++@+++@+.... ",
" ..+@+@+++@+++.. ",
" ..++@@@@@@@@@.. ",
"  .+++@+++@+++.. ",
"   ..+@+++@++..  ",
"    ...+++@+...  ",
"     .........   ",
"       ......    "};
