/* XPM */
static const char * action_xpm[] = {
"24 24 115 2",
"  	c None",
". 	c #000000",
"+ 	c #111111",
"@ 	c #353535",
"# 	c #7B7B7B",
"$ 	c #B9B9B9",
"% 	c #ADADAD",
"& 	c #676767",
"* 	c #444444",
"= 	c #181818",
"- 	c #292929",
"; 	c #707070",
"> 	c #898989",
", 	c #AAAAAA",
"' 	c #D2D2D2",
") 	c #DEDEDE",
"! 	c #B7B7B7",
"~ 	c #363636",
"{ 	c #131313",
"] 	c #383838",
"^ 	c #2D2D2D",
"/ 	c #2C2C2C",
"( 	c #666666",
"_ 	c #BDBDBD",
": 	c #D9D9D9",
"< 	c #1F1F1F",
"[ 	c #161616",
"} 	c #0B0B0B",
"| 	c #030303",
"1 	c #0E0E0E",
"2 	c #171717",
"3 	c #767676",
"4 	c #C2C2C2",
"5 	c #C3C3C3",
"6 	c #040404",
"7 	c #0F0F0F",
"8 	c #565656",
"9 	c #BBBBBB",
"0 	c #D5D5D5",
"a 	c #3F3F3F",
"b 	c #656565",
"c 	c #B0B0B0",
"d 	c #CACACA",
"e 	c #202020",
"f 	c #8C8C8C",
"g 	c #A5A5A5",
"h 	c #B2B2B2",
"i 	c #505050",
"j 	c #262626",
"k 	c #1B1B1B",
"l 	c #6D6D6D",
"m 	c #848484",
"n 	c #8D8D8D",
"o 	c #CBCBCB",
"p 	c #2E2E2E",
"q 	c #121212",
"r 	c #151515",
"s 	c #1C1C1C",
"t 	c #333333",
"u 	c #5C5C5C",
"v 	c #A7A7A7",
"w 	c #A3A3A3",
"x 	c #BABABA",
"y 	c #191919",
"z 	c #0D0D0D",
"A 	c #9E9C9C",
"B 	c #303030",
"C 	c #ABABAB",
"D 	c #C4C4C4",
"E 	c #DBDBDB",
"F 	c #424242",
"G 	c #1D1D1D",
"H 	c #A9A9A9",
"I 	c #C5C5C5",
"J 	c #B6B6B6",
"K 	c #4C4C4C",
"L 	c #1E1E1E",
"M 	c #2F2F2F",
"N 	c #797979",
"O 	c #A6A6A6",
"P 	c #919191",
"Q 	c #6A6A6A",
"R 	c #969696",
"S 	c #999999",
"T 	c #D3D3D3",
"U 	c #C9C9C9",
"V 	c #5B5B5B",
"W 	c #747474",
"X 	c #8B8B8B",
"Y 	c #9D9D9D",
"Z 	c #373737",
"` 	c #737373",
" .	c #9A9A9A",
"..	c #AFAFAF",
"+.	c #D6D6D6",
"@.	c #4D4D4D",
"#.	c #7C7C7C",
"$.	c #4F4F4F",
"%.	c #696969",
"&.	c #626262",
"*.	c #5F5F5F",
"=.	c #545454",
"-.	c #818181",
";.	c #343434",
">.	c #222222",
",.	c #232323",
"'.	c #5D5D5D",
").	c #414141",
"!.	c #858585",
"~.	c #9C9C9C",
"{.	c #272727",
"].	c #393939",
"^.	c #252525",
"/.	c #0A0A0A",
"(.	c #848383",
"                                                ",
"        . . . .                                 ",
"    + @ # $ % & *                               ",
"  = - ; > , ' ) ! ~                             ",
"  { ] ^ = / ( _ : .                             ",
"  < [ } | 1 2 3 4 5 /                           ",
"          6 7 8 9 0 a                           ",
"            + b c d @ <                         ",
"          7 e f g h i j                         ",
"      7 k * l m m n o g p q                     ",
"    r s * 8 a j t u v w x & -                   ",
"      r y [ z A s B 3 C D E m F                 ",
"                  z G b m H I J K               ",
"                    L M N O P ! ! *             ",
"                      1 / Q R S T U *           ",
"                        e e V W X Y C *         ",
"                          k Z `  .c ..+.* A     ",
"                            j G @.#.#.$.V %.    ",
"                              s j &.*.=.b -.;.  ",
"                                >.,.m '.Q g ).  ",
"                                  s Z !.~.-.>.  ",
"                                    {.].^ ^./.  ",
"                                        (.      ",
"                                                "};
