/* XPM */
static const char * aim_away_xpm[] = {
"12 13 55 1",
" 	c None",
".	c #929292",
"+	c #97A8E3",
"@	c #97AAED",
"#	c #98ABED",
"$	c #9EA9DD",
"%	c #97A8E4",
"&	c #97A9E7",
"*	c #97A9EA",
"=	c #97AAEE",
"-	c #97ACF1",
";	c #98ABF0",
">	c #97A5D8",
",	c #96A6DD",
"'	c #97A7E1",
")	c #97A9EB",
"!	c #97ABEF",
"~	c #97ACF2",
"{	c #97ACF4",
"]	c #9AA9E1",
"^	c #96A4D7",
"/	c #96A5DA",
"(	c #96A6DE",
"_	c #97A9E8",
":	c #97AAEC",
"<	c #97AAEB",
"[	c #96A3D4",
"}	c #96A5DB",
"|	c #97A8E5",
"1	c #97A9E9",
"2	c #95A3D1",
"3	c #96A4D8",
"4	c #97A7E2",
"5	c #95A2CE",
"6	c #96A4D5",
"7	c #96A6DB",
"8	c #96A6DF",
"9	c #97A9E6",
"0	c #95A1CB",
"a	c #95A3D2",
"b	c #96A5D8",
"c	c #96A6DC",
"d	c #95A0C7",
"e	c #95A2CF",
"f	c #96A5D9",
"g	c #96A7E0",
"h	c #9BA6D6",
"i	c #969FC2",
"j	c #95A1CC",
"k	c #96A4D6",
"l	c #97A5D9",
"m	c #99A5CF",
"n	c #96A0C8",
"o	c #96A3D1",
"p	c #9BA3C7",
"     ..     ",
"   .+@#$.   ",
" ..%&*=-;.. ",
".>,'%&)!~{].",
".^/('%_:!~<.",
".[^}('|1:!*.",
".2[3}(4|1:&.",
".526378491%.",
".05a6bc8+9'.",
".d0ea6fcg+h.",
" .ijeakflm. ",
"  ..neop..  ",
"    ....    "};
