/* XPM */
static char * aim_online_xpm[] = {
"12 13 90 1",
" 	c None",
".	c #000000",
"+	c #0E34BF",
"@	c #0D3AD7",
"#	c #0F3BD7",
"$	c #1E38B0",
"%	c #0C34C0",
"&	c #0D36C8",
"*	c #0D38D0",
"=	c #0E3AD8",
"-	c #0E3DE0",
";	c #0F3CDC",
">	c #0C2DA6",
",	c #0B30B1",
"'	c #0C32B9",
")	c #0C34C1",
"!	c #0D37C9",
"~	c #0D38D2",
"{	c #0E3BDA",
"]	c #0E3DE1",
"^	c #0E3FE6",
"/	c #1537B9",
"(	c #0A2CA2",
"_	c #0B2EAA",
":	c #0B30B2",
"<	c #0C33BA",
"[	c #0C35C2",
"}	c #0D37CB",
"|	c #0D39D3",
"1	c #0E3DE2",
"2	c #0D39D2",
"3	c #0A2A9B",
"4	c #0A2CA3",
"5	c #0B2EAB",
"6	c #0B30B3",
"7	c #0C33BB",
"8	c #0C35C3",
"9	c #0D37CC",
"0	c #0E3BDB",
"a	c #0D38CE",
"b	c #092894",
"c	c #0A2A9C",
"d	c #0A2CA4",
"e	c #0B2EAC",
"f	c #0B31B4",
"g	c #0C33BC",
"h	c #0C35C4",
"i	c #0D38CC",
"j	c #0D39D4",
"k	c #09268D",
"l	c #092895",
"m	c #0A2B9D",
"n	c #0A2CA5",
"o	c #0B2FAD",
"p	c #0B31B5",
"q	c #0C33BD",
"r	c #0C36C5",
"s	c #0D38CD",
"t	c #082486",
"u	c #09268E",
"v	c #092996",
"w	c #0A2B9E",
"x	c #0A2DA6",
"y	c #0B2FAE",
"z	c #0B31B6",
"A	c #0C34BE",
"B	c #0C36C6",
"C	c #0C32BB",
"D	c #09227C",
"E	c #082487",
"F	c #09278F",
"G	c #092997",
"H	c #0A2B9F",
"I	c #0A2DA7",
"J	c #0B2FAF",
"K	c #0B32B7",
"L	c #0C34BF",
"M	c #1731A1",
"N	c #0B1F72",
"O	c #082588",
"P	c #092790",
"Q	c #092998",
"R	c #0A2CA0",
"S	c #0A2DA8",
"T	c #0C2EA8",
"U	c #112D90",
"V	c #0B2380",
"W	c #092791",
"X	c #0B2894",
"Y	c #17297E",
"     ..     ",
"   .+@#$.   ",
" ..%&*=-;.. ",
".>,')!~{]^/.",
".(_:<[}|{12.",
".3456789|0a.",
".bcdefghij&.",
".klmnopqrs).",
".tuvwxyzABC.",
".DEFGHIJKLM.",
" .NOPQRSTU. ",
"  ..VWXY..  ",
"    ....    "};
