/* XPM */
static char * angry_xpm[] = {
"16 16 19 1",
" 	c None",
".	c #000000000000",
"X	c #EFEF38382929",
"o	c #E7E730302121",
"O	c #DEDE30302121",
"+	c #D6D62C2C2121",
"@	c #CECE28281818",
"#	c #424200000808",
"$	c #CECE24241818",
"%	c #C6C620201818",
"&	c #BDBD1C1C1010",
"*	c #B5B51C1C1010",
"=	c #B5B518181010",
"-	c #FFFFFFFFFFFF",
";	c #00000000FFFF",
":	c #A5A514140808",
">	c #A5A510100808",
",	c #9C9C0C0C0808",
"<	c #949408080000",
"     ......     ",
"    .XXooO+.    ",
"  ..XXooO+@@..  ",
" .X#XooO+@@$#%. ",
" .XX..O+@@..%&. ",
".XXoo..@@..%&*=.",
".Xoo..@@$%..*==.",
".oo.-;.$%.;-.=:.",
".oO+..$%%&..=:>.",
".O+@@$%%&*==:>>.",
".+@@........>>,.",
" .@..........,. ",
" .$%%&*==:>>,<. ",
"  ..&*==:>>,..  ",
"    .==:>>,.    ",
"     ......     "};
