/* XPM */
static const char *ayttm_32x32[] = {
/* columns rows colors chars-per-pixel */
"32 32 13 1",
"  c black",
". c #191919",
"X c gray20",
"o c #7f7f00",
"O c #4c4c4c",
"+ c #666667",
"@ c gray50",
"# c yellow",
"$ c gray60",
"% c #b2b2b2",
"& c gray80",
"* c gray90",
"= c None",
/* pixels */
"===== = ..   =.OOO.= =XOX=  ====",
"====  =+O+X=  O%%@X=  +@@ = ====",
"====  =OO+$X=O$$&$O. +@+X=  ====",
"===== =.Oo$@=O@&#%+=O%%X.= =====",
"==== = =.@%&@O@&*%X.$&@X= = ====",
"===== = =X%&%@o@@+Oo*%O    =====",
"======   =+&&$@$$@+%&+.= = =====",
"======   =O&#&$@@+$*@X=   ======",
"=======  =.$#**%$&#&+.=  =======",
"========  =+&&#*#&*&O=   =======",
"========  =.%&&**&&$.=  ========",
"========  = @*##*#*+ =  ========",
"========= = +&&&&*&o = =========",
"========= = O&*#&#*O=  =========",
"=========  =.%#&*#&o = =========",
"========== =.%*&&&&X = =========",
"=========  =.%*##&#+ = =========",
"=========  =.%*&*&*+=  =========",
"=========  =.%*&*#&o=  =========",
"=========  =X&#&&&&$.= =========",
"========  = @*#&&#*%.=  ========",
"========  =Xo&&$o&#&X=  ========",
"=======   =X%%O =O%*+= = =======",
"====== = =.+$+.==X+%$.=  =======",
"===== =   .@$X=  =X@$O=   ======",
"==== = =.OX@+     .O$$ =   =====",
"====  = +XO$ = == =.@$O=   =====",
"====  =+X.+.= =    =O%$.=  =====",
"==== =.O.+X= = ==  =X+$+.= =====",
"==== =OX.+.=   == = =.XX.= =====",
"==== =XOO.=   ==== = =X+ = =====",
"===== = .  = =====     . = ====="
};
