/* XPM */
static const char * ayttm_xpm[] = {
"64 64 305 2",
"  	c None",
". 	c #B6B6B6",
"+ 	c #A7A7A7",
"@ 	c #818181",
"# 	c #868686",
"$ 	c #838383",
"% 	c #ACACAC",
"& 	c #A5A5A5",
"* 	c #747474",
"= 	c #757575",
"- 	c #909090",
"; 	c #B7B7B7",
"> 	c #898989",
", 	c #8F8F8F",
"' 	c #8B8B8B",
") 	c #AFAFAF",
"! 	c #969696",
"~ 	c #A6A6A6",
"{ 	c #BBBBBB",
"] 	c #A0A0A0",
"^ 	c #595959",
"/ 	c #4D4D4D",
"( 	c #8E8E8E",
"_ 	c #5C5C5C",
": 	c #3B3B3B",
"< 	c #777777",
"[ 	c #8D8D8D",
"} 	c #808080",
"| 	c #BCBCBC",
"1 	c #797979",
"2 	c #202020",
"3 	c #2F2F2F",
"4 	c #626262",
"5 	c #5F5F5F",
"6 	c #ABABAB",
"7 	c #7A7A7A",
"8 	c #767676",
"9 	c #B7B5AC",
"0 	c #C9C4AC",
"a 	c #BCBBB8",
"b 	c #939290",
"c 	c #424242",
"d 	c #727272",
"e 	c #444444",
"f 	c #6F6F6F",
"g 	c #656565",
"h 	c #676767",
"i 	c #2C2C2C",
"j 	c #272727",
"k 	c #737373",
"l 	c #7C7C7C",
"m 	c #AAAAAA",
"n 	c #A9A9A9",
"o 	c #787878",
"p 	c #686868",
"q 	c #999999",
"r 	c #D7D0B0",
"s 	c #EBDFA2",
"t 	c #E9DDA3",
"u 	c #B8B5A8",
"v 	c #666666",
"w 	c #7D7D7D",
"x 	c #5E5E5E",
"y 	c #797977",
"z 	c #8C8C8C",
"A 	c #6C6C6C",
"B 	c #303030",
"C 	c #ADADAD",
"D 	c #262626",
"E 	c #3E3E3E",
"F 	c #9F9F9F",
"G 	c #7E7E7E",
"H 	c #AEAEAE",
"I 	c #6E6E6E",
"J 	c #B2B1AE",
"K 	c #CEC8AC",
"L 	c #F1E29C",
"M 	c #E5DAA7",
"N 	c #9D9C98",
"O 	c #3C3C3C",
"P 	c #6B6B6B",
"Q 	c #7D7C7A",
"R 	c #ABA484",
"S 	c #888888",
"T 	c #3F3F3F",
"U 	c #383838",
"V 	c #9B9B9B",
"W 	c #545454",
"X 	c #1E1E1E",
"Y 	c #F2E39B",
"Z 	c #828282",
"` 	c #7C7866",
" .	c #D2C99E",
"..	c #DDD4AA",
"+.	c #B2AE9E",
"@.	c #B9B9B9",
"#.	c #9C9C9C",
"$.	c #7A7767",
"%.	c #5D5D5D",
"&.	c #1C1C1C",
"*.	c #919191",
"=.	c #373737",
"-.	c #858585",
";.	c #9E9E9E",
">.	c #9E9982",
",.	c #E2D69E",
"'.	c #BAB49B",
").	c #4B4B4B",
"!.	c #000000",
"~.	c #E8E1C3",
"{.	c #A3A3A3",
"].	c #191919",
"^.	c #525252",
"/.	c #D5D5D5",
"(.	c #C1C1C1",
"_.	c #BDBDBD",
":.	c #AFAA90",
"<.	c #E7DBA5",
"[.	c #E1D7A7",
"}.	c #9F9F9C",
"|.	c #94907D",
"1.	c #B8B7B5",
"2.	c #646464",
"3.	c #313131",
"4.	c #717171",
"5.	c #959595",
"6.	c #EEE3AB",
"7.	c #C5C4BD",
"8.	c #B2B2B2",
"9.	c #6A6A6A",
"0.	c #87826B",
"a.	c #F0E19E",
"b.	c #EFE19E",
"c.	c #D9CF9F",
"d.	c #161616",
"e.	c #B9B7AE",
"f.	c #434343",
"g.	c #D6D3C5",
"h.	c #EDE1A7",
"i.	c #B4B4B4",
"j.	c #494847",
"k.	c #959076",
"l.	c #CBC49F",
"m.	c #D3C895",
"n.	c #AFA98D",
"o.	c #747268",
"p.	c #D9D9D9",
"q.	c #C2C0B6",
"r.	c #5B5B5B",
"s.	c #B3B2AE",
"t.	c #DCD7BC",
"u.	c #A2A2A2",
"v.	c #646461",
"w.	c #2A2A2A",
"x.	c #949494",
"y.	c #E9E0B7",
"z.	c #D1CFC6",
"A.	c #8A8A8A",
"B.	c #939393",
"C.	c #343434",
"D.	c #454545",
"E.	c #848484",
"F.	c #CBC9C1",
"G.	c #B8B6AD",
"H.	c #636363",
"I.	c #C6C6C6",
"J.	c #C7C7C7",
"K.	c #404040",
"L.	c #5A5A5A",
"M.	c #9A9A9A",
"N.	c #9D9D9D",
"O.	c #EEE1A7",
"P.	c #EBDFA7",
"Q.	c #7F7F7F",
"R.	c #BABABA",
"S.	c #484848",
"T.	c #C9C8C0",
"U.	c #EBE0AF",
"V.	c #BEBDBA",
"W.	c #989898",
"X.	c #4A4A4A",
"Y.	c #585858",
"Z.	c #DCD7C2",
"`.	c #282828",
" +	c #EADFAF",
".+	c #D4D1C2",
"++	c #A8A8A8",
"@+	c #7B7B7B",
"#+	c #D4D2C8",
"$+	c #DBD7C0",
"%+	c #E7E0BB",
"&+	c #D8D6CC",
"*+	c #D1D1D1",
"=+	c #ECE1AB",
"-+	c #DBD6BE",
";+	c #2E2E2E",
">+	c #D1CFC8",
",+	c #D4D3CA",
"'+	c #555555",
")+	c #B3B3B3",
"!+	c #B3B3B0",
"~+	c #E1DABA",
"{+	c #C5C5C5",
"]+	c #EAE2B9",
"^+	c #979693",
"/+	c #535353",
"(+	c #494949",
"_+	c #E9E1B9",
":+	c #908E87",
"<+	c #414141",
"[+	c #DFDAC3",
"}+	c #81807A",
"|+	c #565656",
"1+	c #CECCC3",
"2+	c #85837C",
"3+	c #464646",
"4+	c #C2C0B7",
"5+	c #323232",
"6+	c #C0BFB9",
"7+	c #0B0B0B",
"8+	c #B6B5AD",
"9+	c #656461",
"0+	c #171717",
"a+	c #737169",
"b+	c #222222",
"c+	c #232323",
"d+	c #EDE1AB",
"e+	c #87867E",
"f+	c #121212",
"g+	c #1B1B1B",
"h+	c #878787",
"i+	c #E9E2C1",
"j+	c #7B7971",
"k+	c #1D1D1D",
"l+	c #F0E2A4",
"m+	c #9E9C8F",
"n+	c #252525",
"o+	c #151515",
"p+	c #EEE2AB",
"q+	c #A9A592",
"r+	c #363636",
"s+	c #101010",
"t+	c #B2AC8E",
"u+	c #E9E1B8",
"v+	c #A5A399",
"w+	c #B5B5B5",
"x+	c #BAB59F",
"y+	c #3A3A3A",
"z+	c #BFBEB8",
"A+	c #BDB8A0",
"B+	c #4C4C4C",
"C+	c #C9C3A3",
"D+	c #474747",
"E+	c #696969",
"F+	c #E9DEAB",
"G+	c #CFC79F",
"H+	c #92918F",
"I+	c #333333",
"J+	c #393939",
"K+	c #EBDD9C",
"L+	c #E4D79D",
"M+	c #4D4D4A",
"N+	c #C0B999",
"O+	c #A1A09C",
"P+	c #D7D2BA",
"Q+	c #8B8A85",
"R+	c #72716B",
"S+	c #B3AD91",
"T+	c #CFCAAF",
"U+	c #A7A495",
"V+	c #9D9B92",
"W+	c #C8BF98",
"X+	c #606060",
"Y+	c #BFB793",
"Z+	c #E4DDBD",
"`+	c #D6CDA0",
" @	c #6E6D69",
".@	c #979797",
"+@	c #EBDE9D",
"@@	c #C8C19D",
"#@	c #A2A19D",
"$@	c #BAB59D",
"%@	c #616161",
"&@	c #63625D",
"*@	c #CAC3A0",
"=@	c #575757",
"-@	c #212121",
";@	c #1A1A1A",
">@	c #505050",
",@	c #707070",
"'@	c #4F4F4F",
")@	c #2B2B2B",
"!@	c #0D0D0D",
"~@	c #6D6D6D",
"{@	c #0A0A0A",
"]@	c #020202",
"^@	c #515151",
"/@	c #111111",
"(@	c #080808",
"_@	c #4E4E4E",
":@	c #B8B39B",
"<@	c #0C0C0C",
"[@	c #353535",
"}@	c #131313",
"|@	c #141414",
"                                                                                                                                ",
"                                                            . + @ # $ %                   & * = -                               ",
"                              ; > , ' )                   ! > ~ { ] ^ / (               . _ : < [ }                             ",
"                            | 1 2 3 4 5 6               , 7 8 9 0 a b c _               d e f > g h                             ",
"                              $ i j k _ l m           n o p q r s t u v i w           ' x y z A B d                             ",
"                              C p D E F G ( H         ~ I p J K L L M N O 7         n P Q R S T U                               ",
"                                V W X Y m I Z         ( g `  ...L Y Y +.c Z       @.' #.Y $.%.&.P                               ",
"                                  *.=.Y Y & -.)       ;.x >.,.Y Y Y L '.).S !.    ( } Y ~.{.].^.                                ",
"                                    1 / Y /.(.;._.    ~ 5 :.<.t Y L [.~ j 8 !.!.}.|.Y Y 1.2.3.                                  ",
"                                    n 4.5.Y 6.7.8.)   m 9.0.Y a.L b.c.8 d.9.!.!.e.Y Y Y {.f.*                                   ",
"                                      m S g.Y h.i.*.n !.l j.k.l.m.n.o.E 9.!.!.- p.Y Y q.f.r.!.!.!.!.!.                          ",
"                                        z s.Y Y t.u.1 V ! h c ^.v.O w.h ! V e ) Y Y Y F : !.!.!.!.!.!.                          ",
"                                        F x.y.Y Y z.$ = A.u.V S B.f V u.A.C._ Y Y Y @ D.d !.!.!.!.!.!.                          ",
"                                          E.F.Y Y Y G.8 H., | I.J.) | , K.L.u.Y Y > ^ : !.!.!.!.!.!.!.                          ",
"                                          M.N.O.Y Y P.H = H.Q.;.R.+ S.3 r.N.Y Y Y 4.U I !.!.!.!.!.!.!.                          ",
"                                          F 4.T.Y Y Y U.V.W.A ^ ).X.Y.z i.Z.Y Y u.X.`.!.!.!.!.!.!.!.                            ",
"                                            = +  +Y Y Y Y .+++@+I > + #+Y Y Y Y $ K.f.!.!.!.!.!.!.!.                            ",
"                                            B.# $+Y Y Y Y Y %+&+*+&+=+Y Y Y Y -+d ;+!.!.!.!.!.!.!.!.                            ",
"                                            ] G >+Y Y Y Y Y Y Y Y Y Y Y Y Y Y ,+< '+!.!.!.!.!.!.!.                              ",
"                                              l )+Y Y Y Y Y Y Y Y Y Y Y Y Y Y !+%.!.!.!.!.!.!.!.!.                              ",
"                                              7 z ~+Y Y Y Y Y Y Y Y Y Y Y Y Y @ U !.!.!.!.!.!.!.                                ",
"                                                W {+Y Y Y Y Y Y Y Y Y Y Y Y ++< f.!.!.!.!.!.!.!.                                ",
"                                                ^ H Y Y Y Y Y Y Y Y Y Y Y Y B.T !.!.!.!.!.!.!.                                  ",
"                                                S.#.]+Y Y Y Y Y Y Y Y Y Y Y ^+/+!.!.!.!.!.!.!.                                  ",
"                                                (+-._+Y Y Y Y Y Y Y Y Y Y Y :+<+!.!.!.!.!.!.!.                                  ",
"                                                3.I [+Y Y Y Y Y Y Y Y Y Y Y }+T !.!.!.!.!.!.                                    ",
"                                                w.|+1+Y Y Y Y Y Y Y Y Y Y Y 2+!.!.!.!.!.!.!.                                    ",
"                                                E 3+4+Y Y Y Y Y Y Y Y Y Y Y 7 !.!.!.!.!.!.!.                                    ",
"                                                  5+6+Y Y Y Y Y Y Y Y Y Y Y (+7+!.!.!.!.!.                                      ",
"                                                  ;+8+Y Y Y Y Y Y Y Y Y Y Y 9+0+!.!.!.!.!.                                      ",
"                                                  `.M.Y Y Y Y Y Y Y Y Y Y Y a+b+!.!.!.!.!.                                      ",
"                                                  c+5.d+Y Y Y Y Y Y Y Y Y Y e+f+!.!.!.!.!.                                      ",
"                                                  g+h+i+Y Y Y Y Y Y Y Y Y Y j+k+!.!.!.!.!.                                      ",
"                                                  0+( l+Y Y Y Y Y Y Y Y Y Y m+n+!.!.!.!.!.                                      ",
"                                                  o+( p+Y Y Y Y Y Y Y Y Y Y q+r+!.!.!.!.!.                                      ",
"                                                  s+z Y Y Y Y Y Y Y Y Y Y Y t+!.!.!.!.!.!.                                      ",
"                                                  n+;.u+Y Y Y Y Y Y Y Y Y Y v+!.!.!.!.!.!.                                      ",
"                                                  2 w+6.Y Y Y Y Y Y Y Y Y Y x+y+!.!.!.!.!.                                      ",
"                                                  K.z+Y Y Y Y Y Y Y Y Y Y Y A+B+!.!.!.!.!.                                      ",
"                                                E / Y Y Y Y Y Y Y Y Y Y Y Y C+v D+!.!.!.!.                                      ",
"                                                C.E+F+Y Y Y Y Y Y Y Y Y Y Y G+w f.!.!.!.!.                                      ",
"                                                `.Y Y Y Y Y Y Y Y Y Y Y Y Y Y H+I+!.!.!.!.                                      ",
"                                              Q.J+Y Y Y Y Y K+Y Y Y Y Y Y Y Y L+v !.!.!.!.                                      ",
"                                              X.M+Y Y Y N+O+n !.!.!.P+Y Y Y Y Y Q+!.!.!.!.                                      ",
"                                              r+R+Y Y S+h h+!.!.!.!.!.{.T+Y Y Y U+!.!.!.!.                                      ",
"                                            w &.V+Y W+W r+!.!.!.!.!.!.# X+Y+Y Z+Y !.!.!.!.!.                                    ",
"                                            C.H.Y `+ @;+.@!.!.!.!.!.!.N.(+H.+@Y @@P !.!.!.!.                                    ",
"                                          = &.Y Y w y+f   !.!.!.!.!.!.!.G <+#@Y Y 8 P !.!.!.                                    ",
"                                          3 S.Y $@Y.^   !.!.!.!.!.!.!.!.!.%@&@*@Y Y =@!.!.!.                                    ",
"                                        W 7+9.Y w h )   !.!.!.!.!.!.!.!.!.+ S.8 Y Y X+S !.!.                                    ",
"                                      Q.-@;@Y # 5 ]     !.!.!.!.!.!.!.!.!.!.= ^.# Y Y v !.!.                                    ",
"                                    ;.>@&.Y Y r.h+    !.!.!.!.!.!.!.          Y.,@Y Y %@!.!.                                    ",
"                                  ++'@)@Y Y p o       !.!.!.!.!.!.            $ (+E.Y ' k !.!.                                  ",
"                                8.5 !@d.Y } H.&       !.!.!.!.                  L.~@Y Y g l !.                                  ",
"                              w+g {@]@Y Y 4 [       !.!.!.!.                    E.'+Y Y ! ^@!.                                  ",
"                              *./@!@Y Y 9.*       !.!.!.!.!.                      E+~@Y Y f L.                                  ",
"                            8.'+(@Y Y ,@|+      !.!.!.!.!.                        F _@- Y :@'+L.                                ",
"                            I &.Y Y h+S.S     !.!.!.!.!.                            8 y+h+Y @+3.p                               ",
"                          ~ K.<@Y Y / /       !.!.!.!.                                '+n+|+@ [@w.                              ",
"                          F 5+}@c O U 5.    !.!.!.!.!.                                  D+|@}@s+X !.                            ",
"                          C _ d.&.d.|+    !.!.!.!.!.                                      K.5+5 !.!.                            ",
"                              - Q.$     !.!.!.!.!.!.                                      $ W.M.!.!.!.                          ",
"                                        !.!.!.!.!.!.                                            !.!.!.!.                        ",
"                                      !.!.!.!.!.!.                                              !.!.!.!.                        "};
