/* XPM */
static char * ayttm_xpm[] = {
"64 64 371 2",
"  	c None",
". 	c #B6B6B6",
"+ 	c #A7A7A7",
"@ 	c #818181",
"# 	c #868686",
"$ 	c #838383",
"% 	c #ACACAC",
"& 	c #A5A5A5",
"* 	c #747474",
"= 	c #757575",
"- 	c #909090",
"; 	c #B7B7B7",
"> 	c #898989",
", 	c #8F8F8F",
"' 	c #8B8B8B",
") 	c #AFAFAF",
"! 	c #969696",
"~ 	c #A6A6A6",
"{ 	c #BBBBBB",
"] 	c #A0A0A0",
"^ 	c #595959",
"/ 	c #4D4D4D",
"( 	c #8E8E8E",
"_ 	c #5C5C5C",
": 	c #3B3B3B",
"< 	c #777777",
"[ 	c #8D8D8D",
"} 	c #808080",
"| 	c #BCBCBC",
"1 	c #797979",
"2 	c #202020",
"3 	c #2F2F2F",
"4 	c #626262",
"5 	c #5F5F5F",
"6 	c #ABABAB",
"7 	c #7A7A7A",
"8 	c #767676",
"9 	c #B7B5AC",
"0 	c #C9C4AC",
"a 	c #BCBBB8",
"b 	c #939290",
"c 	c #424242",
"d 	c #727272",
"e 	c #444444",
"f 	c #6F6F6F",
"g 	c #656565",
"h 	c #676767",
"i 	c #2C2C2C",
"j 	c #272727",
"k 	c #737373",
"l 	c #7C7C7C",
"m 	c #AAAAAA",
"n 	c #A9A9A9",
"o 	c #787878",
"p 	c #686868",
"q 	c #999999",
"r 	c #D7D0B0",
"s 	c #EBDFA2",
"t 	c #E9DDA3",
"u 	c #B8B5A8",
"v 	c #666666",
"w 	c #7D7D7D",
"x 	c #5E5E5E",
"y 	c #797977",
"z 	c #8C8C8C",
"A 	c #6C6C6C",
"B 	c #303030",
"C 	c #ADADAD",
"D 	c #262626",
"E 	c #3E3E3E",
"F 	c #9F9F9F",
"G 	c #7E7E7E",
"H 	c #AEAEAE",
"I 	c #6E6E6E",
"J 	c #B2B1AE",
"K 	c #CEC8AC",
"L 	c #F1E29C",
"M 	c #E5DAA7",
"N 	c #9D9C98",
"O 	c #3C3C3C",
"P 	c #6B6B6B",
"Q 	c #7D7C7A",
"R 	c #ABA484",
"S 	c #888888",
"T 	c #3F3F3F",
"U 	c #383838",
"V 	c #9B9B9B",
"W 	c #545454",
"X 	c #1E1E1E",
"Y 	c #828282",
"Z 	c #7C7866",
"` 	c #D2C99E",
" .	c #DDD4AA",
"..	c #F2E39B",
"+.	c #B2AE9E",
"@.	c #B9B9B9",
"#.	c #9C9C9C",
"$.	c #AEAC9E",
"%.	c #7A7767",
"&.	c #5D5D5D",
"*.	c #1C1C1C",
"=.	c #919191",
"-.	c #373737",
";.	c #858585",
">.	c #9E9E9E",
",.	c #9E9982",
"'.	c #E2D69E",
").	c #BAB49B",
"!.	c #4B4B4B",
"~.	c #BBB9B1",
"{.	c #E8E1C3",
"].	c #A3A3A3",
"^.	c #191919",
"/.	c #525252",
"(.	c #D5D5D5",
"_.	c #C1C1C1",
":.	c #BDBDBD",
"<.	c #AFAA90",
"[.	c #E7DBA5",
"}.	c #E1D7A7",
"|.	c #9F9F9C",
"1.	c #94907D",
"2.	c #BAB59D",
"3.	c #C0BBA0",
"4.	c #B8B7B5",
"5.	c #646464",
"6.	c #313131",
"7.	c #717171",
"8.	c #959595",
"9.	c #E6E0C5",
"0.	c #ECE3B4",
"a.	c #C5C4BD",
"b.	c #B2B2B2",
"c.	c #6A6A6A",
"d.	c #87826B",
"e.	c #F0E19E",
"f.	c #EFE19E",
"g.	c #D9CF9F",
"h.	c #161616",
"i.	c #B9B7AE",
"j.	c #E1DABA",
"k.	c #DFD5A2",
"l.	c #C5BC91",
"m.	c #434343",
"n.	c #D6D3C5",
"o.	c #EAE0B3",
"p.	c #B4B4B4",
"q.	c #494847",
"r.	c #959076",
"s.	c #CBC49F",
"t.	c #D3C895",
"u.	c #AFA98D",
"v.	c #747268",
"w.	c #D9D9D9",
"x.	c #E1E1E1",
"y.	c #DDD9C8",
"z.	c #C2C0B6",
"A.	c #5B5B5B",
"B.	c #B3B2AE",
"C.	c #F1E39E",
"D.	c #F2E39C",
"E.	c #DCD7BC",
"F.	c #A2A2A2",
"G.	c #646461",
"H.	c #2A2A2A",
"I.	c #E3E3E3",
"J.	c #C9C9C9",
"K.	c #949494",
"L.	c #E9E0B7",
"M.	c #F0E3A2",
"N.	c #D1CFC6",
"O.	c #8A8A8A",
"P.	c #939393",
"Q.	c #343434",
"R.	c #C5C5C5",
"S.	c #E2E2E2",
"T.	c #454545",
"U.	c #848484",
"V.	c #CBC9C1",
"W.	c #F1E39F",
"X.	c #EFE2A3",
"Y.	c #B8B6AD",
"Z.	c #636363",
"`.	c #C6C6C6",
" +	c #C7C7C7",
".+	c #404040",
"++	c #5A5A5A",
"@+	c #DFDFDF",
"#+	c #DCDCDC",
"$+	c #9A9A9A",
"%+	c #9D9D9D",
"&+	c #EBE1B3",
"*+	c #E6DDB3",
"=+	c #7F7F7F",
"-+	c #BABABA",
";+	c #484848",
">+	c #DDDAC8",
",+	c #E7E1C5",
"'+	c #C9C8C0",
")+	c #F0E3A5",
"!+	c #EAE0B5",
"~+	c #BEBDBA",
"{+	c #989898",
"]+	c #4A4A4A",
"^+	c #585858",
"/+	c #DCD7C2",
"(+	c #F1E3A1",
"_+	c #EEE3AC",
":+	c #282828",
"<+	c #E8DFB5",
"[+	c #EDE1A9",
"}+	c #D4D1C2",
"|+	c #A8A8A8",
"1+	c #7B7B7B",
"2+	c #D4D2C8",
"3+	c #EEE2A5",
"4+	c #E2DCC3",
"5+	c #DBD7C0",
"6+	c #F1E39D",
"7+	c #E7E0BB",
"8+	c #D8D6CC",
"9+	c #D1D1D1",
"0+	c #EAE1B4",
"a+	c #F2E39D",
"b+	c #DBD6BE",
"c+	c #2E2E2E",
"d+	c #D1CFC8",
"e+	c #D4D3CA",
"f+	c #555555",
"g+	c #B3B3B3",
"h+	c #EEE2AA",
"i+	c #ECE1AB",
"j+	c #B3B3B0",
"k+	c #F1E3A0",
"l+	c #CECCBE",
"m+	c #EFE3AB",
"n+	c #EAE1B9",
"o+	c #EEE3AB",
"p+	c #E4DEBD",
"q+	c #EAE2B9",
"r+	c #E9DFB0",
"s+	c #979693",
"t+	c #535353",
"u+	c #494949",
"v+	c #E9E1B9",
"w+	c #F1E39C",
"x+	c #908E87",
"y+	c #414141",
"z+	c #DFDAC3",
"A+	c #EFE19D",
"B+	c #81807A",
"C+	c #565656",
"D+	c #CECCC3",
"E+	c #85837C",
"F+	c #464646",
"G+	c #C2C0B7",
"H+	c #E4D9A0",
"I+	c #323232",
"J+	c #C0BFB9",
"K+	c #E5D9A1",
"L+	c #0B0B0B",
"M+	c #B6B5AD",
"N+	c #ECDE9F",
"O+	c #656461",
"P+	c #171717",
"Q+	c #EEE2A9",
"R+	c #737169",
"S+	c #222222",
"T+	c #232323",
"U+	c #EBE1B4",
"V+	c #87867E",
"W+	c #121212",
"X+	c #1B1B1B",
"Y+	c #878787",
"Z+	c #E9E2C1",
"`+	c #7B7971",
" @	c #1D1D1D",
".@	c #EDE2B2",
"+@	c #9E9C8F",
"@@	c #252525",
"#@	c #151515",
"$@	c #ECE2B4",
"%@	c #A9A592",
"&@	c #363636",
"*@	c #101010",
"=@	c #ECE1AE",
"-@	c #B2AC8E",
";@	c #E9E1B8",
">@	c #A5A399",
",@	c #B5B5B5",
"'@	c #EDE3B4",
")@	c #BAB59F",
"!@	c #3A3A3A",
"~@	c #BFBEB8",
"{@	c #EFE3A9",
"]@	c #BDB8A0",
"^@	c #4C4C4C",
"/@	c #D6CFB1",
"(@	c #C9C3A3",
"_@	c #474747",
":@	c #696969",
"<@	c #E5DCB4",
"[@	c #CFC79F",
"}@	c #F0E29E",
"|@	c #F1E29E",
"1@	c #E9DDA0",
"2@	c #92918F",
"3@	c #333333",
"4@	c #393939",
"5@	c #DFD39C",
"6@	c #E8DBA0",
"7@	c #DAD0A1",
"8@	c #D8CE9F",
"9@	c #4D4D4A",
"0@	c #E6DA9C",
"a@	c #C0B999",
"b@	c #A1A09C",
"c@	c #D7D2BA",
"d@	c #E6DBA3",
"e@	c #F0E2A1",
"f@	c #8B8A85",
"g@	c #72716B",
"h@	c #EEE09D",
"i@	c #B3AD91",
"j@	c #CFCAAF",
"k@	c #EEE09E",
"l@	c #EBDFA6",
"m@	c #A7A495",
"n@	c #9D9B92",
"o@	c #E8DCA2",
"p@	c #C8BF98",
"q@	c #606060",
"r@	c #BFB793",
"s@	c #E4DDBD",
"t@	c #BFBFBF",
"u@	c #C3C1B7",
"v@	c #C7C1A5",
"w@	c #6E6D69",
"x@	c #979797",
"y@	c #DAD1A4",
"z@	c #EBDEA0",
"A@	c #B4B19E",
"B@	c #A2A19D",
"C@	c #E7DBA2",
"D@	c #C0BDB2",
"E@	c #616161",
"F@	c #63625D",
"G@	c #B6B3A3",
"H@	c #575757",
"I@	c #212121",
"J@	c #1A1A1A",
"K@	c #505050",
"L@	c #707070",
"M@	c #4F4F4F",
"N@	c #2B2B2B",
"O@	c #1F1F1F",
"P@	c #0D0D0D",
"Q@	c #6D6D6D",
"R@	c #0A0A0A",
"S@	c #020202",
"T@	c #515151",
"U@	c #111111",
"V@	c #080808",
"W@	c #181818",
"X@	c #4E4E4E",
"Y@	c #B0B0B0",
"Z@	c #0C0C0C",
"`@	c #2D2D2D",
" #	c #353535",
".#	c #131313",
"+#	c #141414",
"                                                                                                                                ",
"                                                            . + @ # $ %                   & * = -                               ",
"                              ; > , ' )                   ! > ~ { ] ^ / (               . _ : < [ }                             ",
"                            | 1 2 3 4 5 6               , 7 8 9 0 a b c _               d e f > g h                             ",
"                              $ i j k _ l m           n o p q r s t u v i w           ' x y z A B d                             ",
"                              C p D E F G ( H         ~ I p J K L L M N O 7         n P Q R S T U                               ",
"                                V W X l m I Y         ( g Z `  .L ....+.c Y       @.' #.$.%.&.*.P                               ",
"                                  =.-.g m & ;.)       >.x ,.'.......L ).!.S       ( } ~.{.].^./.                                ",
"                                    1 / 6 (._.>.:.    ~ 5 <.[.t ..L }.~ j 8     |.1.2.3.4.5.6.                                  ",
"                                    n 7.8.9.0.a.b.)   m c.d...e.L f.g.8 h.c.    i.j.k.l.].m.*                                   ",
"                                      m S n...o.p.=.n   l q.r.s.t.u.v.E c.    - w.x.y.z.m.A.                                    ",
"                                        z B.C.D.E.F.1 V ! h c /.G.O H.h ! V e ) I.(.J.F :                                       ",
"                                        F K.L...M.N.$ = O.F.V S P.f V F.O.Q._ R.S.| @ T.d                                       ",
"                                          U.V.W...X.Y.8 Z., | `. +) | , .+++F.@+#+> ^ :                                         ",
"                                          $+%+&+....*+H = Z.=+>.-++ ;+3 A.%+>+,+J.7.U I                                         ",
"                                          F 7.'+)+..D.!+~+{+A ^ !.]+^+z p./+(+_+F.]+:+                                          ",
"                                            = + <+......[+}+|+1+I > + 2+3+D...4+$ .+m.                                          ",
"                                            P.# 5+........6+7+8+9+8+0+a+......b+d c+                                            ",
"                                            ] G d+............a+C.a+..........e+< f+                                            ",
"                                              l g+h+........................i+j+&.                                              ",
"                                              7 z j.......................k+l+@ U                                               ",
"                                                W R.m+....................n+|+< m.                                              ",
"                                                ^ H o+....................p+P.T                                                 ",
"                                                ;+#.q+....................r+s+t+                                                ",
"                                                u+;.v+....................w+x+y+                                                ",
"                                                6.I z+....................A+B+T                                                 ",
"                                                H.C+D+....................L E+                                                  ",
"                                                E F+G+....................H+7                                                   ",
"                                                  I+J+k+..................K+u+L+                                                ",
"                                                  c+M+a+..................N+O+P+                                                ",
"                                                  :+$+Q+....................R+S+                                                ",
"                                                  T+8.U+....................V+W+                                                ",
"                                                  X+Y+Z+....................`+ @                                                ",
"                                                  P+( .@....................+@@@                                                ",
"                                                  #@( $@....................%@&@                                                ",
"                                                  *@z =@....................-@                                                  ",
"                                                  @@>.;@....................>@                                                  ",
"                                                  2 ,@'@....................)@!@                                                ",
"                                                  .+~@{@....................]@^@                                                ",
"                                                E / /@......................(@v _@                                              ",
"                                                Q.:@<@......................[@w m.                                              ",
"                                                :+U.n+..........}@|@........1@2@3@                                              ",
"                                              =+4@5@......6@7@................8@v                                               ",
"                                              ]+9@0@....a@b@n       c@d@......e@f@                                              ",
"                                              &@g@h@..i@h Y+          ].j@k@..l@m@                                              ",
"                                            w *.n@o@p@W &@            # q@r@..s@t@                                              ",
"                                            Q.Z.u@v@w@c+x@            %+u+Z.y@z@A@P                                             ",
"                                          = *.' ,@w !@f                 G y+B@C@D@8 P                                           ",
"                                          3 ;+g+F ^+^                     E@F@G@% ! H@                                          ",
"                                        W L+c.C w h )                     + ;+8 P.n q@S                                         ",
"                                      =+I@J@1+# 5 ]                         = /.# H ! v                                         ",
"                                    >.K@*.3@P A.Y+                            ^+L@~ C E@                                        ",
"                                  |+M@N@O@v p o                               $ u+U.F.' k                                       ",
"                                b.5 P@h./.} Z.&                                 ++Q@6 ) g l                                     ",
"                              ,@g R@S@4@=+4 [                                   U.f+8.-+! T@                                    ",
"                              =.U@P@h.A.c.*                                       :@Q@g+-+f ++                                  ",
"                            b.f+V@W@O L@C+                                        F X@- @.#.f+++                                ",
"                            I *.L+Q.Y+;+S                                           8 !@Y+Y@1+6.p                               ",
"                          ~ .+Z@`@^ / /                                               f+@@C+@  #H.                              ",
"                          F I+.#c O U 8.                                                _@+#.#*@X                               ",
"                          C _ h.*.h.C+                                                    .+I+5                                 ",
"                              - =+$                                                       $ {+$+                                ",
"                                                                                                                                ",
"                                                                                                                                "};
