/* XPM */
static const char * beer_xpm[] = {
"16 16 4 1",
" 	c None",
".	c #000000000000",
"X	c #E7E7E7E7E7E7",
"o	c #FFFF96963131",
"                ",
"                ",
"     ......     ",
"    .XXXXXX.    ",
"    ........    ",
"    .XXXXXX.    ",
"    .XXXXXX...  ",
"    .oXXXXo.  . ",
"    .oooooo.  . ",
"    .oooooo.  . ",
"    .oooooo.  . ",
"    .oooooo.  . ",
"    .oooooo. .  ",
"    .oooooo..   ",
"     ......     ",
"                "};
