/* XPM */
static char * blank_icon_xpm[] = {
"12 12 14 1",
" 	c None",
".	c #000000",
"+	c #0F3BD9",
"@	c #0F3DE0",
"#	c #0F3FE7",
"$	c #0B2C8E",
"%	c #0E3AD1",
"&	c #0D37C2",
"*	c #0E38CA",
"=	c #0D35BB",
"-	c #0D33B3",
";	c #0C32AC",
">	c #0C30A4",
",	c #0B2F9D",
"   ......   ",
"  .+@####.  ",
" .$%+@####. ",
".$&*%+@####.",
".$=&*%+@###.",
".$-=&*%+@##.",
".$;-=&*%+@#.",
".$>;-=&*%+@.",
".$,>;-=&*%+.",
" .$,>;-=&*. ",
"  .$$$$$$.  ",
"   ......   "};
