/* XPM */
static char * blush_xpm[] = {
"16 16 38 1",
" 	c None",
".	c #000000",
"+	c #F7F300",
"@	c #EFE700",
"#	c #EFE300",
"$	c #E7DF00",
"%	c #EEE300",
"&	c #DED300",
"*	c #F6F200",
"=	c #EEE700",
"-	c #CC9999",
";	c #CCCC33",
">	c #E8E200",
",	c #DECF00",
"'	c #D6C300",
")	c #DAB959",
"!	c #D6BE00",
"~	c #CEB600",
"{	c #848200",
"]	c #CEAE00",
"^	c #EFE200",
"/	c #9CA3AB",
"(	c #C6A600",
"_	c #DED200",
":	c #BD9E00",
"<	c #FF9933",
"[	c #CFAF00",
"}	c #BD9600",
"|	c #FF6666",
"1	c #CCAA05",
"2	c #F69D54",
"3	c #C7A600",
"4	c #BFA200",
"5	c #FF9966",
"6	c #BF9401",
"7	c #BD9202",
"8	c #BD9200",
"9	c #BD9F00",
"     ......     ",
"    .++@##$.    ",
"  ..+@@#%$$&..  ",
" .+*=-;$>;-,,'. ",
" .@=)@$$&,'-'!. ",
".@@@@&&&,'!!~~~.",
".#%@&-{,'{-~~~].",
".^$&//.''.//]](.",
".$_&,//////]((:.",
".&<<<'!!~[]<<<}.",
".,|||!~~]]1|||}.",
" .'||23((45||6. ",
" .!~~(5555}}78. ",
"  ..]((:9}}8..  ",
"    .(:}}88.    ",
"     ......     "};
