/* XPM */
static char * confused_xpm[] = {
"16 16 23 1",
" 	c None",
".	c #000000",
"+	c #FBF800",
"@	c #F6F200",
"#	c #F6EF00",
"$	c #F2ED00",
"%	c #999933",
"&	c #ECE500",
"*	c #CCCC33",
"=	c #ECE200",
"-	c #E7DA00",
";	c #9CA3AB",
">	c #E7D600",
",	c #330099",
"'	c #8DA5C9",
")	c #E2D000",
"!	c #DCC300",
"~	c #CC9933",
"{	c #998035",
"]	c #E2C900",
"^	c #D5BC00",
"/	c #D5B500",
"(	c #D5B100",
"     ......     ",
"    .++@##$.    ",
"  ..+%%%#$$&..  ",
" .+*%@#$$***=-. ",
" .@**;;$&;;*->. ",
".@@**;,&=,;*>>>.",
".##@*;;=-;;,,,,.",
".#$&&&=-->,'''',",
".$&&=-->>),',,',",
".&==-~{{~]],!,',",
".==>>>))]~!^,',.",
" .->)){{!^^/,,. ",
" .>))!!!^^//((. ",
"  ..]!!^^//(,.  ",
"    .!^//((,',  ",
"     ...... ,   "};
