/* XPM */
static const char * cooldude_xpm[] = {
"16 16 16 1",
" 	c None",
".	c #000000",
"+	c #F7F300",
"@	c #EFE700",
"#	c #EFE300",
"$	c #E7DF00",
"%	c #DED300",
"&	c #DECF00",
"*	c #D6C300",
"=	c #D6BE00",
"-	c #CEB600",
";	c #CEAE00",
">	c #C6A600",
",	c #BD9E00",
"'	c #BD9600",
")	c #BD9200",
"     ......     ",
"    .++@##$.    ",
"  ..+@@##$$%..  ",
" .++@@#$$%%&&*. ",
" .@@..$..&..*=. ",
".......**.......",
".##....&*....-;.",
".#$%..&**=..;;>.",
".$%%&**==--;>>,.",
".%&&**==-;;>>,'.",
".&&..=--;;>..''.",
" .*=........'). ",
" .=--......')). ",
"  ..;>>,,'')..  ",
"    .>,'')).    ",
"     ......     "};
