/* XPM */
static const char * cry_xpm[] = {
"16 16 18 1",
" 	c None",
".	c #000000000000",
"X	c #F7F7F3F30000",
"o	c #EFEFE7E70000",
"O	c #EFEFE3E30000",
"+	c #E7E7DFDF0000",
"@	c #DEDED3D30000",
"#	c #DEDECFCF0000",
"$	c #D6D6C3C30000",
"%	c #D6D6BEBE0000",
"&	c #FFFFFFFFFFFF",
"*	c #CECEB6B60000",
"=	c #00000000FFFF",
"-	c #CECEAEAE0000",
";	c #C6C6A6A60000",
":	c #BDBD9E9E0000",
">	c #BDBD96960000",
",	c #BDBD92920000",
"     ......     ",
"    .XXoOO+.    ",
"  ..XooOO++@..  ",
" .XXooO++@@##$. ",
" .oo..++@#..$%. ",
".oo.&&.@#.&&.**.",
".OO.&=.#$.=&.*-.",
".O==..#$$%..-=;.",
".+==#$$%%**-;=:.",
".@=#$$%%*--;;:>.",
".##=-......>>>>.",
" .$=..::::..>,. ",
" .%*.::::::.,,. ",
"  ..:;;::>>,..  ",
"    .;:>>,,.    ",
"     ......     "};
