/* XPM */
static const char * grin_xpm[] = {
"16 16 19 1",
" 	c None",
".	c #000000",
"+	c #F7F300",
"@	c #EFE700",
"#	c #EFE300",
"$	c #E7DF00",
"%	c #DED300",
"&	c #DECF00",
"*	c #D6C300",
"=	c #D6BE00",
"-	c #FFFFFF",
";	c #403954",
">	c #A3A7C6",
",	c #4E526B",
"'	c #BD9200",
")	c #CEAE00",
"!	c #C6A600",
"~	c #BD9E00",
"{	c #BD9600",
"     ......     ",
"    .++@##$.    ",
"  ..+@@##$$%..  ",
" .++@@.$$.%&&*. ",
" .@@@@$$%&&**=. ",
";;;;;;;;;;;;;;;;",
";--->--->--->--;",
";--->--->--->--;",
";,,->--->--->,,;",
";;-,,,,,,,,,,-;.",
".;-->--->--->-;.",
" .;->--->--->;. ",
" .=;;--->--;;'. ",
"  ..);;;;;;'..  ",
"    .!~{{''.    ",
"     ......     "};
