/* XPM */
static const char * help_xpm[] = {
"24 24 60 1",
" 	c None",
".	c #000000",
"+	c #BEBEBE",
"@	c #9A9A9A",
"#	c #F0F0F0",
"$	c #931616",
"%	c #DADADA",
"&	c #ECECEC",
"*	c #AEAEAE",
"=	c #D4D4D4",
"-	c #EAEAEA",
";	c #EEEEEE",
">	c #E7E7E7",
",	c #B2B2B2",
"'	c #E9E9E9",
")	c #D0D0D0",
"!	c #A0A0A0",
"~	c #EDEDED",
"{	c #E4E4E4",
"]	c #F6F6F6",
"^	c #D9D9D9",
"/	c #F2F2F2",
"(	c #BFBFBF",
"_	c #8A8A8A",
":	c #636363",
"<	c #E5E5E5",
"[	c #D5D5D5",
"}	c #CECECE",
"|	c #CACACA",
"1	c #DFDFDF",
"2	c #515151",
"3	c #9E9E9E",
"4	c #F1F1F1",
"5	c #EBEBEB",
"6	c #939393",
"7	c #F5F5F5",
"8	c #656565",
"9	c #5B5B5B",
"0	c #C6C6C6",
"a	c #808080",
"b	c #E0E0E0",
"c	c #EFEFEF",
"d	c #C3C3C3",
"e	c #737373",
"f	c #A6A6A6",
"g	c #DBDBDB",
"h	c #616161",
"i	c #6A6A6A",
"j	c #6C6C6C",
"k	c #ACACAC",
"l	c #242424",
"m	c #2A2A2A",
"n	c #D8D8D8",
"o	c #0C0C0C",
"p	c #161616",
"q	c #575757",
"r	c #838383",
"s	c #777777",
"t	c #A8A8A8",
"u	c #4F4F4F",
"                        ",
"            ....        ",
"       .+@#.$$$$..      ",
"      .++#.$$$$$$$.     ",
"     .+%#.$$$..$$$.     ",
"    .+###.$$.  .$$.     ",
"   .+##&#....  .$.      ",
"  .*###=-#=;> .$$.      ",
" .,##=##='#)>.$$.       ",
" .!##~=##&;;{.$$.]]]]*  ",
"  .^###/##)'(.$$.]]]*_  ",
"  .:<##~[;'}|....1]]_2. ",
"   .3##45)*6^;7]]]]*89. ",
"    .^##0+ab&7..11]_2.  ",
"    .:<cdefg#.$$.]*89.  ",
"     .h&ei1'7.$$.]_6.   ",
"     ..2jk<47]..]*8j.   ",
"     ..lm+n#]]]]]_6.    ",
"      .opq++++gg(8j.    ",
"       ..._r++++s6.     ",
"          ...et+s9.     ",
"             ...u.      ",
"                ..      ",
"                        "};
