/* XPM */
static const char * heyyy_xpm[] = {
"16 16 21 1",
" 	c None",
".	c #000000",
"+	c #F8F500",
"@	c #F2EB00",
"#	c #F2E800",
"$	c #EBE400",
"%	c #999933",
"&	c #E4DA00",
"*	c #E4D700",
"=	c #DDCC00",
"-	c #996633",
";	c #663333",
">	c #DDC800",
",	c #D6C100",
"'	c #9CA3AB",
")	c #D6B900",
"!	c #CFB200",
"~	c #E3D500",
"{	c #C7AA00",
"]	c #C7A300",
"^	c #C79F00",
"     ......     ",
"    .++@##$.    ",
"  ..+@%%%$$&..  ",
" .++@@#$$%&**=. ",
" .@@@@-;&*=%;-. ",
".@@@@&%&%=>%,-,.",
".##@&&.'%>>.'-).",
".#$&&&*==>,,))!.",
".$&&~==>>,,)!!{.",
".&**==.>,))!!.].",
".**>>>,......]].",
" .=>,,!!!{{]]^. ",
" .>,,!!!%%%]^^. ",
"  ..)!!{{]]^..  ",
"    .!{]]^^.    ",
"     ......     "};
