/* XPM */
static const char * icq_away_xpm[] = {
"12 13 58 1",
" 	c None",
".	c #929792",
"+	c #939B93",
"@	c #9DD09C",
"#	c #9DDB9D",
"$	c #9DDD9E",
"%	c #9DD59D",
"&	c #939D93",
"*	c #949E94",
"=	c #94A094",
"-	c #9CD69D",
";	c #9DD89D",
">	c #9DDF9E",
",	c #9DE19E",
"'	c #94A394",
")	c #94A194",
"!	c #929292",
"~	c #9CCC9B",
"{	c #9BD29C",
"]	c #9CD49D",
"^	c #9CD79D",
"/	c #9DD99D",
"(	c #9BCE9B",
"_	c #9BD09C",
":	c #9CD59D",
"<	c #9DDE9E",
"[	c #9DE09E",
"}	c #9ACC9B",
"|	c #9CD29C",
"1	c #9DDB9E",
"2	c #9ACA9B",
"3	c #9BCE9C",
"4	c #9BD19C",
"5	c #9CD29D",
"6	c #9CD89D",
"7	c #9DDC9D",
"8	c #9AC89A",
"9	c #9ACA9A",
"0	c #9ACF9B",
"a	c #9BD39C",
"b	c #9DDA9D",
"c	c #99C69A",
"d	c #9BCF9B",
"e	c #9AC19A",
"f	c #9CD49C",
"g	c #9ABA98",
"h	c #9AC69A",
"i	c #9AC99A",
"j	c #9ACB9B",
"k	c #9ACD9B",
"l	c #9BC59A",
"m	c #939792",
"n	c #939993",
"o	c #9BC099",
"p	c #9AC59A",
"q	c #939A93",
"r	c #939893",
"s	c #929592",
"     ..     ",
"   +@#$%&   ",
" *=-;#$>,') ",
"!~{]^/#$>,$!",
"!(_{:^/#<[,!",
"!}(_|:^/1<[!",
"!2}345:6/7<!",
"!89}04a:6b7!",
"!c82}d4a:6b!",
"!ec82}d4f-%!",
" +ghijkd{l= ",
"  mno89pqr  ",
"    ssss    "};
