/* XPM */
static char * icq_online_xpm[] = {
"12 13 93 2",
"  	c None",
". 	c #020C02",
"+ 	c #020D02",
"@ 	c #041704",
"# 	c #1A9219",
"$ 	c #1CAC1C",
"% 	c #1CB11D",
"& 	c #1B9F1B",
"* 	c #041A04",
"= 	c #061D05",
"- 	c #052105",
"; 	c #19A11B",
"> 	c #1AA61C",
", 	c #1AAB1C",
"' 	c #1BB01D",
") 	c #1CB51E",
"! 	c #1CB91E",
"~ 	c #062806",
"{ 	c #062506",
"] 	c #000000",
"^ 	c #198A17",
"/ 	c #179719",
"( 	c #189C1A",
"_ 	c #19A21B",
": 	c #1AA71C",
"< 	c #1AAC1C",
"[ 	c #1BB11D",
"} 	c #1CB61E",
"| 	c #1CB01D",
"1 	c #168D17",
"2 	c #179218",
"3 	c #189D1A",
"4 	c #1AA81C",
"5 	c #1BAD1C",
"6 	c #1BB21D",
"7 	c #1CB71E",
"8 	c #158816",
"9 	c #189819",
"0 	c #19A31B",
"a 	c #1BAD1D",
"b 	c #1CB21E",
"c 	c #148416",
"d 	c #148816",
"e 	c #168E18",
"f 	c #169418",
"g 	c #18981A",
"h 	c #189E1A",
"i 	c #19A41A",
"j 	c #1AAE1C",
"k 	c #1CB31E",
"l 	c #137F14",
"m 	c #148415",
"n 	c #158916",
"o 	c #158F17",
"p 	c #179919",
"q 	c #189F1A",
"r 	c #19A41B",
"s 	c #1AA91B",
"t 	c #1BAF1C",
"u 	c #127A13",
"v 	c #137F15",
"w 	c #158A16",
"x 	c #168F17",
"y 	c #179A19",
"z 	c #1AAA1C",
"A 	c #137013",
"B 	c #127A14",
"C 	c #148516",
"D 	c #158A17",
"E 	c #169017",
"F 	c #179518",
"G 	c #189B19",
"H 	c #18A01A",
"I 	c #1B9D1B",
"J 	c #145E10",
"K 	c #137B14",
"L 	c #138115",
"M 	c #148616",
"N 	c #158B17",
"O 	c #179618",
"P 	c #167915",
"Q 	c #062106",
"R 	c #030C02",
"S 	c #031103",
"T 	c #166C12",
"U 	c #157F15",
"V 	c #158415",
"W 	c #147914",
"X 	c #031503",
"Y 	c #031003",
"Z 	c #020801",
"` 	c #020902",
" .	c #010801",
"          . +           ",
"      @ # $ % & *       ",
"  = - ; > , ' ) ! ~ {   ",
"] ^ / ( _ : < [ } ! | ] ",
"] 1 2 / 3 _ 4 5 6 7 ! ] ",
"] 8 1 2 9 3 0 4 a b 7 ] ",
"] c d e f g h i 4 j k ] ",
"] l m n o f p q r s t ] ",
"] u v c w x f y q r z ] ",
"] A B v C D E F G H I ] ",
"  @ J K L M N E O P Q   ",
"    R S T U V W X Y     ",
"        Z ` `  .        "};
