/* XPM */
static char * ignore_xpm[] = {
"24 24 74 1",
" 	c None",
".	c #000000",
"+	c #383100",
"@	c #5F5300",
"#	c #8D7C00",
"$	c #BDA500",
"%	c #CBB100",
"&	c #7E6D00",
"*	c #4B4000",
"=	c #D1B300",
"-	c #E5C400",
";	c #E9C800",
">	c #D2B400",
",	c #625300",
"'	c #372E09",
")	c #C9A900",
"!	c #EBC700",
"~	c #EBC800",
"{	c #E2C000",
"]	c #8E7900",
"^	c #826E00",
"/	c #5D5328",
"(	c #AA8B00",
"_	c #DEB700",
":	c #CDAA00",
"<	c #3F3600",
"[	c #5D4E00",
"}	c #1E1703",
"|	c #090701",
"1	c #533D10",
"2	c #9D8211",
"3	c #CBA501",
"4	c #977B01",
"5	c #322B0A",
"6	c #54491D",
"7	c #352D14",
"8	c #7E7140",
"9	c #BA9406",
"0	c #A0810D",
"a	c #43380F",
"b	c #3F3A25",
"c	c #807451",
"d	c #B08A07",
"e	c #B58C02",
"f	c #8A6E0F",
"g	c #372F14",
"h	c #837241",
"i	c #9D7912",
"j	c #C09103",
"k	c #D09E00",
"l	c #AB8409",
"m	c #211903",
"n	c #886A1D",
"o	c #A87E0B",
"p	c #AB7E01",
"q	c #B58600",
"r	c #987100",
"s	c #1F1802",
"t	c #373225",
"u	c #996F06",
"v	c #A97900",
"w	c #845F00",
"x	c #493501",
"y	c #090805",
"z	c #302C21",
"A	c #9B6B02",
"B	c #845C00",
"C	c #372600",
"D	c #050401",
"E	c #8B5D00",
"F	c #5B3E00",
"G	c #3E2A00",
"H	c #0F0A00",
"I	c #0B0700",
"                        ",
"                        ",
"                        ",
"                        ",
"             ..+        ",
"            @.#.        ",
"           ..$%.&*      ",
"          ..=-;>.,      ",
"         '.)!~{]^.      ",
"        /.(_:<[}|1      ",
"        .234567         ",
"        8.90ab          ",
"        c.defg          ",
"       h.ijklm          ",
"      n.opqrst          ",
"      .uvwxyz           ",
"      .ABCD             ",
"     .EFGHI             ",
"     ....               ",
"     ..                 ",
"                        ",
"                        ",
"                        ",
"                        "};
