/* XPM */
static char * invite_btn_xpm[] = {
"24 24 135 2",
"  	c None",
". 	c #838383",
"+ 	c #7F7F7F",
"@ 	c #A1A19F",
"# 	c #8E8E8D",
"$ 	c #757575",
"% 	c #6C6C6C",
"& 	c #666666",
"* 	c #545454",
"= 	c #8F8F8F",
"- 	c #7C7C7C",
"; 	c #BFBAA3",
"> 	c #D7CEA2",
", 	c #60605F",
"' 	c #7A7A78",
") 	c #787773",
"! 	c #525252",
"~ 	c #595959",
"{ 	c #9C9C9C",
"] 	c #A2A2A2",
"^ 	c #828078",
"/ 	c #E4D89F",
"( 	c #EFE19D",
"_ 	c #7A7872",
": 	c #9A9A95",
"< 	c #B2B0A4",
"[ 	c #52514F",
"} 	c #8E8E8E",
"| 	c #B9B6A9",
"1 	c #CEC9B1",
"2 	c #A3A3A3",
"3 	c #7A7974",
"4 	c #CDC391",
"5 	c #BEB58B",
"6 	c #585858",
"7 	c #D0CDBD",
"8 	c #9F9C8E",
"9 	c #A4A39C",
"0 	c #EBDFA6",
"a 	c #A8A69A",
"b 	c #858585",
"c 	c #898989",
"d 	c #7D7D7D",
"e 	c #7A7A7A",
"f 	c #919191",
"g 	c #BABABA",
"h 	c #656565",
"i 	c #CDC5A3",
"j 	c #E6DAA3",
"k 	c #9E9C93",
"l 	c #848484",
"m 	c #777777",
"n 	c #8A8882",
"o 	c #DAD4B4",
"p 	c #727272",
"q 	c #A9A79F",
"r 	c #F1E29D",
"s 	c #EEE1A1",
"t 	c #CBC5A8",
"u 	c #CDC7A8",
"v 	c #EEE1A2",
"w 	c #E3D9A9",
"x 	c #8B8B8B",
"y 	c #E8DCA5",
"z 	c #F2E39B",
"A 	c #F2E39C",
"B 	c #BDB8A0",
"C 	c #CDC7A7",
"D 	c #F0E2A2",
"E 	c #8A8881",
"F 	c #B1AC95",
"G 	c #F1E39C",
"H 	c #817E6E",
"I 	c #939081",
"J 	c #F0E19C",
"K 	c #737061",
"L 	c #7F7C70",
"M 	c #F1E39E",
"N 	c #F1E39B",
"O 	c #636051",
"P 	c #6E6C65",
"Q 	c #F0E3A2",
"R 	c #706D5C",
"S 	c #6E6C64",
"T 	c #F0E3A0",
"U 	c #A39D81",
"V 	c #410000",
"W 	c #5E0000",
"X 	c #88867B",
"Y 	c #F1E3A0",
"Z 	c #98937D",
"` 	c #B00000",
" .	c #FF0000",
"..	c #6A0000",
"+.	c #ABA58B",
"@.	c #AEA98C",
"#.	c #525251",
"$.	c #DED197",
"%.	c #D4CA99",
"&.	c #DBD1A0",
"*.	c #EBDFA2",
"=.	c #DCCF8F",
"-.	c #CEC38D",
";.	c #660000",
">.	c #656461",
",.	c #BAB28C",
"'.	c #696966",
").	c #6D0000",
"!.	c #E60000",
"~.	c #C60000",
"{.	c #3E0000",
"].	c #464646",
"^.	c #696967",
"/.	c #9F0000",
"(.	c #5A0000",
"_.	c #343434",
":.	c #797979",
"<.	c #420000",
"[.	c #671010",
"}.	c #783131",
"|.	c #681717",
"1.	c #890000",
"2.	c #3F3F3F",
"3.	c #565656",
"4.	c #818181",
"5.	c #505050",
"6.	c #2D2D2D",
"7.	c #6A6A6A",
"8.	c #969696",
"9.	c #262626",
"0.	c #555555",
"a.	c #4C4C4C",
"b.	c #494949",
"c.	c #5F3939",
"d.	c #5D0909",
"          . +         @ # $       % +           ",
"          & * =     - ; > ,     ' ) !           ",
"            ~ { ]   ^ / ( _   : < [             ",
"            } | 1 2 3 4 5 6   7 8 ~             ",
"              9 0 a b c d e f g h               ",
"                i j k l m n o p                 ",
"                q r s t u v w 6                 ",
"                x y z z z A B                   ",
"                  C z z z D E                   ",
"                  F z z z G H                   ",
"                  I z z z J K                   ",
"                  L M z z N O                   ",
"                  P Q z z z R                   ",
"                  S T z z z U     V W           ",
"                  X Y z z z Z     `  ...        ",
"                  +.z z z z @.    `  ...        ",
"                #.$.%.&.*.=.-.    `  .;.        ",
"                >.,.'.    ).` ` ` !. .~.` ` ` {.",
"              ].b ^.      /. . . . . . . . . .(.",
"              _.:.        <.[.}.|.~. .1.......  ",
"            2.3.d             :.4.`  ...        ",
"          5.6.7.              $ 8.`  ...        ",
"        m 9.0.                  a.`  ...        ",
"          b.!                     c.d.          "};
