/* XPM */
static char * invite_btn_xpm[] = {
"24 24 4 1",
" 	c None",
".	c #000000",
"+	c #FFFF66",
"@	c #C40000",
"                        ",
"                        ",
"                        ",
"     ...                ",
"    .++...              ",
"    .+.+++.             ",
"     ..+++.             ",
"   ..++...              ",
"  .++..+++..            ",
"  .+.+++++++.           ",
"  .+.+++++++.           ",
"  .+.+++++++.           ",
"  ...+++++++.   ....    ",
"    ..+++++..   .@@.    ",
"    .+.+++.     .@@.    ",
"    .+.+++.  ....@@.... ",
"    .+.+++.  .@@@@@@@@. ",
"    ...+++.  .@@@@@@@@. ",
"      .....  ....@@.... ",
"                .@@.    ",
"                .@@.    ",
"                ....    ",
"                        ",
"                        "};
