/* XPM */
static char *jabber_online_xpm[] = {
/* columns rows colors chars-per-pixel */
"12 13 90 1",
"  c Gray0",
". c #67720b",
"X c #737c09",
"o c #717e17",
"O c #75800b",
"+ c #7c8608",
"@ c #7d8708",
"# c #7f8808",
"$ c #828d09",
"% c #838e09",
"& c #858f09",
"* c #869009",
"= c #869109",
"- c #899409",
"; c #88940b",
": c #8a9509",
"> c #8c9609",
", c #8c9709",
"< c #8d9809",
"1 c #869011",
"2 c #909b0a",
"3 c #909c0a",
"4 c #929d0a",
"5 c #939e0a",
"6 c #939f0a",
"7 c #95a00a",
"8 c #96a20a",
"9 c #97a30a",
"0 c #98a40a",
"q c #98a50a",
"w c #9aa60a",
"e c #9ba70a",
"r c #99a60c",
"t c #9ba80c",
"y c #9ca80a",
"u c #9daa0b",
"i c #9eab0b",
"p c #9fac0b",
"a c #92a117",
"s c #9eb01e",
"d c #a0ad0b",
"f c #a1ae0b",
"g c #a2af0b",
"h c #a4b10b",
"j c #a5b20b",
"k c #a6b30b",
"l c #a7b40b",
"z c #a8b50b",
"x c #a9b60b",
"c c #aab70b",
"v c #abb90c",
"b c #adba0c",
"n c #adbb0c",
"m c #aebb0c",
"M c #aebc0c",
"N c #afbd0c",
"B c #aab915",
"V c #b1be0c",
"C c #b1bf0c",
"Z c #b0bf0e",
"A c #b2c00c",
"S c #b3c10c",
"D c #b4c20c",
"F c #b5c30c",
"G c #b6c40c",
"H c #b7c50c",
"J c #b8c60c",
"K c #b9c80d",
"L c #bbc90d",
"P c #bccb0d",
"I c #bdcc0d",
"U c #becc0d",
"Y c #becd0d",
"T c #bfce0d",
"R c #c0d00d",
"E c #c2d20d",
"W c #c3d20d",
"Q c #c4d30d",
"! c #c4d40d",
"~ c #c7d70d",
"^ c #c7d70f",
"/ c #c7d80e",
"( c #cada0e",
") c #cadb0e",
"_ c #cbdc0f",
"` c #d0e00e",
"' c #d1e10e",
"] c #d1e20e",
"[ c #d6e60e",
"{ c None",
/* pixels */
"{{{{{  {{{{{",
"{{{ Z~~s {{{",
"{  ALE/`_  {",
" rhvALE(`[B ",
" 9ihbDPQ(`E ",
" 29ihbDIQ(I ",
" :4qplMGI~L ",
" $:4qdzMGIA ",
" +$>4qdzZJb ",
" X+&>4qhzZa ",
"{ .#=<9it1 {",
"{{  O==o  {{",
"{{{{    {{{{"
};
