/* XPM */
static char *jabber_away_xpm[] = {
/* columns rows colors chars-per-pixel */
"12 13 56 1",
"  c Gray0",
". c #929292",
"X c #bec296",
"o c #c3c795",
"O c #c2c79b",
"+ c #c3c896",
"@ c #c7cb95",
"# c #c7cc95",
"$ c #cace95",
"% c #cbcf95",
"& c #cbcf99",
"* c #cdd195",
"= c #ccd196",
"- c #ced295",
"; c #ced496",
": c #cfd69b",
"> c #d0d596",
", c #d1d696",
"< c #d2d796",
"1 c #d2d896",
"2 c #d3d896",
"3 c #d3d897",
"4 c #d3d997",
"5 c #d4d996",
"6 c #d5da96",
"7 c #d5db96",
"8 c #d6db96",
"9 c #d7dc96",
"0 c #d5dd9e",
"q c #d8dd96",
"w c #d8de96",
"e c #d9df96",
"r c #dbe096",
"t c #dbe197",
"y c #dce297",
"u c #dde397",
"i c #dee497",
"p c #dfe597",
"a c #dbe19a",
"s c #e0e697",
"d c #e1e797",
"f c #e2e897",
"g c #e2e997",
"h c #e3ea97",
"j c #e4eb97",
"k c #e5eb97",
"l c #e6ec97",
"z c #e6ed97",
"x c #e7ee97",
"c c #e7ed98",
"v c #e9ef97",
"b c #ebf197",
"n c #ecf297",
"m c #edf497",
"M c #e9f098",
"N c None",
/* pixels */
"NNNNN..NNNNN",
"NNN.uzc0.NNN",
"N..idhzbM..N",
".3qtidjvnma.",
".>8qtihzvnj.",
".;>8qtihzvh.",
".*;38quihzd.",
".$*>38qudhi.",
".@$*>39qudt.",
".o@$*>89tu:.",
"N.X#$*>83&.N",
"NN..+$*O..NN",
"NNNN....NNNN"
};
