/* XPM */
static char * log_xpm[] = {
"27 24 128 2",
"  	c None",
". 	c #9F6220",
"+ 	c #B2742F",
"@ 	c #9A6835",
"# 	c #7C562D",
"$ 	c #694116",
"% 	c #A56A30",
"& 	c #B47D47",
"* 	c #AE7E4B",
"= 	c #5D4018",
"- 	c #63441C",
"; 	c #6E4B24",
"> 	c #A3713E",
", 	c #C09057",
"' 	c #B08350",
") 	c #241808",
"! 	c #402B11",
"~ 	c #5C421F",
"{ 	c #7A5A2F",
"] 	c #AC7C44",
"^ 	c #B8824A",
"/ 	c #AF804C",
"( 	c #8C693F",
"_ 	c #0A0602",
": 	c #2B1C0B",
"< 	c #563C19",
"[ 	c #8A5C27",
"} 	c #B37C3C",
"| 	c #C08F51",
"1 	c #B38852",
"2 	c #947044",
"3 	c #060401",
"4 	c #281B09",
"5 	c #5A3E18",
"6 	c #875C25",
"7 	c #AD7739",
"8 	c #B88044",
"9 	c #B48249",
"0 	c #9C7140",
"a 	c #0F0C06",
"b 	c #2A1F0F",
"c 	c #4B3619",
"d 	c #815825",
"e 	c #A86F31",
"f 	c #B57B40",
"g 	c #B17C45",
"h 	c #A47644",
"i 	c #786339",
"j 	c #79603C",
"k 	c #6C5537",
"l 	c #6E542E",
"m 	c #825A2A",
"n 	c #AA7336",
"o 	c #BB8246",
"p 	c #B98248",
"q 	c #B37F45",
"r 	c #916130",
"s 	c #594825",
"t 	c #7A6539",
"u 	c #886F40",
"v 	c #8C6E3E",
"w 	c #806033",
"x 	c #7C5A2C",
"y 	c #95652B",
"z 	c #B07637",
"A 	c #BB8548",
"B 	c #C08B50",
"C 	c #B18048",
"D 	c #8B5F30",
"E 	c #2A2111",
"F 	c #2E2613",
"G 	c #40331A",
"H 	c #55411F",
"I 	c #5B401B",
"J 	c #70471A",
"K 	c #8B5720",
"L 	c #A36A2E",
"M 	c #B47C41",
"N 	c #BF9157",
"O 	c #B1864F",
"P 	c #966D3C",
"Q 	c #020101",
"R 	c #050402",
"S 	c #151108",
"T 	c #231A0A",
"U 	c #3A260D",
"V 	c #563510",
"W 	c #764818",
"X 	c #925E27",
"Y 	c #AC783E",
"Z 	c #B98C53",
"` 	c #B18A56",
" .	c #9F7B4A",
"..	c #75542F",
"+.	c #030201",
"@.	c #050401",
"#.	c #211507",
"$.	c #442B0E",
"%.	c #65421A",
"&.	c #825D2C",
"*.	c #A0763E",
"=.	c #AE824C",
"-.	c #AE8854",
";.	c #A37A49",
">.	c #765731",
",.	c #010100",
"'.	c #0F0A03",
").	c #2F210D",
"!.	c #513C1B",
"~.	c #76582D",
"{.	c #97703A",
"].	c #A87D45",
"^.	c #A37F4D",
"/.	c #614B2F",
"(.	c #080602",
"_.	c #23190A",
":.	c #483618",
"<.	c #6B5027",
"[.	c #8B6836",
"}.	c #926F3E",
"|.	c #40321E",
"1.	c #1F1709",
"2.	c #413418",
"3.	c #534120",
"4.	c #43321A",
"5.	c #110D07",
"6.	c #131008",
"7.	c #040302",
"                                                      ",
"                                                      ",
"                                                      ",
"              . + @ #                                 ",
"              $ % & *                                 ",
"            = - ; > , '                               ",
"            ) ! ~ { ] ^ / (                           ",
"              _ : < [ } | 1 2                         ",
"                3 4 5 6 7 8 9 0                       ",
"                  a b c d e f g h                     ",
"                  i j k l m n o p q r                 ",
"                s t u v w x y z A B C D               ",
"                  E F G H I J K L M N O P             ",
"                    Q R S T U V W X Y Z `  ...        ",
"                          +.@.#.$.%.&.*.=.-.;.>.      ",
"                              ,.'.).!.~.{.].^./.      ",
"                                  (._.:.<.[.}.|.      ",
"                                    +.1.2.3.4.5.      ",
"                                      +.S 6.7.        ",
"                                                      ",
"                                                      ",
"                                                      ",
"                                                      ",
"                                                      "};
