/* XPM */
static char * lovey_xpm[] = {
"16 16 23 1",
" 	c None",
".	c #000000",
"+	c #990000",
"@	c #F7F300",
"#	c #EFE700",
"$	c #EFE300",
"%	c #E7DF00",
"&	c #FF0000",
"*	c #DED300",
"=	c #DECF00",
"-	c #D6C300",
";	c #D6BE00",
">	c #FFFFFF",
",	c #CEB600",
"'	c #0000FF",
")	c #CEAE00",
"!	c #C6A600",
"~	c #BD9E00",
"{	c #663333",
"]	c #FFCCCC",
"^	c #FF9999",
"/	c #BD9600",
"(	c #BD9200",
"     ...... + + ",
"    .@@#$$%. &  ",
"  ..@##$$%%*.&  ",
" .@@##$%%**==-. ",
" .##..%%*=..-;. ",
".##.>>.*=.>>.,,.",
".$$.>'.=-.'>.,).",
".$%*..=--;..))!.",
".%**=--;;,,)!!~.",
".*==--;;,++!!{{.",
".==..;,,+]^+&^^{",
" .-;,...+^&&&&^{",
" .;,,!!!~+&&&&{ ",
"  ..)!!~~/+&&{  ",
"    .!~//((+{   ",
"     ......     "};
