/* XPM */
static char * msn_away_xpm[] = {
"12 13 47 1",
" 	c None",
".	c #929292",
"+	c #E59896",
"@	c #F19996",
"#	c #F29996",
"$	c #E99896",
"%	c #E99996",
"&	c #EC9996",
"*	c #EF9996",
"=	c #F39996",
"-	c #DC9795",
";	c #E29895",
">	c #E89896",
",	c #EB9996",
"'	c #DB9795",
")	c #DE9795",
"!	c #E19895",
"~	c #E49896",
"{	c #E79896",
"]	c #EE9996",
"^	c #D79795",
"/	c #DA9795",
"(	c #DD9795",
"_	c #EA9996",
":	c #ED9996",
"<	c #F09996",
"[	c #D39795",
"}	c #E09895",
"|	c #E39896",
"1	c #E69896",
"2	c #D09794",
"3	c #D69795",
"4	c #D99795",
"5	c #DF9895",
"6	c #CC9694",
"7	c #CF9694",
"8	c #D29794",
"9	c #D89795",
"0	c #C89694",
"a	c #CB9694",
"b	c #CE9694",
"c	c #D59795",
"d	c #C79694",
"e	c #D19794",
"f	c #D49795",
"g	c #CA9694",
"h	c #CD9694",
"     ..     ",
"   .+@#$.   ",
" ..%&*#==.. ",
".-;+>,*@==*.",
".')!~{,]@==.",
".^/(!~{_:<=.",
".[^/(}|1_:<.",
".2[34-5|1$&.",
".67839'5;+>.",
".0ab8c9')!~.",
" .dabef^/). ",
"  ..gh2[..  ",
"    ....    "};

#define APT psmileys=add_protocol_smiley(psmileys, "M3r3dydd", "dude");
