/* XPM */
static char * msn_online_xpm[] = {
"12 13 75 1",
" 	c None",
".	c #000000",
"+	c #C4100A",
"@	c #DF120B",
"#	c #E2120B",
"$	c #CC100A",
"%	c #CC110A",
"&	c #D4110B",
"*	c #DB120B",
"=	c #E1120B",
"-	c #E5120B",
";	c #AF0E09",
">	c #BC0F09",
",	c #CB100A",
"'	c #D2110A",
")	c #DA120B",
"!	c #E0120B",
"~	c #DB110B",
"{	c #AC0E09",
"]	c #B30E09",
"^	c #BB0F09",
"/	c #C2100A",
"(	c #C9100A",
"_	c #D1110A",
":	c #D8110B",
"<	c #E4120B",
"[	c #A30D08",
"}	c #AA0E08",
"|	c #B10E09",
"1	c #B90F09",
"2	c #C1100A",
"3	c #C8100A",
"4	c #CE110A",
"5	c #D7110B",
"6	c #DE120B",
"7	c #E3120B",
"8	c #9A0C08",
"9	c #A20D08",
"0	c #A90D08",
"a	c #B00E09",
"b	c #B80F09",
"c	c #BF0F0A",
"d	c #C6100A",
"e	c #D5110B",
"f	c #DC120B",
"g	c #920C07",
"h	c #990C08",
"i	c #A00D08",
"j	c #A80E08",
"k	c #B60F09",
"l	c #BE0F0A",
"m	c #C5100A",
"n	c #890B07",
"o	c #900B07",
"p	c #970C07",
"q	c #A60D08",
"r	c #AD0E09",
"s	c #B50F09",
"t	c #BD0F09",
"u	c #800A06",
"v	c #870B07",
"w	c #8E0B07",
"x	c #960C07",
"y	c #9D0D08",
"z	c #A50D08",
"A	c #7E0A06",
"B	c #860B06",
"C	c #8D0B07",
"D	c #940C07",
"E	c #9C0D08",
"F	c #B20E09",
"G	c #850A06",
"H	c #8C0B07",
"I	c #930C07",
"J	c #9A0D08",
"     ..     ",
"   .+@#$.   ",
" ..%&*=--.. ",
".;>+,')!--~.",
".{]^/(_:!<-.",
".[}|1234567.",
".890abcd4ef.",
".ghij;klm$&.",
".nopiqrst+,.",
".uvwxyz{]^/.",
" .ABCDE[}F. ",
"  ..GHIJ..  ",
"    ....    "};
