/* XPM */
static const char * no_such_smiley_xpm[] = {
"16 16 18 1",
" 	c None",
".	c #000000000000",
"X	c #F7F7F3F30000",
"o	c #EFEFEFEF0000",
"O	c #E7E7E7E70000",
"+	c #E7E7E3E30000",
"@	c #DEDEDBDB0000",
"#	c #FFFFFFFF0000",
"$	c #CECECBCB0000",
"%	c #D6D6D3D30000",
"&	c #C6C6BEBE0000",
"*	c #C6C6BABA0000",
"=	c #BDBDB6B60000",
"-	c #D6D6CFCF0000",
";	c #B5B5AEAE0000",
":	c #B5B5AAAA0000",
">	c #ADADA2A20000",
",	c #A5A59A9A0000",
"     ......     ",
"    .XoOO+@.    ",
"  ..Xo.....#..  ",
" .XXo..+@...$$. ",
" .XoO...%...$&. ",
".XoOO...%...&*=.",
".oOO+@.%-...*==.",
".OO+@%%-$..*==;.",
".O+@%%-$..*==;:.",
".+@%%-$$.*==;::.",
".@%%-$$&.==;::>.",
" .%-$$&*==;::>. ",
" .-$$&*...::>,. ",
"  ..&*=...:>..  ",
"    .==...>.    ",
"     ......     "};
