/* XPM */
static const char * nomodule_online_xpm[] = {
"12 13 52 1",
" 	c None",
".	c #010101",
"+	c #666666",
"@	c #727272",
"#	c #737373",
"$	c #676767",
"%	c #6A6A6A",
"&	c #6E6E6E",
"*	c #777777",
"=	c #757575",
"-	c #595959",
";	c #5E5E5E",
">	c #626262",
",	c #6B6B6B",
"'	c #6F6F6F",
")	c #747474",
"!	c #7A7A7A",
"~	c #565656",
"{	c #5A5A5A",
"]	c #636363",
"^	c #6C6C6C",
"/	c #707070",
"(	c #787878",
"_	c #525252",
":	c #5B5B5B",
"<	c #5F5F5F",
"[	c #6D6D6D",
"}	c #4E4E4E",
"|	c #535353",
"1	c #575757",
"2	c #646464",
"3	c #686868",
"4	c #4B4B4B",
"5	c #4F4F4F",
"6	c #5C5C5C",
"7	c #606060",
"8	c #474747",
"9	c #545454",
"0	c #585858",
"a	c #656565",
"b	c #696969",
"c	c #424242",
"d	c #4C4C4C",
"e	c #505050",
"f	c #5D5D5D",
"g	c #616161",
"h	c #3E3E3E",
"i	c #484848",
"j	c #555555",
"k	c #454545",
"l	c #4D4D4D",
"m	c #4A4A4A",
"     ..     ",
"   .+@#$.   ",
" ..+%&#*=.. ",
".-;>+,')*!$.",
".~{;]$^/)('.",
"._~:<]$^/)[.",
".}|1:<23^/%.",
".45|16723[+.",
".8459067ab].",
".c8de90fga6.",
" .hidej-{e. ",
"  ..kl5m..  ",
"    ....    "};
