/* XPM */
static const char * note_xpm[] = {
"16 16 3 1",
" 	c None",
".	c #7B7D7B",
"+	c #000000",
"        ..      ",
"        .+..    ",
"        .+++.   ",
"        .++++.  ",
"        .++++.  ",
"        .++.+.  ",
"        .++...  ",
"        .++.    ",
"        .++.    ",
"     ....++.    ",
"    .++++++.    ",
"   .+++++++.    ",
"   .+++++++.    ",
"   .++++++.     ",
"    .++++.      ",
"     ....       "};
