/* XPM */
static char * oh_xpm[] = {
"16 16 26 1",
" 	c None",
".	c #000000",
"+	c #F7F300",
"@	c #EFE700",
"#	c #EFE300",
"$	c #E7DF00",
"%	c #DED300",
"&	c #999933",
"*	c #777777",
"=	c #5C5C5C",
"-	c #DECF00",
";	c #D6C300",
">	c #D6BE00",
",	c #CCCC33",
"'	c #9CA3AB",
")	c #330099",
"!	c #CEB600",
"~	c #CC9933",
"{	c #666666",
"]	c #848284",
"^	c #CEAE00",
"/	c #C6A600",
"(	c #BD9E00",
"_	c #BD9600",
":	c #663333",
"<	c #BD9200",
"     ......     ",
"    .++@##$.    ",
"  ..+@@##$$%..  ",
" .++&*=$$=*&-;. ",
" .@&@@$&&-;>&>. ",
".@@,@'),,)'>,!!.",
".##,~''{]''~,!^.",
".#$%%]{,,{]!^^/.",
".$%%-;;>>!!^//(.",
".%--;;>>!^^//(_.",
".-->>>~..~/(___.",
" .;>!!.::.(__<. ",
" .>!!/.::.__<<. ",
"  ..^/~::~_<..  ",
"    ./(__<<.    ",
"     ......     "};
