/* XPM */
static char * penguin_talk_xpm[] = {
"27 27 94 2",
"  	c None",
". 	c #272727",
"+ 	c #3F3F3F",
"@ 	c #4C4C4C",
"# 	c #3C3C3C",
"$ 	c #242424",
"% 	c #484848",
"& 	c #9C9C9C",
"* 	c #D3D3D3",
"= 	c #EFEFEF",
"- 	c #FDFDFD",
"; 	c #FCFCFC",
"> 	c #ECECEC",
", 	c #CECECE",
"' 	c #8E8E8E",
") 	c #343434",
"! 	c #7E7E7E",
"~ 	c #FFFFFF",
"{ 	c #EAEAEA",
"] 	c #545454",
"^ 	c #030303",
"/ 	c #5E5E5E",
"( 	c #F4F2F2",
"_ 	c #FECFCF",
": 	c #FFF8F8",
"< 	c #FFDADA",
"[ 	c #FFECEC",
"} 	c #FFE2E2",
"| 	c #FFE4E4",
"1 	c #323232",
"2 	c #000000",
"3 	c #ACACAC",
"4 	c #FFF6F6",
"5 	c #FF5757",
"6 	c #FFD8D8",
"7 	c #FF7373",
"8 	c #FFB4B4",
"9 	c #FF8D8D",
"0 	c #FF9A9A",
"a 	c #8D8D8D",
"b 	c #CACACA",
"c 	c #FFFDFD",
"d 	c #FF6969",
"e 	c #FFF7F7",
"f 	c #FF9191",
"g 	c #FFCECE",
"h 	c #FFB0B0",
"i 	c #FFAEAE",
"j 	c #ABABAB",
"k 	c #ADADAD",
"l 	c #FF7878",
"m 	c #FF9F9F",
"n 	c #FFD7D7",
"o 	c #FFBEBE",
"p 	c #FFB9B9",
"q 	c #595959",
"r 	c #F5F3F3",
"s 	c #FFA9A9",
"t 	c #FFBCBC",
"u 	c #FFE3E3",
"v 	c #FFD1D1",
"w 	c #F1F1F1",
"x 	c #353535",
"y 	c #FFF5F5",
"z 	c #FFFEFE",
"A 	c #FFFBFB",
"B 	c #FFF9F9",
"C 	c #EDE7E7",
"D 	c #616161",
"E 	c #040404",
"F 	c #151515",
"G 	c #8B8B8B",
"H 	c #F7F7F7",
"I 	c #FAFAFA",
"J 	c #A9A9A9",
"K 	c #383838",
"L 	c #010101",
"M 	c #080808",
"N 	c #686868",
"O 	c #DFDFDF",
"P 	c #FBFBFB",
"Q 	c #BFBFBF",
"R 	c #1A1A1A",
"S 	c #7B7B7B",
"T 	c #DEDEDE",
"U 	c #414141",
"V 	c #969696",
"W 	c #C2C2C2",
"X 	c #D8D8D8",
"Y 	c #363636",
"Z 	c #0F0F0F",
"` 	c #1E1E1E",
" .	c #303030",
"..	c #121212",
"                                                      ",
"                                                      ",
"                                                      ",
"                                                      ",
"                                                      ",
"                                                      ",
"                    . + @ @ # $                       ",
"                % & * = - ; > , ' )                   ",
"              ! = ~ ~ ~ ~ ~ ~ ~ ~ { ] ^               ",
"            / ( _ : ~ ~ < [ ~ ~ } | = 1 2             ",
"            3 4 5 6 ~ ~ 7 8 ~ ~ 9 0 ~ a 2             ",
"            b c d e ~ ~ f g ~ ~ h i ~ j 2 2           ",
"            k ~ l ~ ~ ~ m n ~ ~ o p ~ a 2 2           ",
"            q r s e ~ ~ t u ~ ~ v g w x 2 2           ",
"              a y z ~ ~ : A ~ ~ B C D E 2             ",
"              F G H ~ ~ ~ ~ ~ I J K L 2 2             ",
"                M N O P ~ ~ ~ Q F 2 2 2               ",
"                  2 R S T ~ ~ > U 2 2 2               ",
"                      2 ^ % V W X Y 2 2               ",
"                          2 ^ Z `  ...2               ",
"                              2 2 2 2 2               ",
"                                                      ",
"                                                      ",
"                                                      ",
"                                                      ",
"                                                      ",
"                                                      "};
