/* XPM */
static char * reconnect_xpm[] = {
"22 22 4 1",
" 	c None",
".	c #000000",
"+	c #545454",
"@	c #919191",
"           ..         ",
"        ......        ",
"      ... ...         ",
"    ...   ..     .    ",
"   ..     .      ..   ",
"   .              .   ",
"  ..              ..  ",
"  .   ++++ ++++    .  ",
" ..  +@@@+ +@@@+   .. ",
" . +++@@@+ +@@@++++ . ",
" . @@@@@@+ +@@@@@@@ . ",
" . +++@@@+ +@@@++++ . ",
" .   +@@@+ +@@@+    . ",
" ..   ++++ ++++    .. ",
"  .                .  ",
"  ..              ..  ",
"   .              .   ",
"   .     .       ..   ",
"        ..     ...    ",
"       ...   ...      ",
"      ........        ",
"       ..             "};
