/* XPM */
static char * smiley_button_xpm[] = {
"24 24 16 1",
" 	c None",
".	c #FFFFFF",
"+	c #FFFF33",
"@	c #FFFF00",
"#	c #FFBD00",
"$	c #CCCC66",
"%	c #CCCC33",
"&	c #CC9933",
"*	c #C0C0C0",
"=	c #929292",
"-	c #848200",
";	c #663333",
">	c #5C5C5C",
",	c #373737",
"'	c #336699",
")	c #000066",
"                        ",
"                        ",
"                        ",
"                        ",
"         ;;;;;;         ",
"       ;;++++++;;       ",
"      ;++++++++++;      ",
"     ;++++++++++++;     ",
"    ;%%++++++++++%%;    ",
"    )-%%%%%%%%%%%%-)    ",
"    ))))))),,)))))))    ",
"    ;%,>==>)'>==>,%;    ",
"    ;%%,,,'%%',,,%%;    ",
"    ;%+%&&%++%&&%+%;    ",
"    ;#++++++++++++%;    ",
"     ;++-%+++++++@;     ",
"     ;#++-%%%+++@#;     ",
"      ;#+@@@@@@@#;      ",
"       ;;#$$$$#;;       ",
"         ;;;;;;         ",
"                        ",
"                        ",
"                        ",
"                        "};
