/* XPM */
static const char * wine_xpm[] = {
"16 16 8 1",
" 	c None",
".	c #42424D4D4242",
"X	c #4A4A4D4D4A4A",
"o	c #FFFF00000000",
"O	c #D6D600000000",
"+	c #ADAD00000000",
"@	c #8C8C04040000",
"#	c #7B7B7D7D7B7B",
"                ",
"     .   .      ",
"     XoooX      ",
"     XooOX      ",
"     XoO+X      ",
"     XO++X      ",
"     X++@X      ",
"      XXX       ",
"       X        ",
"       X        ",
"       X        ",
"       X        ",
"     ##X##      ",
"    ###X###     ",
"     #####      ",
"                "};
