/* XPM */
static const char * workwizu_away_xpm[] = {
"12 13 67 1",
" 	c None",
".	c #707070",
"+	c #C79AC8",
"@	c #CB9CCC",
"#	c #CE9ECE",
"$	c #CDA3CE",
"%	c #BF96BF",
"&	c #C398C4",
"*	c #C89BC8",
"=	c #CD9DCD",
"-	c #B18FB2",
";	c #B692B6",
">	c #BB94BB",
",	c #BF97C0",
"'	c #C499C4",
")	c #C99BC9",
"!	c #CD9DCE",
"~	c #AD8EAE",
"{	c #B290B2",
"]	c #B792B7",
"^	c #BB95BC",
"/	c #C097C0",
"(	c #C599C5",
"_	c #C99BCA",
":	c #A98CAA",
"<	c #AE8EAE",
"[	c #B391B3",
"}	c #B793B8",
"|	c #BC95BC",
"1	c #C197C1",
"2	c #C59AC6",
"3	c #CA9CCB",
"4	c #A58AA6",
"5	c #AA8CAA",
"6	c #AF8EAF",
"7	c #B391B4",
"8	c #B893B8",
"9	c #BD96BD",
"0	c #C198C2",
"a	c #C69AC7",
"b	c #CB9CCB",
"c	c #A288A2",
"d	c #A68AA6",
"e	c #AB8DAC",
"f	c #AF8FB0",
"g	c #B491B5",
"h	c #B993BA",
"i	c #BD96BE",
"j	c #C298C3",
"k	c #9E869E",
"l	c #A388A3",
"m	c #A78AA8",
"n	c #AC8DAC",
"o	c #B18FB1",
"p	c #B592B6",
"q	c #BA94BA",
"r	c #9A849A",
"s	c #9F869F",
"t	c #A389A4",
"u	c #A88BA8",
"v	c #AD8DAD",
"w	c #9B859B",
"x	c #9F87A0",
"y	c #A489A4",
"z	c #A98CA9",
"A	c #A087A0",
"B	c #A589A5",
"     ..     ",
"   .+@#$.   ",
" ..%&*=##.. ",
".-;>,')!###.",
".~{]^/(_###.",
".:<[}|123##.",
".4567890ab#.",
".cdefghij+@.",
".klmnopq%&*.",
".rstuv-;>,'.",
" .wxyz~{]^. ",
"  ..AB:<..  ",
"    ....    "};
