/* XPM */
static char * yahoo_online_xpm[] = {
"12 13 82 1",
" 	c None",
".	c #0F0901",
"+	c #1C1101",
"@	c #B86C08",
"#	c #D27D09",
"$	c #D47D09",
"%	c #BC6E08",
"&	c #1F1201",
"*	c #241502",
"=	c #271802",
"-	c #C47609",
";	c #CC7A09",
">	c #D47E09",
",	c #D78009",
"'	c #2E1B02",
")	c #2B1902",
"!	c #000000",
"~	c #A96408",
"{	c #B66D08",
"]	c #BD7208",
"^	c #C57609",
"/	c #CD7B09",
"(	c #D37E09",
"_	c #D68009",
":	c #CE7A09",
"<	c #A86507",
"[	c #AF6908",
"}	c #B66E08",
"|	c #BE7208",
"1	c #C67709",
"2	c #D37F09",
"3	c #A16007",
"4	c #B06908",
"5	c #B76E08",
"6	c #BF7208",
"7	c #D47F09",
"8	c #9A5C07",
"9	c #A26007",
"0	c #A86508",
"a	c #B06A08",
"b	c #B86E08",
"c	c #C07208",
"d	c #CE7C09",
"e	c #935806",
"f	c #A26107",
"g	c #A96507",
"h	c #B16A08",
"i	c #C07308",
"j	c #C77709",
"k	c #CF7C09",
"l	c #D57F09",
"m	c #8C5306",
"n	c #AA6507",
"o	c #C87709",
"p	c #814C06",
"q	c #8C5406",
"r	c #945806",
"s	c #9C5D07",
"t	c #A36107",
"u	c #AA6607",
"v	c #BA6F08",
"w	c #C17308",
"x	c #C07209",
"y	c #1B1001",
"z	c #6F4006",
"A	c #945906",
"B	c #A26207",
"C	c #B26B08",
"D	c #955707",
"E	c #281802",
"F	c #0F0801",
"G	c #140C01",
"H	c #7F4A06",
"I	c #935807",
"J	c #995C07",
"K	c #8F5506",
"L	c #190F01",
"M	c #140B01",
"N	c #090500",
"O	c #0A0601",
"P	c #0B0701",
"Q	c #0A0600",
"     ..     ",
"   +@#$%&   ",
" *=-;>,,,') ",
"!~{]^/(_,,:!",
"!<[}|1/2,,,!",
"!3<4561/7,,!",
"!890abc1d7,!",
"!e8fghbijkl!",
"!me8fnhbiok!",
"!pqrstuhvwx!",
" yzqAsBuCDE ",
"  FGHIJKLM  ",
"    NOPQ    "};
