/* XPM */
static char * yahoo_away_xpm[] = {
"12 12 9 1",
" 	c None",
".	c #FF0000",
"+	c #000000",
"@	c #FFFFFF",
"#	c #FFFF00",
"$	c #000083",
"%	c #C5C2C5",
"&	c #838183",
"*	c #830000",
"    ....    ",
"  ..++++..  ",
" .++@@@@... ",
" .+@@@#.... ",
".+@@$@...#+.",
".+@%&...%#+.",
".+##...###+.",
".+#...##.#+.",
" ......*#+. ",
" ...####++. ",
"  ..++++..  ",
"    ....    "};
