/* XPM */
static const char * yahoo_sms_xpm[] = {
"12 13 53 1",
" 	c None",
".	c #0F0901",
"+	c #000080",
"@	c #000000",
"#	c #B86C08",
"$	c #D27D09",
"%	c #D47D09",
"&	c #BC6E08",
"*	c #1F1201",
"=	c #241502",
"-	c #C47609",
";	c #CC7A09",
">	c #D47E09",
",	c #D78009",
"'	c #2E1B02",
")	c #2B1902",
"!	c #A96408",
"~	c #BD7208",
"{	c #C57609",
"]	c #CD7B09",
"^	c #D37E09",
"/	c #D68009",
"(	c #CE7A09",
"_	c #D37F09",
":	c #808080",
"<	c #C0C0C0",
"[	c #C67709",
"}	c #D47F09",
"|	c #C07208",
"1	c #CE7C09",
"2	c #B86E08",
"3	c #C07308",
"4	c #C77709",
"5	c #CF7C09",
"6	c #D57F09",
"7	c #B16A08",
"8	c #C87709",
"9	c #AA6607",
"0	c #BA6F08",
"a	c #C17308",
"b	c #C07209",
"c	c #A26207",
"d	c #B26B08",
"e	c #955707",
"f	c #281802",
"g	c #995C07",
"h	c #8F5506",
"i	c #190F01",
"j	c #140B01",
"k	c #090500",
"l	c #0A0601",
"m	c #0B0701",
"n	c #0A0600",
"     ..     ",
"  +@#$%&*   ",
" =+-;>,,,') ",
"@!+~{]^/,,(@",
"@+++++]_,,,@",
"@+:<:+[]},,@",
"@+@@@+|[1},@",
"@+:<:+23456@",
"@+<:<+72385@",
"@+<:<+970ab@",
" +:<:+c9def ",
" +++++ghij  ",
"    klmn    "};
