/* XPM */
static const char * yahoo_away_xpm[] = {
"12 13 56 1",
" 	c None",
".	c #989592",
"+	c #9D9992",
"@	c #E0C095",
"#	c #EBC795",
"$	c #ECC795",
"%	c #E2C195",
"&	c #9F9992",
"*	c #A19A92",
"=	c #A29C92",
"-	c #E5C495",
";	c #E9C695",
">	c #EDC895",
",	c #A59D92",
"'	c #A49C92",
")	c #929292",
"!	c #DABC95",
"~	c #DFC095",
"{	c #E2C295",
"]	c #E6C495",
"^	c #EAC695",
"/	c #D9BD94",
"(	c #DCBE95",
"_	c #DFC195",
":	c #E3C295",
"<	c #ECC895",
"[	c #D6BB94",
"}	c #DDBE95",
"|	c #E0C195",
"1	c #D3B994",
"2	c #D7BB94",
"3	c #D9BD95",
"4	c #DDBF95",
"5	c #E4C295",
"6	c #EAC795",
"7	c #D0B794",
"8	c #DABD94",
"9	c #E4C395",
"0	c #E7C495",
"a	c #CDB594",
"b	c #C9B294",
"c	c #D1B794",
"d	c #D4B994",
"e	c #E1C195",
"f	c #9D9892",
"g	c #C1AD94",
"h	c #D1B894",
"i	c #DEBF95",
"j	c #A39C92",
"k	c #9A9792",
"l	c #C8B194",
"m	c #CFB694",
"n	c #9C9892",
"o	c #9A9692",
"p	c #959492",
"q	c #969492",
"     ..     ",
"   +@#$%&   ",
" *=-;$>>>,' ",
")!~{];$>>>^)",
")/(_:];<>>>)",
")[/}|:];<>>)",
")1234|5]6<>)",
")71284|906>)",
")a71284|906)",
")bacd284e95)",
" fgahd28icj ",
"  .kl71mno  ",
"    pqqq    "};
