/* XPM */
static char * zephyr_online_xpm[] = {
"11 12 3 1",
" 	c None",
".	c #000000",
"+	c #FF0000",
"...........",
".+++++++++.",
".+++++++++.",
"......++++.",
"    .++++..",
"   .++++.. ",
"  .++++..  ",
" .++++..   ",
".++++......",
".+++++++++.",
".+++++++++.",
"..........."};
