/* XPM */
static char * zephyr_hidden_xpm[] = {
"11 12 6 1",
" 	c None",
".	c #000000",
"+	c #004F00",
"@	c #FF0000",
"#	c #E5DDBE",
"$	c #473500",
"...........",
".+++@@@+++.",
"+.@@+@+@@@+",
"+...+++@@@+",
"+   +#+@@.+",
" +++###+++ ",
"  .#####.  ",
" .@$###$   ",
".@$$$#$$$..",
".@$$$$$$$@.",
".@@$$$$$@@.",
"..........."};
