/* XPM */
static const char * cake_xpm[] = {
"16 16 4 1",
" 	c None",
".	c #000000",
"+	c #8C7502",
"@	c #9B8D30",
"                ",
"                ",
"      ...       ",
"     .+++..     ",
"    .++++++.    ",
"   .++++++...   ",
"  .++++...@@.   ",
" .++...@@@@@.   ",
" ...@@@@@@@@.   ",
" .@@@@@@@@@@.   ",
" .@@@@@@@@...   ",
" .@@@@@...      ",
" .@@...         ",
" ...            ",
"                ",
"                "};
