/* XPM */
static const char * cat_xpm[] = {
"16 16 6 1",
" 	c None",
".	c #000000",
"+	c #C99F9F",
"@	c #A0A0A0",
"#	c #C4C4C4",
"$	c #FFFFFF",
"                ",
"   .        .   ",
"   ..      .+.  ",
"   .+.   ..+@.  ",
"   .@@...@@@@.  ",
"    .######@.   ",
"    ..#$..##.   ",
"    .#$$$.$$#.  ",
"   .$$$$$$$$$.  ",
" ...$...$...$.  ",
"  .$$$.$.$$$.   ",
" ....#$$$....   ",
"   .#####$$.    ",
"    .###$..     ",
"     ....       ",
"                "};
