/* XPM */
static const char * clock_xpm[] = {
"16 16 3 1",
" 	c None",
".	c #000000",
"+	c #6EA3E5",
"                ",
"     ......     ",
"    ..++++..    ",
"   ..++++++..   ",
"  ..++++++++..  ",
" ..+++.++++.+.. ",
" .+++...++..++. ",
" .++++.....+++. ",
" .+++++...++++. ",
" .++++++++++++. ",
" ..++++++++++.. ",
"  ..++++++++..  ",
"   ..++++++..   ",
"    ..++++..    ",
"     ......     ",
"                "};
