/* XPM */
static char * coffee_xpm[] = {
"16 16 5 1",
" 	c None",
".	c #000000",
"+	c #826C18",
"@	c #C9C93A",
"#	c #EDED31",
"                ",
"                ",
"                ",
"  ........      ",
" .++++++++.     ",
" ..........     ",
" .@@@@@@@#...   ",
" .@@@@@@@#. ..  ",
" .@@@@@@@#.  .  ",
" .@@@@@@@#.  .  ",
" .@@@@@@@#. ..  ",
" .@@@@@@@#...   ",
" .@@@@@@##..    ",
" ..######..     ",
"  ........      ",
"                "};
