/* XPM */
static const char * devil_xpm[] = {
"16 16 134 2",
"  	c None",
". 	c #806C73",
"+ 	c #8D5D65",
"@ 	c #79434E",
"# 	c #6B5863",
"$ 	c #9F676E",
"% 	c #674952",
"& 	c #6D4750",
"* 	c #8D5B61",
"= 	c #70535C",
"- 	c #5F353E",
"; 	c #AF535C",
"> 	c #5A3C47",
", 	c #883946",
"' 	c #9D4C58",
") 	c #6F4B52",
"! 	c #552C35",
"~ 	c #592B36",
"{ 	c #823940",
"] 	c #9D464D",
"^ 	c #A85D63",
"/ 	c #945057",
"( 	c #A23943",
"_ 	c #6A4C5A",
": 	c #592C39",
"< 	c #8E2937",
"[ 	c #84323C",
"} 	c #692C3A",
"| 	c #7B303C",
"1 	c #CA9AA1",
"2 	c #F7F4F4",
"3 	c #CDA2A7",
"4 	c #EEE2E3",
"5 	c #9E6A71",
"6 	c #8A7681",
"7 	c #512F3A",
"8 	c #582E3B",
"9 	c #59313A",
"0 	c #6A323C",
"a 	c #9A363D",
"b 	c #E7C4C7",
"c 	c #FFFFFF",
"d 	c #DACDD0",
"e 	c #E1DFE3",
"f 	c #BBA7AD",
"g 	c #8E7982",
"h 	c #5C323B",
"i 	c #542B33",
"j 	c #613038",
"k 	c #9E303D",
"l 	c #DBB9BC",
"m 	c #E8ECF1",
"n 	c #5F6984",
"o 	c #675C6A",
"p 	c #534C62",
"q 	c #8A6F75",
"r 	c #542C33",
"s 	c #592E37",
"t 	c #8C323B",
"u 	c #B9848C",
"v 	c #EEEFF2",
"w 	c #494B65",
"x 	c #723641",
"y 	c #842E3A",
"z 	c #A13D47",
"A 	c #785E66",
"B 	c #552B33",
"C 	c #532D34",
"D 	c #742D38",
"E 	c #993038",
"F 	c #B05A62",
"G 	c #733E46",
"H 	c #7C2D39",
"I 	c #8F2A36",
"J 	c #9C2E39",
"K 	c #634049",
"L 	c #4F2D33",
"M 	c #642B35",
"N 	c #902630",
"O 	c #A72831",
"P 	c #942E39",
"Q 	c #80303B",
"R 	c #6A3440",
"S 	c #AF9297",
"T 	c #A7A0A9",
"U 	c #56343D",
"V 	c #523137",
"W 	c #563038",
"X 	c #64303C",
"Y 	c #6F333D",
"Z 	c #805863",
"` 	c #CBBABE",
" .	c #EDE6E7",
"..	c #8F8B94",
"+.	c #858195",
"@.	c #B0C6D1",
"#.	c #836D75",
"$.	c #632E36",
"%.	c #672F37",
"&.	c #622E38",
"*.	c #835B65",
"=.	c #FAF9FA",
"-.	c #82505C",
";.	c #782C38",
">.	c #67596F",
",.	c #7A7C90",
"'.	c #8D90A1",
").	c #685058",
"!.	c #872F37",
"~.	c #872F38",
"{.	c #982832",
"].	c #813A43",
"^.	c #80696F",
"/.	c #58343E",
"(.	c #8D2935",
"_.	c #644147",
":.	c #5E3038",
"<.	c #5D2F37",
"[.	c #9C212A",
"}.	c #A4232D",
"|.	c #502C33",
"1.	c #552D35",
"2.	c #703D44",
"3.	c #5A2E37",
"4.	c #552F37",
"5.	c #573038",
"6.	c #7F2730",
"7.	c #9D242D",
"8.	c #682A34",
"9.	c #826F77",
"0.	c #634C50",
"a.	c #492D31",
"b.	c #563138",
"c.	c #6F434B",
"                .               ",
"  +               @             ",
"# $       % & * = - ;           ",
"> , ' ) ! ~ { ] ^ / (           ",
"_ : < [ } | 1 2 3 4 5           ",
"6 7 8 9 0 a b c d e f           ",
"  g h i j k l m n o p           ",
"    q r s t u v w x y z         ",
"    A B C D E F G H I J         ",
"      K L M N O P Q R S T       ",
"        U V W X Y Z `  ...+.  @.",
"        #.$.%.&.*.=.-.;.>.,.'.  ",
"        ).!.~.{.].^./.(.        ",
"        _.:.<.[.}.|.1.2.        ",
"        3.4.5.6.7.8.9.          ",
"        0.r a.L b.c.            "};
