/* XPM */
static char * dog_xpm[] = {
"16 16 7 1",
" 	c None",
".	c #000000",
"+	c #C49F9F",
"@	c #BC9958",
"#	c #282725",
"$	c #AA8C33",
"%	c #F40000",
"            .  .",
"           .. ..",
"          .++.+.",
"         .@@@@+.",
"         ..#@@@.",
"         .##@@@.",
"        .$@@@@@.",
"      ..$$$@@@@.",
"    ..$$$$$$@@. ",
"  ..$$$$$$$$$$. ",
"  ..$$$$$$$$..  ",
"    ........    ",
"   .%%%.        ",
"   .%%.         ",
"    ..          ",
"                "};
