/* XPM */
static const char * flower_xpm[] = {
"16 16 3 1",
" 	c None",
".	c #000000",
"+	c #C94242",
"                ",
"     . . .      ",
"    .+.+.+.     ",
"    .+++++.     ",
"    .+++++.     ",
"    .+++++.     ",
"     .+++.      ",
"      ...       ",
"       .        ",
"       .        ",
"       .        ",
"       .        ",
"       .        ",
"       .        ",
"       .        ",
"       .        "};
