/* XPM */
static const char * gift_xpm[] = {
"16 16 4 1",
" 	c None",
".	c #F90707",
"+	c #000000",
"@	c #B5932D",
"                ",
"                ",
"                ",
"      ...   ..  ",
"      .+.+..+..+",
"     +..@..@..++",
"    ..........@+",
"   +@@@..@@@+.@.",
"  ++++..++++@..+",
"  +@@@..@@@+@.@+",
"  +@@@..@@@+..@+",
"  ..........@.+ ",
"  +@@@..@@@+@.  ",
"  +@@@..@@@++   ",
"  ++++..++++    ",
"                "};
