/* XPM */
static const char * girl_xpm[] = {
"16 16 3 1",
" 	c None",
".	c #000000",
"+	c #D6BE00",
"                ",
"                ",
"      ...       ",
"     .+++.      ",
"     .+++.      ",
"      ...       ",
"       .        ",
"     .....      ",
"       .        ",
"       .        ",
"      ...       ",
"      ...       ",
"     .....      ",
"     .   .      ",
"                ",
"                "};
