/* XPM */
static char * handcuffs_xpm[] = {
"16 16 21 1",
" 	c None",
".	c #000000",
"+	c #121B26",
"@	c #1E2D3F",
"#	c #182433",
"$	c #15202D",
"%	c #182332",
"&	c #030507",
"*	c #0F1620",
"=	c #111A25",
"-	c #1D2C3F",
";	c #141F2C",
">	c #0F161F",
",	c #151F2D",
"'	c #030406",
")	c #1B2839",
"!	c #06090D",
"~	c #1B2939",
"{	c #2D4460",
"]	c #0E161F",
"^	c #0C1219",
"                ",
"  ....          ",
" .    +         ",
" .    @         ",
" .   #$         ",
" .  %&*         ",
"  =-;>     ,-=' ",
"      ).  +    .",
"        ! +    .",
"        . +~   .",
"       {  @!]  .",
"       .   ^... ",
"         .      ",
"                ",
"                ",
"                "};
