/* XPM */
static char * phone_xpm[] = {
"16 16 3 1",
" 	c None",
".	c #000000",
"+	c #7C7676",
"                ",
"                ",
"                ",
"                ",
"                ",
"  ............  ",
" .++++++++++++. ",
" .+++......+++. ",
" .++.      .++. ",
"  ..        ..  ",
"                ",
"                ",
"                ",
"                ",
"                ",
"                "};
