/* XPM */
static const char * photo_xpm[] = {
"16 16 6 1",
" 	c None",
".	c #000000",
"+	c #F6FF00",
"@	c #C6C6C6",
"#	c #7A7A7A",
"$	c #8BCDF9",
"                ",
"                ",
"                ",
"           ...  ",
"          .+++. ",
" .............. ",
".@@@@@@@@@@@@@@.",
".@.@@@@@@####@@.",
".@.@@@@@##...#@.",
".@.@@@@@#.$$$.@.",
".@.@@@@@#.$$$.@.",
".@.@@@@@#.$$$.@.",
".@.@@@@@@#...@@.",
".@@@@@@@@@@@@@@.",
" .............. ",
"                "};
