/* XPM */
static char * run_xpm[] = {
"16 16 3 1",
" 	c None",
".	c #000000",
"+	c #D3B85F",
"                ",
"    ...         ",
"   .+++.        ",
"   .+++.        ",
"   .+++.        ",
"    .+.         ",
"   .++.         ",
"   .++.....     ",
"  .++++++++.    ",
"  .+++++...     ",
"  .+++++++.     ",
" .+++++...      ",
" .+++++.        ",
" .+++++.        ",
"  .....         ",
"                "};
