/* XPM */
static char * thumbdown_xpm[] = {
"16 16 4 1",
" 	c None",
".	c #000000",
"+	c #D6BE00",
"@	c #FFFFFF",
"                ",
"     ...        ",
"    .+++...     ",
"    ...++++.... ",
"   .+++++++++++ ",
"    ...++++++++ ",
"   .+++++++++++ ",
"    ...++++++++ ",
"   .+++++++.... ",
"    ....++.     ",
"      @.++.     ",
"      .++.      ",
"      .++.      ",
"      .++.      ",
"       ..       ",
"                "};
